<?xml version="1.0" encoding="UTF-8" standalone="no"?>
<!DOCTYPE svg PUBLIC "-//W3C//DTD SVG 1.1//EN" "http://www.w3.org/Graphics/SVG/1.1/DTD/svg11.dtd">
<svg version="1.1" xmlns="http://www.w3.org/2000/svg" xmlns:xlink="http://www.w3.org/1999/xlink" preserveAspectRatio="xMidYMid meet" viewBox="0 0 640 640" width="60" height="60"><defs><path d="M382.62 114.97L385.61 114.98L388.65 115.01L391.72 115.03L394.83 115.07L397.98 115.11L401.15 115.16L404.36 115.21L407.59 115.27L410.85 115.34L414.13 115.41L417.42 115.48L420.73 115.57L424.05 115.65L427.38 115.75L430.71 115.85L434.05 115.95L437.39 116.06L440.72 116.18L444.05 116.3L447.37 116.43L450.68 116.56L453.98 116.7L457.26 116.84L460.51 116.99L463.75 117.14L472.34 117.58L480.63 118.02L488.64 118.48L496.36 118.95L503.79 119.43L510.95 119.93L517.84 120.43L524.46 120.93L530.81 121.45L536.91 121.97L542.75 122.5L548.34 123.03L553.68 123.56L558.78 124.09L563.65 124.62L568.28 125.16L572.68 125.69L576.86 126.21L580.81 126.74L584.55 127.26L588.09 127.77L591.41 128.28L594.53 128.77L597.46 129.26L600.19 129.74L602.73 130.21L605.08 130.66L607.26 131.1L609.26 131.53L611.09 131.94L612.75 132.34L614.25 132.71L615.59 133.07L616.78 133.41L617.82 133.73L618.71 134.02L619.46 134.29L620.08 134.54L620.57 134.76L620.92 134.96L620.53 134.97L619.32 134.95L617.33 134.91L614.59 134.85L611.17 134.76L607.9 134.68L610.81 135.01L614.11 135.41L616.98 135.79L619.41 136.15L621.37 136.48L622.82 136.78L623.74 137.05L624.1 137.29L624.27 137.93L624.43 138.6L624.59 139.32L624.74 140.08L624.89 140.88L625.02 141.73L625.15 142.61L625.27 143.53L625.39 144.5L625.49 145.5L625.59 146.55L625.68 147.63L625.77 148.76L625.85 149.93L625.92 151.14L625.98 152.39L626.04 153.68L626.08 155.01L626.12 156.39L626.16 157.8L626.18 159.26L626.2 160.75L626.22 162.29L626.22 163.87L626.22 165.49L626.21 167.14L626.19 168.85L626.16 170.59L626.13 172.37L626.09 174.19L626.05 176.06L625.99 177.96L625.93 179.91L625.86 181.89L625.79 183.92L625.7 185.99L625.61 188.1L625.51 190.25L625.41 192.44L625.3 194.67L625.29 194.68L625.29 194.69L625.29 194.7L625.29 194.72L625.29 194.73L625.28 194.74L625.28 194.75L625.28 194.76L625.27 194.77L625.27 194.78L625.26 194.79L625.26 194.8L625.25 194.81L625.25 194.82L625.24 194.82L625.24 194.83L625.23 194.84L625.22 194.85L625.21 194.86L625.21 194.87L625.2 194.87L625.19 194.88L625.18 194.89L625.17 194.89L625.16 194.9L625.15 194.9L625.15 194.91L625.14 194.91L625.13 194.92L625.12 194.92L625.11 194.93L625.1 194.93L625.09 194.93L625.07 194.94L625.06 194.94L625.05 194.94L625.04 194.94L625.03 194.94L625.02 194.94L625.01 194.94L514.19 194.94L514.17 194.94L514.16 194.94L514.15 194.94L514.14 194.94L514.13 194.94L514.12 194.94L514.11 194.93L514.1 194.93L514.09 194.93L514.08 194.92L514.07 194.92L514.06 194.91L514.05 194.91L514.04 194.9L514.03 194.9L514.02 194.89L514.01 194.89L514 194.88L514 194.87L513.99 194.86L513.98 194.86L513.97 194.85L513.97 194.84L513.96 194.83L513.95 194.82L513.95 194.82L513.94 194.81L513.94 194.8L513.93 194.79L513.93 194.78L513.92 194.77L513.92 194.76L513.91 194.75L513.91 194.74L513.91 194.73L513.91 194.72L513.9 194.7L513.9 194.69L513.9 194.68L513.9 194.67L513.78 191.99L513.66 189.38L513.54 186.83L513.4 184.35L513.27 181.93L513.13 179.57L512.98 177.28L512.83 175.05L512.67 172.88L512.51 170.78L512.34 168.74L512.17 166.76L511.99 164.85L511.81 163L511.62 161.22L511.43 159.5L511.23 157.84L511.03 156.24L510.82 154.71L510.61 153.25L510.39 151.84L510.17 150.51L509.94 149.23L509.71 148.02L509.47 146.87L509.23 145.79L508.98 144.77L508.73 143.81L508.47 142.92L508.21 142.09L507.94 141.32L507.67 140.62L507.39 139.98L507.11 139.4L506.82 138.89L506.53 138.44L506.23 138.06L505.92 137.74L505.62 137.48L505.3 137.29L504.88 137.12L504.25 136.94L503.41 136.74L502.35 136.53L501.09 136.31L499.62 136.07L497.94 135.82L496.05 135.55L493.95 135.27L491.63 134.98L489.11 134.68L486.38 134.36L483.44 134.02L480.29 133.68L476.93 133.31L473.36 132.94L469.58 132.55L465.59 132.15L461.39 131.73L456.98 131.3L452.36 130.86L451.56 130.78L447.91 130.72L440.48 130.59L433.41 130.48L426.72 130.39L420.47 130.32L414.7 130.28L409.44 130.26L404.75 130.27L400.67 130.31L397.24 130.37L394.5 130.47L392.51 130.6L391.29 130.77L390.89 130.97L391.09 132.47L391.27 134.19L391.43 136.13L391.56 138.27L391.68 140.62L391.79 143.17L391.87 145.91L391.95 148.85L392 151.97L392.04 155.26L392.07 158.74L392.09 162.38L392.1 166.18L392.09 170.15L392.08 174.27L392.05 178.55L392.02 182.96L391.98 187.52L391.94 192.21L391.88 197.04L391.83 201.99L391.77 207.05L391.7 212.24L391.64 217.53L391.57 222.93L391.5 228.43L391.43 234.03L391.36 239.72L391.29 245.49L391.23 251.35L391.17 257.28L391.11 263.28L391.06 269.34L391.01 275.47L390.97 281.66L390.94 287.89L390.91 294.17L390.9 300.49L390.89 306.85L390.89 313.24L390.9 320.62L390.89 328.02L390.88 335.41L390.86 342.8L390.82 350.17L390.78 357.52L390.73 364.82L390.67 372.08L390.61 379.29L390.54 386.42L390.46 393.48L390.38 400.44L390.3 407.31L390.21 414.07L390.12 420.71L390.02 427.22L389.92 433.6L389.82 439.82L389.72 445.88L389.62 451.77L389.52 457.48L389.42 463.01L389.32 468.33L389.22 473.43L389.12 478.32L389.03 482.98L388.93 487.4L388.85 491.56L388.76 495.46L388.68 499.09L388.61 502.44L388.54 505.49L388.48 508.24L388.43 510.68L388.38 512.79L388.34 514.58L388.31 516.01L388.29 517.1L388.28 517.82L388.28 518.16L388.39 518.45L388.69 518.73L389.17 519L389.82 519.26L390.64 519.52L391.6 519.77L392.71 520.02L393.94 520.26L395.3 520.49L396.76 520.72L398.33 520.94L399.98 521.15L401.72 521.36L403.52 521.57L405.38 521.77L406.03 521.83L517.19 510.26L517.19 403.46L495.34 402.51L495.33 402.51L495.33 402.51L495.32 402.51L495.32 402.5L495.31 402.5L495.3 402.5L495.3 402.5L495.29 402.49L495.29 402.49L495.29 402.49L495.28 402.48L495.28 402.48L495.27 402.47L495.27 402.47L495.27 402.47L495.27 402.46L495.26 402.46L495.26 402.45L495.26 402.45L495.26 402.44L495.26 402.43L495.26 402.43L495.26 402.42L495.26 402.42L495.26 402.41L495.26 402.41L495.26 402.4L495.26 402.4L495.26 402.39L495.26 402.39L495.27 402.38L495.27 402.38L495.27 402.37L495.28 402.37L495.28 402.36L495.28 402.36L495.29 402.35L495.29 402.35L495.3 402.35L495.3 402.34L497.05 401.43L497.04 401.42L497.01 401.36L496.99 401.29L496.96 401.22L496.94 401.15L496.92 401.08L496.9 401.01L496.88 400.94L496.87 400.87L496.86 400.79L496.85 400.72L492.2 339.29L496.12 339.3L499.96 339.3L503.7 339.31L507.35 339.33L510.91 339.34L514.38 339.35L517.75 339.36L521.04 339.38L524.23 339.39L527.32 339.41L530.33 339.42L533.24 339.44L536.07 339.46L538.8 339.47L541.44 339.49L543.98 339.51L546.44 339.53L548.8 339.55L551.07 339.58L553.24 339.6L555.33 339.62L557.32 339.64L559.23 339.67L561.03 339.69L562.75 339.72L564.38 339.75L565.91 339.77L567.35 339.8L568.7 339.83L569.96 339.86L571.12 339.89L572.2 339.92L573.18 339.95L574.07 339.98L574.86 340.02L575.57 340.05L576.18 340.09L576.7 340.12L577.13 340.16L577.46 340.19L577.74 340.27L578.01 340.41L578.27 340.63L578.51 340.93L578.75 341.3L578.98 341.74L579.2 342.25L579.41 342.84L579.61 343.51L579.79 344.24L579.97 345.06L580.14 345.94L580.3 346.9L580.45 347.93L580.59 349.04L580.72 350.22L580.84 351.47L580.96 352.8L581.06 354.2L581.15 355.68L581.23 357.23L581.3 358.85L581.36 360.55L581.42 362.32L581.46 364.17L581.49 366.09L581.51 368.08L581.53 370.15L581.53 372.29L581.52 374.5L581.52 375.02L582.3 375.04L583.97 375.1L585.57 375.16L587.07 375.22L588.5 375.28L589.84 375.34L591.1 375.41L592.27 375.48L593.36 375.54L594.37 375.61L595.3 375.69L596.14 375.76L596.9 375.83L597.58 375.91L598.17 375.99L598.68 376.07L599.11 376.15L599.49 376.32L599.9 376.66L600.31 377.19L600.74 377.88L601.18 378.75L601.63 379.8L602.09 381.02L602.55 382.41L603.02 383.97L603.49 385.7L603.97 387.61L604.44 389.68L604.92 391.92L605.39 394.33L605.86 396.9L606.32 399.64L606.77 402.55L607.22 405.62L607.66 408.86L608.08 412.25L608.5 415.81L608.89 419.54L609.27 423.42L609.64 427.46L609.98 431.67L610.31 436.03L610.61 440.55L610.88 445.22L611.14 450.05L611.36 455.04L611.56 460.18L611.73 465.48L611.86 470.93L611.97 476.53L612.04 482.29L612.07 488.19L612.07 494.25L612.03 500.46L611.94 506.81L611.82 513.31L611.7 513.45L611.35 513.6L610.76 513.77L609.94 513.95L608.89 514.14L607.6 514.34L606.09 514.56L604.34 514.79L602.35 515.03L600.14 515.29L597.69 515.56L595 515.84L592.09 516.13L588.94 516.43L585.56 516.75L581.94 517.09L578.09 517.43L574.01 517.79L569.7 518.16L565.15 518.54L560.37 518.93L555.36 519.34L550.11 519.76L544.63 520.2L538.92 520.64L532.97 521.1L526.79 521.57L520.38 522.06L513.74 522.55L506.86 523.06L499.75 523.59L492.4 524.12L484.83 524.67L477.02 525.23L468.97 525.81L460.7 526.39L452.19 526.99L443.45 527.6L434.47 528.23L425.26 528.87L424.35 528.9L338.18 528.9L349.66 527.7L334.85 527.7L334.37 527.69L333.89 527.66L333.41 527.62L332.95 527.55L332.48 527.47L332.03 527.37L331.58 527.26L331.13 527.12L330.7 526.97L330.27 526.81L329.85 526.63L329.43 526.43L329.03 526.22L328.63 525.99L328.25 525.75L327.87 525.5L327.51 525.23L327.15 524.95L326.81 524.66L326.47 524.35L326.15 524.04L325.84 523.71L325.54 523.37L325.26 523.01L324.99 522.65L324.73 522.28L324.48 521.9L324.25 521.5L324.03 521.1L323.83 520.69L323.65 520.27L323.47 519.84L323.32 519.4L323.18 518.96L323.06 518.51L322.95 518.05L322.86 517.59L322.79 517.12L322.74 516.64L322.71 516.16L321.74 496.73L320.81 477.79L319.93 459.34L319.1 441.37L318.31 423.9L317.56 406.9L316.86 390.4L316.2 374.38L315.59 358.84L315.03 343.8L314.51 329.24L314.03 315.17L313.6 301.58L313.22 288.48L312.88 275.86L312.58 263.74L312.33 252.1L312.13 240.94L311.97 230.27L311.85 220.09L311.78 210.4L311.76 201.19L311.78 192.47L311.84 184.23L311.95 176.48L312.11 169.22L312.31 162.45L312.55 156.16L312.84 150.35L313.18 145.04L313.56 140.21L313.98 135.87L314.45 132.01L314.97 128.64L315.53 125.76L316.13 123.36L316.78 121.45L317.48 120.02L318.22 119.09L319 118.64L319.28 118.57L319.6 118.5L319.96 118.42L320.36 118.35L320.81 118.27L321.29 118.18L321.81 118.1L322.36 118.01L322.94 117.91L323.55 117.82L324.19 117.73L324.86 117.63L325.54 117.53L326.25 117.43L326.97 117.34L327.72 117.24L328.47 117.14L329.24 117.04L330.02 116.94L330.81 116.84L331.6 116.75L332.4 116.65L333.2 116.56L333.99 116.47L334.79 116.38L335.58 116.29L336.36 116.2L337.14 116.12L337.9 116.05L338.65 115.97L339.39 115.9L340.11 115.83L340.81 115.77L341.48 115.71L342.14 115.66L342.77 115.61L343.37 115.57L343.94 115.53L344.48 115.5L344.98 115.48L346.97 115.4L349.04 115.33L351.2 115.26L353.44 115.2L355.76 115.14L358.16 115.1L360.62 115.06L363.16 115.02L365.76 115L368.43 114.97L371.16 114.96L373.95 114.95L376.79 114.95L379.68 114.95L382.62 114.97ZM157.71 111.18L164.36 111.29L170.88 111.44L177.27 111.64L183.49 111.89L189.52 112.18L195.35 112.52L200.95 112.9L206.29 113.34L211.37 113.82L216.14 114.34L220.61 114.92L224.73 115.54L228.49 116.21L230.84 116.66L233.11 117.11L235.32 117.54L237.45 117.96L239.51 118.37L241.5 118.77L243.42 119.16L245.27 119.53L247.04 119.89L248.75 120.24L250.39 120.58L251.95 120.91L253.44 121.23L254.86 121.53L256.21 121.82L257.49 122.1L258.7 122.37L259.83 122.63L260.9 122.88L261.89 123.11L262.81 123.33L263.66 123.54L264.44 123.74L265.15 123.93L265.79 124.11L266.36 124.27L266.85 124.42L267.28 124.57L267.63 124.7L267.91 124.81L268.01 124.87L268.11 124.88L269.45 125.05L270.71 125.23L271.88 125.42L272.97 125.6L273.97 125.8L274.88 126L275.71 126.2L276.45 126.4L277.11 126.62L277.68 126.83L278.16 127.05L278.56 127.28L278.88 127.51L279.13 127.96L279.38 128.88L279.62 130.26L279.85 132.11L280.08 134.42L280.29 137.19L280.49 140.42L280.69 144.12L280.87 148.28L281.05 152.9L281.22 157.99L281.37 163.54L281.52 169.55L281.66 176.02L281.79 182.96L281.92 190.36L282.03 198.23L282.13 206.55L282.23 215.34L282.31 224.6L282.39 234.31L282.45 244.49L282.51 255.13L282.56 266.24L282.6 277.81L282.63 289.84L282.65 302.33L282.66 315.29L282.67 328.71L282.66 342.59L282.65 356.94L282.62 371.75L282.59 387.02L282.55 402.75L282.49 418.95L282.43 435.61L282.36 452.74L282.29 470.32L282.2 488.37L282.1 506.89L282.09 507.35L282.06 507.81L282.01 508.27L281.94 508.72L281.86 509.16L281.76 509.6L281.64 510.03L281.51 510.46L281.36 510.88L281.19 511.28L281.01 511.69L280.81 512.08L280.6 512.46L280.38 512.84L280.14 513.2L279.89 513.56L279.62 513.9L279.35 514.24L279.06 514.56L278.75 514.87L278.44 515.17L278.11 515.46L277.78 515.74L277.43 516L277.08 516.25L276.71 516.49L276.33 516.71L275.95 516.92L275.55 517.11L275.15 517.29L274.74 517.45L274.32 517.6L273.9 517.73L273.47 517.85L273.03 517.95L272.58 518.03L272.13 518.09L271.68 518.14L271.21 518.17L270.75 518.18L215.15 518.18L214.68 518.17L214.22 518.14L213.76 518.09L213.31 518.03L212.87 517.95L212.43 517.85L211.99 517.73L211.57 517.6L211.15 517.46L210.74 517.29L210.33 517.11L209.94 516.92L209.55 516.71L209.18 516.49L208.81 516.25L208.45 516L208.1 515.74L207.76 515.47L207.44 515.18L207.12 514.88L206.82 514.57L206.53 514.24L206.25 513.91L205.98 513.56L205.73 513.21L205.49 512.84L205.26 512.47L205.05 512.08L204.85 511.69L204.67 511.29L204.5 510.88L204.35 510.46L204.21 510.04L204.09 509.61L203.99 509.17L203.9 508.72L203.83 508.27L203.78 507.82L203.75 507.35L203.73 506.89L199.43 124.56L196.24 124.29L192.52 123.99L188.85 123.72L185.23 123.49L181.67 123.28L178.15 123.1L174.68 122.96L171.27 122.84L167.9 122.75L164.59 122.69L161.32 122.66L158.11 122.66L154.94 122.69L151.83 122.74L148.77 122.83L145.75 122.95L142.79 123.1L139.88 123.27L137.02 123.48L134.21 123.71L131.45 123.98L128.74 124.27L126.08 124.6L123.47 124.95L120.91 125.33L118.4 125.74L115.94 126.19L113.54 126.66L111.18 127.16L108.87 127.69L106.62 128.25L104.41 128.84L102.26 129.45L100.15 130.1L98.1 130.78L96.09 131.49L94.14 132.22L92.24 132.99L90.99 133.62L89.8 134.46L88.66 135.5L87.58 136.75L86.55 138.21L85.57 139.87L84.64 141.73L83.77 143.8L82.94 146.08L82.15 148.57L81.42 151.26L80.73 154.15L80.08 157.26L79.47 160.57L78.91 164.09L78.39 167.82L77.91 171.75L77.46 175.89L77.05 180.24L76.68 184.8L76.34 189.57L76.04 194.55L75.77 199.73L75.53 205.13L75.32 210.73L75.14 216.54L74.98 222.56L74.86 228.79L74.76 235.24L74.68 241.89L74.63 248.75L74.6 255.82L74.59 263.1L74.6 270.6L74.63 278.3L74.68 286.22L74.74 294.35L74.82 302.69L74.91 311.24L75.02 320L75.08 324.08L75.15 328.21L75.24 332.38L75.34 336.61L75.46 340.88L75.59 345.2L75.74 349.57L75.9 353.99L76.07 358.46L76.26 362.97L76.47 367.54L76.69 372.15L76.92 376.81L77.17 381.52L77.43 386.28L77.71 391.08L78 395.94L78.31 400.84L78.63 405.79L78.97 410.79L79.32 415.84L79.68 420.94L80.06 426.09L80.45 431.28L80.86 436.52L81.29 441.82L81.72 447.16L82.18 452.55L82.64 457.98L83.12 463.47L83.62 469L84.13 474.59L84.66 480.22L85.19 485.9L85.75 491.62L86.32 497.4L86.9 503.23L87.5 509.1L88.11 515.02L88.74 520.99L88.76 521.23L88.77 521.47L88.77 521.7L88.76 521.93L88.74 522.16L88.71 522.39L88.67 522.61L88.62 522.83L88.57 523.05L88.5 523.26L88.43 523.47L88.35 523.68L88.26 523.88L88.16 524.08L88.05 524.28L87.94 524.47L87.82 524.65L87.69 524.83L87.56 525L87.41 525.17L87.27 525.33L87.11 525.49L86.95 525.64L86.78 525.78L86.61 525.92L86.43 526.05L86.25 526.18L86.06 526.29L85.86 526.4L85.67 526.5L85.46 526.59L85.25 526.68L85.04 526.75L84.82 526.82L84.6 526.88L84.38 526.93L84.15 526.97L83.92 527L83.68 527.02L83.45 527.03L24.47 528.6L24 528.6L23.53 528.58L23.06 528.55L22.6 528.5L22.15 528.43L21.7 528.34L21.26 528.23L20.82 528.11L20.39 527.97L19.97 527.82L19.55 527.65L19.15 527.47L18.75 527.27L18.36 527.05L17.98 526.82L17.61 526.58L17.25 526.32L16.89 526.05L16.55 525.77L16.23 525.48L15.91 525.17L15.6 524.85L15.31 524.52L15.03 524.18L14.76 523.82L14.5 523.46L14.26 523.09L14.03 522.71L13.82 522.31L13.62 521.91L13.44 521.5L13.27 521.08L13.12 520.66L12.98 520.22L12.86 519.78L12.76 519.33L12.67 518.88L12.61 518.41L12.56 517.95L12.52 517.47L11.69 498.82L10.91 480.62L10.16 462.88L9.46 445.58L8.81 428.75L8.19 412.36L7.62 396.43L7.09 380.96L6.61 365.93L6.17 351.37L5.77 337.25L5.41 323.59L5.1 310.38L4.83 297.63L4.61 285.33L4.43 273.49L4.29 262.09L4.19 251.16L4.14 240.67L4.13 230.64L4.17 221.07L4.25 211.94L4.37 203.28L4.53 195.06L4.74 187.3L4.99 179.99L5.28 173.14L5.62 166.74L6 160.8L6.42 155.3L6.89 150.27L7.4 145.68L7.96 141.55L8.55 137.88L9.19 134.65L9.88 131.89L10.6 129.57L11.37 127.71L12.18 126.3L13.04 125.35L14.64 124.25L16.71 123.19L19.23 122.18L22.18 121.21L25.53 120.29L29.27 119.4L33.37 118.57L37.81 117.77L42.57 117.02L47.63 116.32L52.96 115.66L58.54 115.04L64.35 114.47L70.38 113.94L76.59 113.45L82.96 113.02L89.48 112.62L96.12 112.27L102.86 111.97L109.67 111.71L116.55 111.5L123.45 111.33L130.37 111.21L137.27 111.13L144.15 111.1L150.97 111.12L157.71 111.18ZM24.66 493.52L24.23 493.59L23.81 493.71L23.42 493.87L23.04 494.06L22.69 494.29L22.36 494.56L22.06 494.85L21.8 495.18L21.57 495.53L21.37 495.91L21.21 496.31L21.1 496.73L21.03 497.16L21 497.61L21 519.72L21.03 520.17L21.1 520.6L21.21 521.02L21.37 521.41L21.57 521.79L21.8 522.14L22.06 522.47L22.36 522.77L22.69 523.03L23.04 523.26L23.42 523.46L23.81 523.62L24.23 523.73L24.66 523.8L25.11 523.82L28.32 523.82L28.76 523.8L29.2 523.73L29.61 523.62L30.01 523.46L30.39 523.26L30.74 523.03L31.07 522.77L31.36 522.47L31.63 522.14L31.86 521.79L32.06 521.41L32.21 521.02L32.33 520.6L32.4 520.17L32.42 519.72L32.42 497.61L32.4 497.16L32.33 496.73L32.21 496.31L32.06 495.91L31.86 495.53L31.63 495.18L31.36 494.85L31.07 494.56L30.74 494.29L30.39 494.06L30.01 493.87L29.61 493.71L29.2 493.59L28.76 493.52L28.32 493.5L25.11 493.5L24.66 493.52ZM335.27 491.52L334.83 491.59L334.4 491.71L334 491.87L333.61 492.07L333.25 492.31L332.92 492.58L332.61 492.88L332.34 493.22L332.1 493.58L331.91 493.96L331.75 494.37L331.63 494.8L331.56 495.24L331.53 495.7L331.53 518.31L331.56 518.77L331.63 519.21L331.75 519.64L331.91 520.05L332.1 520.43L332.34 520.79L332.61 521.13L332.92 521.43L333.25 521.7L333.61 521.94L334 522.14L334.4 522.3L334.83 522.42L335.27 522.49L335.73 522.51L339.15 522.51L339.6 522.49L340.05 522.42L340.47 522.3L340.88 522.14L341.27 521.94L341.63 521.7L341.96 521.43L342.26 521.13L342.54 520.79L342.77 520.43L342.97 520.05L343.13 519.64L343.25 519.21L343.32 518.77L343.35 518.31L343.35 495.7L343.32 495.24L343.25 494.8L343.13 494.37L342.97 493.96L342.77 493.58L342.54 493.22L342.26 492.88L341.96 492.58L341.63 492.31L341.27 492.07L340.88 491.87L340.47 491.71L340.05 491.59L339.6 491.52L339.15 491.5L335.73 491.5L335.27 491.52ZM213.23 483.25L212.77 483.33L212.33 483.46L211.92 483.64L211.53 483.86L211.16 484.12L210.83 484.41L210.54 484.74L210.28 485.11L210.06 485.5L209.88 485.91L209.75 486.35L209.67 486.81L209.65 487.28L209.65 509.11L209.67 509.59L209.75 510.04L209.88 510.48L210.06 510.9L210.28 511.29L210.54 511.65L210.83 511.98L211.16 512.28L211.53 512.54L211.92 512.76L212.33 512.93L212.77 513.06L213.23 513.14L213.7 513.17L213.88 513.17L214.36 513.14L214.81 513.06L215.25 512.93L215.67 512.76L216.06 512.54L216.42 512.28L216.75 511.98L217.05 511.65L217.31 511.29L217.53 510.9L217.7 510.48L217.83 510.04L217.91 509.59L217.94 509.11L217.94 487.28L217.91 486.81L217.83 486.35L217.7 485.91L217.53 485.5L217.31 485.11L217.05 484.74L216.75 484.41L216.42 484.12L216.06 483.86L215.67 483.64L215.25 483.46L214.81 483.33L214.36 483.25L213.88 483.23L213.7 483.23L213.23 483.25ZM532.94 502.33L532.68 502.41L532.43 502.54L532.22 502.72L532.04 502.93L531.91 503.18L531.83 503.45L531.8 503.74L531.8 511.48L531.83 511.77L531.91 512.04L532.04 512.28L532.22 512.5L532.43 512.67L532.68 512.8L532.94 512.89L533.23 512.92L542.17 512.92L542.46 512.89L542.73 512.8L542.98 512.67L543.19 512.5L543.37 512.28L543.5 512.04L543.58 511.77L543.61 511.48L543.61 503.74L543.58 503.45L543.5 503.18L543.37 502.93L543.19 502.72L542.98 502.54L542.73 502.41L542.46 502.33L542.17 502.3L533.23 502.3L532.94 502.33ZM532.94 488.37L532.68 488.45L532.43 488.58L532.22 488.76L532.04 488.97L531.91 489.22L531.83 489.49L531.8 489.78L531.8 497.52L531.83 497.81L531.91 498.08L532.04 498.32L532.22 498.54L532.43 498.71L532.68 498.84L532.94 498.93L533.23 498.96L542.17 498.96L542.46 498.93L542.73 498.84L542.98 498.71L543.19 498.54L543.37 498.32L543.5 498.08L543.58 497.81L543.61 497.52L543.61 489.78L543.58 489.49L543.5 489.22L543.37 488.97L543.19 488.76L542.98 488.58L542.73 488.45L542.46 488.37L542.17 488.34L533.23 488.34L532.94 488.37ZM24.66 453.66L24.23 453.73L23.81 453.84L23.42 454L23.04 454.2L22.69 454.43L22.36 454.69L22.06 454.99L21.8 455.32L21.57 455.67L21.37 456.05L21.21 456.44L21.1 456.86L21.03 457.29L21 457.74L21 479.85L21.03 480.3L21.1 480.73L21.21 481.15L21.37 481.55L21.57 481.93L21.8 482.28L22.06 482.61L22.36 482.9L22.69 483.17L23.04 483.4L23.42 483.59L23.81 483.75L24.23 483.87L24.66 483.94L25.11 483.96L28.32 483.96L28.76 483.94L29.2 483.87L29.61 483.75L30.01 483.59L30.39 483.4L30.74 483.17L31.07 482.9L31.36 482.61L31.63 482.28L31.86 481.93L32.06 481.55L32.21 481.15L32.33 480.73L32.4 480.3L32.42 479.85L32.42 457.74L32.4 457.29L32.33 456.86L32.21 456.44L32.06 456.05L31.86 455.67L31.63 455.32L31.36 454.99L31.07 454.69L30.74 454.43L30.39 454.2L30.01 454L29.61 453.84L29.2 453.73L28.76 453.66L28.32 453.64L25.11 453.64L24.66 453.66ZM532.94 472.86L532.68 472.95L532.43 473.08L532.22 473.25L532.04 473.47L531.91 473.71L531.83 473.98L531.8 474.27L531.8 482.01L531.83 482.3L531.91 482.57L532.04 482.82L532.22 483.03L532.43 483.2L532.68 483.34L532.94 483.42L533.23 483.45L542.17 483.45L542.46 483.42L542.73 483.34L542.98 483.2L543.19 483.03L543.37 482.82L543.5 482.57L543.58 482.3L543.61 482.01L543.61 474.27L543.58 473.98L543.5 473.71L543.37 473.47L543.19 473.25L542.98 473.08L542.73 472.95L542.46 472.86L542.17 472.83L533.23 472.83L532.94 472.86ZM335.27 450.75L334.83 450.82L334.4 450.94L334 451.1L333.61 451.3L333.25 451.54L332.92 451.81L332.61 452.11L332.34 452.45L332.1 452.81L331.91 453.19L331.75 453.6L331.63 454.02L331.56 454.47L331.53 454.93L331.53 477.54L331.56 478L331.63 478.44L331.75 478.87L331.91 479.28L332.1 479.66L332.34 480.02L332.61 480.36L332.92 480.66L333.25 480.93L333.61 481.17L334 481.37L334.4 481.53L334.83 481.64L335.27 481.72L335.73 481.74L339.15 481.74L339.6 481.72L340.05 481.64L340.47 481.53L340.88 481.37L341.27 481.17L341.63 480.93L341.96 480.66L342.26 480.36L342.54 480.02L342.77 479.66L342.97 479.28L343.13 478.87L343.25 478.44L343.32 478L343.35 477.54L343.35 454.93L343.32 454.47L343.25 454.02L343.13 453.6L342.97 453.19L342.77 452.81L342.54 452.45L342.26 452.11L341.96 451.81L341.63 451.54L341.27 451.3L340.88 451.1L340.47 450.94L340.05 450.82L339.6 450.75L339.15 450.73L335.73 450.73L335.27 450.75ZM213.23 443.89L212.77 443.97L212.33 444.1L211.92 444.28L211.53 444.5L211.16 444.75L210.83 445.05L210.54 445.38L210.28 445.74L210.06 446.14L209.88 446.55L209.75 446.99L209.67 447.45L209.65 447.92L209.65 469.75L209.67 470.22L209.75 470.68L209.88 471.12L210.06 471.53L210.28 471.92L210.54 472.29L210.83 472.62L211.16 472.92L211.53 473.17L211.92 473.39L212.33 473.57L212.77 473.7L213.23 473.78L213.7 473.81L213.88 473.81L214.36 473.78L214.81 473.7L215.25 473.57L215.67 473.39L216.06 473.17L216.42 472.92L216.75 472.62L217.05 472.29L217.31 471.92L217.53 471.53L217.7 471.12L217.83 470.68L217.91 470.22L217.94 469.75L217.94 447.92L217.91 447.45L217.83 446.99L217.7 446.55L217.53 446.14L217.31 445.74L217.05 445.38L216.75 445.05L216.42 444.75L216.06 444.5L215.67 444.28L215.25 444.1L214.81 443.97L214.36 443.89L213.88 443.86L213.7 443.86L213.23 443.89ZM532.94 456.93L532.68 457.02L532.43 457.15L532.22 457.33L532.04 457.54L531.91 457.78L531.83 458.05L531.8 458.34L531.8 466.09L531.83 466.37L531.91 466.64L532.04 466.89L532.22 467.1L532.43 467.28L532.68 467.41L532.94 467.49L533.23 467.52L542.17 467.52L542.46 467.49L542.73 467.41L542.98 467.28L543.19 467.1L543.37 466.89L543.5 466.64L543.58 466.37L543.61 466.09L543.61 458.34L543.58 458.05L543.5 457.78L543.37 457.54L543.19 457.33L542.98 457.15L542.73 457.02L542.46 456.93L542.17 456.9L533.23 456.9L532.94 456.93ZM532.94 441.43L532.68 441.51L532.43 441.64L532.22 441.82L532.04 442.03L531.91 442.28L531.83 442.55L531.8 442.84L531.8 450.58L531.83 450.87L531.91 451.14L532.04 451.38L532.22 451.59L532.43 451.77L532.68 451.9L532.94 451.99L533.23 452.02L542.17 452.02L542.46 451.99L542.73 451.9L542.98 451.77L543.19 451.59L543.37 451.38L543.5 451.14L543.58 450.87L543.61 450.58L543.61 442.84L543.58 442.55L543.5 442.28L543.37 442.03L543.19 441.82L542.98 441.64L542.73 441.51L542.46 441.43L542.17 441.4L533.23 441.4L532.94 441.43ZM24.66 409.37L24.23 409.44L23.81 409.56L23.42 409.71L23.04 409.91L22.69 410.14L22.36 410.41L22.06 410.7L21.8 411.03L21.57 411.38L21.37 411.76L21.21 412.16L21.1 412.57L21.03 413.01L21 413.46L21 435.57L21.03 436.01L21.1 436.45L21.21 436.87L21.37 437.26L21.57 437.64L21.8 437.99L22.06 438.32L22.36 438.62L22.69 438.88L23.04 439.11L23.42 439.31L23.81 439.46L24.23 439.58L24.66 439.65L25.11 439.67L28.32 439.67L28.76 439.65L29.2 439.58L29.61 439.46L30.01 439.31L30.39 439.11L30.74 438.88L31.07 438.62L31.36 438.32L31.63 437.99L31.86 437.64L32.06 437.26L32.21 436.87L32.33 436.45L32.4 436.01L32.42 435.57L32.42 413.46L32.4 413.01L32.33 412.57L32.21 412.16L32.06 411.76L31.86 411.38L31.63 411.03L31.36 410.7L31.07 410.41L30.74 410.14L30.39 409.91L30.01 409.71L29.61 409.56L29.2 409.44L28.76 409.37L28.32 409.35L25.11 409.35L24.66 409.37ZM335.27 405.46L334.83 405.53L334.4 405.65L334 405.8L333.61 406L333.25 406.24L332.92 406.51L332.61 406.82L332.34 407.15L332.1 407.51L331.91 407.9L331.75 408.3L331.63 408.73L331.56 409.17L331.53 409.63L331.53 432.25L331.56 432.7L331.63 433.15L331.75 433.57L331.91 433.98L332.1 434.37L332.34 434.73L332.61 435.06L332.92 435.36L333.25 435.64L333.61 435.87L334 436.07L334.4 436.23L334.83 436.35L335.27 436.42L335.73 436.45L339.15 436.45L339.6 436.42L340.05 436.35L340.47 436.23L340.88 436.07L341.27 435.87L341.63 435.64L341.96 435.36L342.26 435.06L342.54 434.73L342.77 434.37L342.97 433.98L343.13 433.57L343.25 433.15L343.32 432.7L343.35 432.25L343.35 409.63L343.32 409.17L343.25 408.73L343.13 408.3L342.97 407.9L342.77 407.51L342.54 407.15L342.26 406.82L341.96 406.51L341.63 406.24L341.27 406L340.88 405.8L340.47 405.65L340.05 405.53L339.6 405.46L339.15 405.43L335.73 405.43L335.27 405.46ZM532.94 425.3L532.68 425.38L532.43 425.52L532.22 425.69L532.04 425.9L531.91 426.15L531.83 426.42L531.8 426.71L531.8 434.45L531.83 434.74L531.91 435.01L532.04 435.26L532.22 435.47L532.43 435.64L532.68 435.78L532.94 435.86L533.23 435.89L542.17 435.89L542.46 435.86L542.73 435.78L542.98 435.64L543.19 435.47L543.37 435.26L543.5 435.01L543.58 434.74L543.61 434.45L543.61 426.71L543.58 426.42L543.5 426.15L543.37 425.9L543.19 425.69L542.98 425.52L542.73 425.38L542.46 425.3L542.17 425.27L533.23 425.27L532.94 425.3ZM213.23 400.16L212.77 400.24L212.33 400.37L211.92 400.55L211.53 400.77L211.16 401.03L210.83 401.32L210.54 401.65L210.28 402.02L210.06 402.41L209.88 402.82L209.75 403.26L209.67 403.72L209.65 404.19L209.65 426.02L209.67 426.5L209.75 426.95L209.88 427.39L210.06 427.81L210.28 428.2L210.54 428.56L210.83 428.89L211.16 429.19L211.53 429.45L211.92 429.67L212.33 429.84L212.77 429.97L213.23 430.05L213.7 430.08L213.88 430.08L214.36 430.05L214.81 429.97L215.25 429.84L215.67 429.67L216.06 429.45L216.42 429.19L216.75 428.89L217.05 428.56L217.31 428.2L217.53 427.81L217.7 427.39L217.83 426.95L217.91 426.5L217.94 426.02L217.94 404.19L217.91 403.72L217.83 403.26L217.7 402.82L217.53 402.41L217.31 402.02L217.05 401.65L216.75 401.32L216.42 401.03L216.06 400.77L215.67 400.55L215.25 400.37L214.81 400.24L214.36 400.16L213.88 400.14L213.7 400.14L213.23 400.16ZM532.94 409.79L532.68 409.88L532.43 410.01L532.22 410.18L532.04 410.4L531.91 410.64L531.83 410.91L531.8 411.2L531.8 418.94L531.83 419.23L531.91 419.5L532.04 419.75L532.22 419.96L532.43 420.14L532.68 420.27L532.94 420.35L533.23 420.38L542.17 420.38L542.46 420.35L542.73 420.27L542.98 420.14L543.19 419.96L543.37 419.75L543.5 419.5L543.58 419.23L543.61 418.94L543.61 411.2L543.58 410.91L543.5 410.64L543.37 410.4L543.19 410.18L542.98 410.01L542.73 409.88L542.46 409.79L542.17 409.76L533.23 409.76L532.94 409.79ZM532.68 404.34L532.94 404.43L533.23 404.45L539.9 404.45L532.33 404.12L532.43 404.21L532.68 404.34ZM503.64 396.97L503.46 397.06L503.32 397.2L503.23 397.38L503.19 397.58L503.19 398.23L505.67 396.94L503.84 396.94L503.64 396.97ZM503.64 390.69L503.46 390.78L503.32 390.92L503.23 391.1L503.19 391.3L503.19 394.79L503.23 394.99L503.32 395.17L503.46 395.31L503.64 395.4L503.84 395.43L508.56 395.43L512.09 393.59L512.09 391.3L512.06 391.1L511.97 390.92L511.83 390.78L511.65 390.69L511.44 390.66L503.84 390.66L503.64 390.69ZM24.66 363.89L24.23 363.96L23.81 364.07L23.42 364.23L23.04 364.42L22.69 364.65L22.36 364.92L22.06 365.22L21.8 365.54L21.57 365.9L21.37 366.27L21.21 366.67L21.1 367.09L21.03 367.52L21 367.97L21 390.08L21.03 390.53L21.1 390.96L21.21 391.38L21.37 391.78L21.57 392.15L21.8 392.51L22.06 392.83L22.36 393.13L22.69 393.39L23.04 393.63L23.42 393.82L23.81 393.98L24.23 394.09L24.66 394.16L25.11 394.19L28.32 394.19L28.76 394.16L29.2 394.09L29.61 393.98L30.01 393.82L30.39 393.63L30.74 393.39L31.07 393.13L31.36 392.83L31.63 392.51L31.86 392.15L32.06 391.78L32.21 391.38L32.33 390.96L32.4 390.53L32.42 390.08L32.42 367.97L32.4 367.52L32.33 367.09L32.21 366.67L32.06 366.27L31.86 365.9L31.63 365.54L31.36 365.22L31.07 364.92L30.74 364.65L30.39 364.42L30.01 364.23L29.61 364.07L29.2 363.96L28.76 363.89L28.32 363.86L25.11 363.86L24.66 363.89ZM335.27 358.93L334.83 359.01L334.4 359.12L334 359.28L333.61 359.48L333.25 359.72L332.92 359.99L332.61 360.29L332.34 360.63L332.1 360.99L331.91 361.37L331.75 361.78L331.63 362.21L331.56 362.65L331.53 363.11L331.53 385.72L331.56 386.18L331.63 386.62L331.75 387.05L331.91 387.46L332.1 387.84L332.34 388.2L332.61 388.54L332.92 388.84L333.25 389.11L333.61 389.35L334 389.55L334.4 389.71L334.83 389.83L335.27 389.9L335.73 389.92L339.15 389.92L339.6 389.9L340.05 389.83L340.47 389.71L340.88 389.55L341.27 389.35L341.63 389.11L341.96 388.84L342.26 388.54L342.54 388.2L342.77 387.84L342.97 387.46L343.13 387.05L343.25 386.62L343.32 386.18L343.35 385.72L343.35 363.11L343.32 362.65L343.25 362.21L343.13 361.78L342.97 361.37L342.77 360.99L342.54 360.63L342.26 360.29L341.96 359.99L341.63 359.72L341.27 359.48L340.88 359.28L340.47 359.12L340.05 359.01L339.6 358.93L339.15 358.91L335.73 358.91L335.27 358.93ZM503.64 383.72L503.46 383.81L503.32 383.95L503.23 384.12L503.19 384.33L503.19 387.81L503.23 388.02L503.32 388.19L503.46 388.33L503.64 388.43L503.84 388.46L511.44 388.46L511.65 388.43L511.83 388.33L511.97 388.19L512.06 388.02L512.09 387.81L512.09 384.33L512.06 384.12L511.97 383.95L511.83 383.81L511.65 383.72L511.44 383.68L503.84 383.68L503.64 383.72ZM213.23 355.25L212.77 355.33L212.33 355.46L211.92 355.64L211.53 355.85L211.16 356.11L210.83 356.41L210.54 356.74L210.28 357.1L210.06 357.49L209.88 357.91L209.75 358.35L209.67 358.8L209.65 359.28L209.65 381.11L209.67 381.58L209.75 382.04L209.88 382.48L210.06 382.89L210.28 383.28L210.54 383.65L210.83 383.98L211.16 384.27L211.53 384.53L211.92 384.75L212.33 384.93L212.77 385.06L213.23 385.14L213.7 385.17L213.88 385.17L214.36 385.14L214.81 385.06L215.25 384.93L215.67 384.75L216.06 384.53L216.42 384.27L216.75 383.98L217.05 383.65L217.31 383.28L217.53 382.89L217.7 382.48L217.83 382.04L217.91 381.58L217.94 381.11L217.94 359.28L217.91 358.8L217.83 358.35L217.7 357.91L217.53 357.49L217.31 357.1L217.05 356.74L216.75 356.41L216.42 356.11L216.06 355.85L215.67 355.64L215.25 355.46L214.81 355.33L214.36 355.25L213.88 355.22L213.7 355.22L213.23 355.25ZM503.64 376.55L503.46 376.64L503.32 376.78L503.23 376.96L503.19 377.16L503.19 380.65L503.23 380.85L503.32 381.03L503.46 381.17L503.64 381.26L503.84 381.29L511.44 381.29L511.65 381.26L511.83 381.17L511.97 381.03L512.06 380.85L512.09 380.65L512.09 377.16L512.06 376.96L511.97 376.78L511.83 376.64L511.65 376.55L511.44 376.52L503.84 376.52L503.64 376.55ZM503.64 369.58L503.46 369.67L503.32 369.81L503.23 369.98L503.19 370.19L503.19 373.67L503.23 373.88L503.32 374.05L503.46 374.19L503.64 374.29L503.84 374.32L511.44 374.32L511.65 374.29L511.83 374.19L511.97 374.05L512.06 373.88L512.09 373.67L512.09 370.19L512.06 369.98L511.97 369.81L511.83 369.67L511.65 369.58L511.44 369.54L503.84 369.54L503.64 369.58ZM503.64 362.32L503.46 362.41L503.32 362.55L503.23 362.73L503.19 362.94L503.19 366.42L503.23 366.62L503.32 366.8L503.46 366.94L503.64 367.03L503.84 367.06L511.44 367.06L511.65 367.03L511.83 366.94L511.97 366.8L512.06 366.62L512.09 366.42L512.09 362.94L512.06 362.73L511.97 362.55L511.83 362.41L511.65 362.32L511.44 362.29L503.84 362.29L503.64 362.32ZM503.64 355.35L503.46 355.44L503.32 355.58L503.23 355.76L503.19 355.96L503.19 359.44L503.23 359.65L503.32 359.82L503.46 359.96L503.64 360.06L503.84 360.09L511.44 360.09L511.65 360.06L511.83 359.96L511.97 359.82L512.06 359.65L512.09 359.44L512.09 355.96L512.06 355.76L511.97 355.58L511.83 355.44L511.65 355.35L511.44 355.31L503.84 355.31L503.64 355.35ZM503.64 348.18L503.46 348.27L503.32 348.41L503.23 348.59L503.19 348.8L503.19 352.28L503.23 352.48L503.32 352.66L503.46 352.8L503.64 352.89L503.84 352.93L511.44 352.93L511.65 352.89L511.83 352.8L511.97 352.66L512.06 352.48L512.09 352.28L512.09 348.8L512.06 348.59L511.97 348.41L511.83 348.27L511.65 348.18L511.44 348.15L503.84 348.15L503.64 348.18ZM24.66 319.6L24.23 319.67L23.81 319.78L23.42 319.94L23.04 320.14L22.69 320.37L22.36 320.63L22.06 320.93L21.8 321.26L21.57 321.61L21.37 321.99L21.21 322.38L21.1 322.8L21.03 323.23L21 323.68L21 345.79L21.03 346.24L21.1 346.67L21.21 347.09L21.37 347.49L21.57 347.87L21.8 348.22L22.06 348.54L22.36 348.84L22.69 349.11L23.04 349.34L23.42 349.53L23.81 349.69L24.23 349.81L24.66 349.88L25.11 349.9L28.32 349.9L28.76 349.88L29.2 349.81L29.61 349.69L30.01 349.53L30.39 349.34L30.74 349.11L31.07 348.84L31.36 348.54L31.63 348.22L31.86 347.87L32.06 347.49L32.21 347.09L32.33 346.67L32.4 346.24L32.42 345.79L32.42 323.68L32.4 323.23L32.33 322.8L32.21 322.38L32.06 321.99L31.86 321.61L31.63 321.26L31.36 320.93L31.07 320.63L30.74 320.37L30.39 320.14L30.01 319.94L29.61 319.78L29.2 319.67L28.76 319.6L28.32 319.58L25.11 319.58L24.66 319.6ZM503.64 341.21L503.46 341.3L503.32 341.44L503.23 341.62L503.19 341.82L503.19 345.3L503.23 345.51L503.32 345.68L503.46 345.82L503.64 345.92L503.84 345.95L511.44 345.95L511.65 345.92L511.83 345.82L511.97 345.68L512.06 345.51L512.09 345.3L512.09 341.82L512.06 341.62L511.97 341.44L511.83 341.3L511.65 341.21L511.44 341.17L503.84 341.17L503.64 341.21ZM335.27 313.64L334.83 313.71L334.4 313.83L334 313.99L333.61 314.19L333.25 314.42L332.92 314.7L332.61 315L332.34 315.33L332.1 315.69L331.91 316.08L331.75 316.49L331.63 316.91L331.56 317.36L331.53 317.81L331.53 340.43L331.56 340.89L331.63 341.33L331.75 341.76L331.91 342.16L332.1 342.55L332.34 342.91L332.61 343.24L332.92 343.55L333.25 343.82L333.61 344.05L334 344.25L334.4 344.41L334.83 344.53L335.27 344.6L335.73 344.63L339.15 344.63L339.6 344.6L340.05 344.53L340.47 344.41L340.88 344.25L341.27 344.05L341.63 343.82L341.96 343.55L342.26 343.24L342.54 342.91L342.77 342.55L342.97 342.16L343.13 341.76L343.25 341.33L343.32 340.89L343.35 340.43L343.35 317.81L343.32 317.36L343.25 316.91L343.13 316.49L342.97 316.08L342.77 315.69L342.54 315.33L342.26 315L341.96 314.7L341.63 314.42L341.27 314.19L340.88 313.99L340.47 313.83L340.05 313.71L339.6 313.64L339.15 313.61L335.73 313.61L335.27 313.64ZM213.23 311.52L212.77 311.6L212.33 311.73L211.92 311.91L211.53 312.13L211.16 312.39L210.83 312.68L210.54 313.01L210.28 313.38L210.06 313.77L209.88 314.18L209.75 314.62L209.67 315.08L209.65 315.55L209.65 337.38L209.67 337.86L209.75 338.31L209.88 338.75L210.06 339.17L210.28 339.56L210.54 339.92L210.83 340.25L211.16 340.55L211.53 340.81L211.92 341.03L212.33 341.2L212.77 341.33L213.23 341.41L213.7 341.44L213.88 341.44L214.36 341.41L214.81 341.33L215.25 341.2L215.67 341.03L216.06 340.81L216.42 340.55L216.75 340.25L217.05 339.92L217.31 339.56L217.53 339.17L217.7 338.75L217.83 338.31L217.91 337.86L217.94 337.38L217.94 315.55L217.91 315.08L217.83 314.62L217.7 314.18L217.53 313.77L217.31 313.38L217.05 313.01L216.75 312.68L216.42 312.39L216.06 312.13L215.67 311.91L215.25 311.73L214.81 311.6L214.36 311.52L213.88 311.5L213.7 311.5L213.23 311.52ZM24.66 273.54L24.23 273.61L23.81 273.73L23.42 273.89L23.04 274.08L22.69 274.31L22.36 274.58L22.06 274.87L21.8 275.2L21.57 275.55L21.37 275.93L21.21 276.33L21.1 276.75L21.03 277.18L21 277.63L21 299.74L21.03 300.19L21.1 300.62L21.21 301.04L21.37 301.43L21.57 301.81L21.8 302.16L22.06 302.49L22.36 302.79L22.69 303.05L23.04 303.28L23.42 303.48L23.81 303.64L24.23 303.75L24.66 303.82L25.11 303.84L28.32 303.84L28.76 303.82L29.2 303.75L29.61 303.64L30.01 303.48L30.39 303.28L30.74 303.05L31.07 302.79L31.36 302.49L31.63 302.16L31.86 301.81L32.06 301.43L32.21 301.04L32.33 300.62L32.4 300.19L32.42 299.74L32.42 277.63L32.4 277.18L32.33 276.75L32.21 276.33L32.06 275.93L31.86 275.55L31.63 275.2L31.36 274.87L31.07 274.58L30.74 274.31L30.39 274.08L30.01 273.89L29.61 273.73L29.2 273.61L28.76 273.54L28.32 273.52L25.11 273.52L24.66 273.54ZM335.27 266.53L334.83 266.61L334.4 266.72L334 266.88L333.61 267.08L333.25 267.32L332.92 267.59L332.61 267.89L332.34 268.23L332.1 268.59L331.91 268.97L331.75 269.38L331.63 269.81L331.56 270.25L331.53 270.71L331.53 293.32L331.56 293.78L331.63 294.23L331.75 294.65L331.91 295.06L332.1 295.44L332.34 295.8L332.61 296.14L332.92 296.44L333.25 296.71L333.61 296.95L334 297.15L334.4 297.31L334.83 297.43L335.27 297.5L335.73 297.52L339.15 297.52L339.6 297.5L340.05 297.43L340.47 297.31L340.88 297.15L341.27 296.95L341.63 296.71L341.96 296.44L342.26 296.14L342.54 295.8L342.77 295.44L342.97 295.06L343.13 294.65L343.25 294.23L343.32 293.78L343.35 293.32L343.35 270.71L343.32 270.25L343.25 269.81L343.13 269.38L342.97 268.97L342.77 268.59L342.54 268.23L342.26 267.89L341.96 267.59L341.63 267.32L341.27 267.08L340.88 266.88L340.47 266.72L340.05 266.61L339.6 266.53L339.15 266.51L335.73 266.51L335.27 266.53ZM213.23 266.05L212.77 266.13L212.33 266.26L211.92 266.43L211.53 266.65L211.16 266.91L210.83 267.21L210.54 267.54L210.28 267.9L210.06 268.29L209.88 268.71L209.75 269.15L209.67 269.6L209.65 270.08L209.65 291.91L209.67 292.38L209.75 292.84L209.88 293.28L210.06 293.69L210.28 294.08L210.54 294.44L210.83 294.78L211.16 295.07L211.53 295.33L211.92 295.55L212.33 295.73L212.77 295.86L213.23 295.94L213.7 295.96L213.88 295.96L214.36 295.94L214.81 295.86L215.25 295.73L215.67 295.55L216.06 295.33L216.42 295.07L216.75 294.78L217.05 294.44L217.31 294.08L217.53 293.69L217.7 293.28L217.83 292.84L217.91 292.38L217.94 291.91L217.94 270.08L217.91 269.6L217.83 269.15L217.7 268.71L217.53 268.29L217.31 267.9L217.05 267.54L216.75 267.21L216.42 266.91L216.06 266.65L215.67 266.43L215.25 266.26L214.81 266.13L214.36 266.05L213.88 266.02L213.7 266.02L213.23 266.05ZM24.66 229.26L24.23 229.33L23.81 229.44L23.42 229.6L23.04 229.79L22.69 230.03L22.36 230.29L22.06 230.59L21.8 230.91L21.57 231.27L21.37 231.64L21.21 232.04L21.1 232.46L21.03 232.89L21 233.34L21 255.45L21.03 255.9L21.1 256.33L21.21 256.75L21.37 257.15L21.57 257.52L21.8 257.88L22.06 258.2L22.36 258.5L22.69 258.77L23.04 259L23.42 259.19L23.81 259.35L24.23 259.46L24.66 259.53L25.11 259.56L28.32 259.56L28.76 259.53L29.2 259.46L29.61 259.35L30.01 259.19L30.39 259L30.74 258.77L31.07 258.5L31.36 258.2L31.63 257.88L31.86 257.52L32.06 257.15L32.21 256.75L32.33 256.33L32.4 255.9L32.42 255.45L32.42 233.34L32.4 232.89L32.33 232.46L32.21 232.04L32.06 231.64L31.86 231.27L31.63 230.91L31.36 230.59L31.07 230.29L30.74 230.03L30.39 229.79L30.01 229.6L29.61 229.44L29.2 229.33L28.76 229.26L28.32 229.23L25.11 229.23L24.66 229.26ZM213.23 222.32L212.77 222.4L212.33 222.53L211.92 222.7L211.53 222.92L211.16 223.18L210.83 223.48L210.54 223.81L210.28 224.17L210.06 224.56L209.88 224.98L209.75 225.42L209.67 225.87L209.65 226.35L209.65 248.18L209.67 248.65L209.75 249.11L209.88 249.55L210.06 249.96L210.28 250.35L210.54 250.72L210.83 251.05L211.16 251.34L211.53 251.6L211.92 251.82L212.33 252L212.77 252.13L213.23 252.21L213.7 252.23L213.88 252.23L214.36 252.21L214.81 252.13L215.25 252L215.67 251.82L216.06 251.6L216.42 251.34L216.75 251.05L217.05 250.72L217.31 250.35L217.53 249.96L217.7 249.55L217.83 249.11L217.91 248.65L217.94 248.18L217.94 226.35L217.91 225.87L217.83 225.42L217.7 224.98L217.53 224.56L217.31 224.17L217.05 223.81L216.75 223.48L216.42 223.18L216.06 222.92L215.67 222.7L215.25 222.53L214.81 222.4L214.36 222.32L213.88 222.29L213.7 222.29L213.23 222.32ZM335.27 221.24L334.83 221.31L334.4 221.43L334 221.59L333.61 221.79L333.25 222.02L332.92 222.3L332.61 222.6L332.34 222.93L332.1 223.29L331.91 223.68L331.75 224.09L331.63 224.51L331.56 224.96L331.53 225.41L331.53 248.03L331.56 248.49L331.63 248.93L331.75 249.36L331.91 249.76L332.1 250.15L332.34 250.51L332.61 250.84L332.92 251.15L333.25 251.42L333.61 251.66L334 251.86L334.4 252.01L334.83 252.13L335.27 252.2L335.73 252.23L339.15 252.23L339.6 252.2L340.05 252.13L340.47 252.01L340.88 251.86L341.27 251.66L341.63 251.42L341.96 251.15L342.26 250.84L342.54 250.51L342.77 250.15L342.97 249.76L343.13 249.36L343.25 248.93L343.32 248.49L343.35 248.03L343.35 225.41L343.32 224.96L343.25 224.51L343.13 224.09L342.97 223.68L342.77 223.29L342.54 222.93L342.26 222.6L341.96 222.3L341.63 222.02L341.27 221.79L340.88 221.59L340.47 221.43L340.05 221.31L339.6 221.24L339.15 221.21L335.73 221.21L335.27 221.24ZM24.66 183.77L24.23 183.84L23.81 183.96L23.42 184.11L23.04 184.31L22.69 184.54L22.36 184.8L22.06 185.1L21.8 185.43L21.57 185.78L21.37 186.16L21.21 186.55L21.1 186.97L21.03 187.41L21 187.85L21 209.96L21.03 210.41L21.1 210.85L21.21 211.26L21.37 211.66L21.57 212.04L21.8 212.39L22.06 212.72L22.36 213.01L22.69 213.28L23.04 213.51L23.42 213.71L23.81 213.86L24.23 213.98L24.66 214.05L25.11 214.07L28.32 214.07L28.76 214.05L29.2 213.98L29.61 213.86L30.01 213.71L30.39 213.51L30.74 213.28L31.07 213.01L31.36 212.72L31.63 212.39L31.86 212.04L32.06 211.66L32.21 211.26L32.33 210.85L32.4 210.41L32.42 209.96L32.42 187.85L32.4 187.41L32.33 186.97L32.21 186.55L32.06 186.16L31.86 185.78L31.63 185.43L31.36 185.1L31.07 184.8L30.74 184.54L30.39 184.31L30.01 184.11L29.61 183.96L29.2 183.84L28.76 183.77L28.32 183.75L25.11 183.75L24.66 183.77ZM213.23 177.41L212.77 177.49L212.33 177.62L211.92 177.79L211.53 178.01L211.16 178.27L210.83 178.57L210.54 178.9L210.28 179.26L210.06 179.65L209.88 180.07L209.75 180.5L209.67 180.96L209.65 181.43L209.65 203.27L209.67 203.74L209.75 204.2L209.88 204.63L210.06 205.05L210.28 205.44L210.54 205.8L210.83 206.13L211.16 206.43L211.53 206.69L211.92 206.91L212.33 207.09L212.77 207.21L213.23 207.29L213.7 207.32L213.88 207.32L214.36 207.29L214.81 207.21L215.25 207.09L215.67 206.91L216.06 206.69L216.42 206.43L216.75 206.13L217.05 205.8L217.31 205.44L217.53 205.05L217.7 204.63L217.83 204.2L217.91 203.74L217.94 203.27L217.94 181.43L217.91 180.96L217.83 180.5L217.7 180.07L217.53 179.65L217.31 179.26L217.05 178.9L216.75 178.57L216.42 178.27L216.06 178.01L215.67 177.79L215.25 177.62L214.81 177.49L214.36 177.41L213.88 177.38L213.7 177.38L213.23 177.41ZM335.27 174.72L334.83 174.79L334.4 174.91L334 175.07L333.61 175.26L333.25 175.5L332.92 175.77L332.61 176.08L332.34 176.41L332.1 176.77L331.91 177.16L331.75 177.56L331.63 177.99L331.56 178.43L331.53 178.89L331.53 201.51L331.56 201.96L331.63 202.41L331.75 202.83L331.91 203.24L332.1 203.63L332.34 203.99L332.61 204.32L332.92 204.62L333.25 204.9L333.61 205.13L334 205.33L334.4 205.49L334.83 205.61L335.27 205.68L335.73 205.71L339.15 205.71L339.6 205.68L340.05 205.61L340.47 205.49L340.88 205.33L341.27 205.13L341.63 204.9L341.96 204.62L342.26 204.32L342.54 203.99L342.77 203.63L342.97 203.24L343.13 202.83L343.25 202.41L343.32 201.96L343.35 201.51L343.35 178.89L343.32 178.43L343.25 177.99L343.13 177.56L342.97 177.16L342.77 176.77L342.54 176.41L342.26 176.08L341.96 175.77L341.63 175.5L341.27 175.26L340.88 175.07L340.47 174.91L340.05 174.79L339.6 174.72L339.15 174.69L335.73 174.69L335.27 174.72ZM522.63 189.39L522.47 189.46L522.34 189.56L522.24 189.69L522.18 189.84L522.15 190.02L522.15 193.5L522.18 193.67L522.24 193.82L522.34 193.96L522.47 194.06L522.63 194.12L522.8 194.15L533.32 194.15L533.49 194.12L533.65 194.06L533.78 193.96L533.88 193.82L533.94 193.67L533.97 193.5L533.97 190.02L533.94 189.84L533.88 189.69L533.78 189.56L533.65 189.46L533.49 189.39L533.32 189.37L522.8 189.37L522.63 189.39ZM522.63 183.11L522.47 183.18L522.34 183.28L522.24 183.41L522.18 183.57L522.15 183.74L522.15 187.22L522.18 187.39L522.24 187.55L522.34 187.68L522.47 187.78L522.63 187.84L522.8 187.87L533.32 187.87L533.49 187.84L533.65 187.78L533.78 187.68L533.88 187.55L533.94 187.39L533.97 187.22L533.97 183.74L533.94 183.57L533.88 183.41L533.78 183.28L533.65 183.18L533.49 183.11L533.32 183.09L522.8 183.09L522.63 183.11ZM522.63 176.14L522.47 176.2L522.34 176.3L522.24 176.44L522.18 176.59L522.15 176.76L522.15 180.24L522.18 180.42L522.24 180.57L522.34 180.7L522.47 180.8L522.63 180.87L522.8 180.89L533.32 180.89L533.49 180.87L533.65 180.8L533.78 180.7L533.88 180.57L533.94 180.42L533.97 180.24L533.97 176.76L533.94 176.59L533.88 176.44L533.78 176.3L533.65 176.2L533.49 176.14L533.32 176.11L522.8 176.11L522.63 176.14ZM522.63 168.97L522.47 169.04L522.34 169.14L522.24 169.27L522.18 169.43L522.15 169.6L522.15 173.08L522.18 173.25L522.24 173.41L522.34 173.54L522.47 173.64L522.63 173.7L522.8 173.73L533.32 173.73L533.49 173.7L533.65 173.64L533.78 173.54L533.88 173.41L533.94 173.25L533.97 173.08L533.97 169.6L533.94 169.43L533.88 169.27L533.78 169.14L533.65 169.04L533.49 168.97L533.32 168.95L522.8 168.95L522.63 168.97ZM24.66 139.48L24.23 139.55L23.81 139.67L23.42 139.83L23.04 140.02L22.69 140.25L22.36 140.52L22.06 140.81L21.8 141.14L21.57 141.49L21.37 141.87L21.21 142.27L21.1 142.69L21.03 143.12L21 143.57L21 165.68L21.03 166.13L21.1 166.56L21.21 166.98L21.37 167.37L21.57 167.75L21.8 168.1L22.06 168.43L22.36 168.73L22.69 168.99L23.04 169.22L23.42 169.42L23.81 169.57L24.23 169.69L24.66 169.76L25.11 169.78L28.32 169.78L28.76 169.76L29.2 169.69L29.61 169.57L30.01 169.42L30.39 169.22L30.74 168.99L31.07 168.73L31.36 168.43L31.63 168.1L31.86 167.75L32.06 167.37L32.21 166.98L32.33 166.56L32.4 166.13L32.42 165.68L32.42 143.57L32.4 143.12L32.33 142.69L32.21 142.27L32.06 141.87L31.86 141.49L31.63 141.14L31.36 140.81L31.07 140.52L30.74 140.25L30.39 140.02L30.01 139.83L29.61 139.67L29.2 139.55L28.76 139.48L28.32 139.46L25.11 139.46L24.66 139.48ZM522.63 162L522.47 162.06L522.34 162.16L522.24 162.3L522.18 162.45L522.15 162.62L522.15 166.1L522.18 166.28L522.24 166.43L522.34 166.56L522.47 166.66L522.63 166.73L522.8 166.75L533.32 166.75L533.49 166.73L533.65 166.66L533.78 166.56L533.88 166.43L533.94 166.28L533.97 166.1L533.97 162.62L533.94 162.45L533.88 162.3L533.78 162.16L533.65 162.06L533.49 162L533.32 161.97L522.8 161.97L522.63 162ZM213.23 133.68L212.77 133.76L212.33 133.89L211.92 134.06L211.53 134.28L211.16 134.54L210.83 134.84L210.54 135.17L210.28 135.53L210.06 135.92L209.88 136.34L209.75 136.78L209.67 137.23L209.65 137.71L209.65 159.54L209.67 160.01L209.75 160.47L209.88 160.91L210.06 161.32L210.28 161.71L210.54 162.08L210.83 162.41L211.16 162.7L211.53 162.96L211.92 163.18L212.33 163.36L212.77 163.49L213.23 163.57L213.7 163.59L213.88 163.59L214.36 163.57L214.81 163.49L215.25 163.36L215.67 163.18L216.06 162.96L216.42 162.7L216.75 162.41L217.05 162.08L217.31 161.71L217.53 161.32L217.7 160.91L217.83 160.47L217.91 160.01L217.94 159.54L217.94 137.71L217.91 137.23L217.83 136.78L217.7 136.34L217.53 135.92L217.31 135.53L217.05 135.17L216.75 134.84L216.42 134.54L216.06 134.28L215.67 134.06L215.25 133.89L214.81 133.76L214.36 133.68L213.88 133.65L213.7 133.65L213.23 133.68ZM335.27 129.42L334.83 129.49L334.4 129.61L334 129.77L333.61 129.97L333.25 130.21L332.92 130.48L332.61 130.78L332.34 131.12L332.1 131.48L331.91 131.86L331.75 132.27L331.63 132.7L331.56 133.14L331.53 133.6L331.53 156.21L331.56 156.67L331.63 157.11L331.75 157.54L331.91 157.95L332.1 158.33L332.34 158.69L332.61 159.03L332.92 159.33L333.25 159.6L333.61 159.84L334 160.04L334.4 160.2L334.83 160.31L335.27 160.39L335.73 160.41L339.15 160.41L339.6 160.39L340.05 160.31L340.47 160.2L340.88 160.04L341.27 159.84L341.63 159.6L341.96 159.33L342.26 159.03L342.54 158.69L342.77 158.33L342.97 157.95L343.13 157.54L343.25 157.11L343.32 156.67L343.35 156.21L343.35 133.6L343.32 133.14L343.25 132.7L343.13 132.27L342.97 131.86L342.77 131.48L342.54 131.12L342.26 130.78L341.96 130.48L341.63 130.21L341.27 129.97L340.88 129.77L340.47 129.61L340.05 129.49L339.6 129.42L339.15 129.4L335.73 129.4L335.27 129.42ZM522.63 154.74L522.47 154.81L522.34 154.91L522.24 155.04L522.18 155.2L522.15 155.37L522.15 158.85L522.18 159.02L522.24 159.18L522.34 159.31L522.47 159.41L522.63 159.47L522.8 159.5L533.32 159.5L533.49 159.47L533.65 159.41L533.78 159.31L533.88 159.18L533.94 159.02L533.97 158.85L533.97 155.37L533.94 155.2L533.88 155.04L533.78 154.91L533.65 154.81L533.49 154.74L533.32 154.72L522.8 154.72L522.63 154.74ZM522.63 147.77L522.47 147.83L522.34 147.94L522.24 148.07L522.18 148.22L522.15 148.39L522.15 151.88L522.18 152.05L522.24 152.2L522.34 152.33L522.47 152.43L522.63 152.5L522.8 152.52L533.32 152.52L533.49 152.5L533.65 152.43L533.78 152.33L533.88 152.2L533.94 152.05L533.97 151.88L533.97 148.39L533.94 148.22L533.88 148.07L533.78 147.94L533.65 147.83L533.49 147.77L533.32 147.75L522.8 147.75L522.63 147.77ZM522.63 140.6L522.47 140.67L522.34 140.77L522.24 140.9L522.18 141.06L522.15 141.23L522.15 144.71L522.18 144.88L522.24 145.04L522.34 145.17L522.47 145.27L522.63 145.33L522.8 145.36L533.32 145.36L533.49 145.33L533.65 145.27L533.78 145.17L533.88 145.04L533.94 144.88L533.97 144.71L533.97 141.23L533.94 141.06L533.88 140.9L533.78 140.77L533.65 140.67L533.49 140.6L533.32 140.58L522.8 140.58L522.63 140.6ZM522.63 133.63L522.47 133.69L522.34 133.8L522.24 133.93L522.18 134.08L522.15 134.25L522.15 137.74L522.18 137.91L522.24 138.06L522.34 138.19L522.47 138.29L522.63 138.36L522.8 138.38L533.32 138.38L533.49 138.36L533.65 138.29L533.78 138.19L533.88 138.06L533.94 137.91L533.97 137.74L533.97 134.25L533.94 134.08L533.88 133.93L533.78 133.8L533.65 133.69L533.49 133.63L533.32 133.61L522.8 133.61L522.63 133.63Z" id="ghsKIrUsD"></path></defs><g><g><g><use xlink:href="#ghsKIrUsD" opacity="1" fill="#0000ff" fill-opacity="1"></use><g><use xlink:href="#ghsKIrUsD" opacity="1" fill-opacity="0" stroke="#000000" stroke-width="1" stroke-opacity="1"></use></g></g></g></g></svg>