<?xml version="1.0" encoding="UTF-8" standalone="no"?>
<!DOCTYPE svg PUBLIC "-//W3C//DTD SVG 1.1//EN" "http://www.w3.org/Graphics/SVG/1.1/DTD/svg11.dtd">
<svg version="1.1" xmlns="http://www.w3.org/2000/svg" xmlns:xlink="http://www.w3.org/1999/xlink" preserveAspectRatio="xMidYMid meet" viewBox="0 0 640 640" width="60" height="60"><defs><path d="M382.62 114.97L385.61 114.98L388.65 115.01L391.72 115.03L394.83 115.07L397.98 115.11L401.15 115.16L404.36 115.21L407.59 115.27L410.85 115.34L414.13 115.41L417.42 115.48L420.73 115.57L424.05 115.65L427.38 115.75L430.71 115.85L434.05 115.95L437.39 116.06L440.72 116.18L444.05 116.3L447.37 116.43L450.68 116.56L453.98 116.7L457.26 116.84L460.51 116.99L463.75 117.14L472.34 117.58L480.63 118.02L488.64 118.48L496.36 118.95L503.79 119.43L510.95 119.93L517.84 120.43L524.46 120.93L530.81 121.45L536.91 121.97L542.75 122.5L548.34 123.03L553.68 123.56L558.78 124.09L563.65 124.62L568.28 125.16L572.68 125.69L576.86 126.21L580.81 126.74L584.55 127.26L588.09 127.77L591.41 128.28L594.53 128.77L597.46 129.26L600.19 129.74L602.73 130.21L605.08 130.66L607.26 131.1L609.26 131.53L611.09 131.94L612.75 132.34L614.25 132.71L615.59 133.07L616.78 133.41L617.82 133.73L618.71 134.02L619.46 134.29L620.08 134.54L620.57 134.76L620.92 134.96L620.61 134.97L619.62 134.93L617.98 134.86L615.73 134.76L612.92 134.63L609.56 134.47L605.71 134.28L603.23 134.16L607.14 134.59L610.81 135.01L614.11 135.41L616.98 135.79L619.41 136.15L621.37 136.48L622.82 136.78L623.74 137.05L624.1 137.29L624.27 137.93L624.43 138.6L624.59 139.32L624.74 140.08L624.89 140.88L625.02 141.73L625.15 142.61L625.27 143.53L625.39 144.5L625.49 145.5L625.59 146.55L625.68 147.63L625.77 148.76L625.85 149.93L625.92 151.14L625.98 152.39L626.04 153.68L626.08 155.01L626.12 156.39L626.16 157.8L626.18 159.26L626.2 160.75L626.22 162.29L626.22 163.87L626.22 165.49L626.21 167.14L626.19 168.85L626.16 170.59L626.13 172.37L626.09 174.19L626.05 176.06L625.99 177.96L625.93 179.91L625.86 181.89L625.79 183.92L625.7 185.99L625.61 188.1L625.51 190.25L625.41 192.44L625.3 194.67L625.29 194.68L625.29 194.69L625.29 194.7L625.29 194.72L625.29 194.73L625.28 194.74L625.28 194.75L625.28 194.76L625.27 194.77L625.27 194.78L625.26 194.79L625.26 194.8L625.25 194.81L625.25 194.82L625.24 194.82L625.24 194.83L625.23 194.84L625.22 194.85L625.21 194.86L625.21 194.87L625.2 194.87L625.19 194.88L625.18 194.89L625.17 194.89L625.16 194.9L625.15 194.9L625.15 194.91L625.14 194.91L625.13 194.92L625.12 194.92L625.11 194.93L625.1 194.93L625.09 194.93L625.07 194.94L625.06 194.94L625.05 194.94L625.04 194.94L625.03 194.94L625.02 194.94L625.01 194.94L514.19 194.94L514.17 194.94L514.16 194.94L514.15 194.94L514.14 194.94L514.13 194.94L514.12 194.94L514.11 194.93L514.1 194.93L514.09 194.93L514.08 194.92L514.07 194.92L514.06 194.91L514.05 194.91L514.04 194.9L514.03 194.9L514.02 194.89L514.01 194.89L514 194.88L514 194.87L513.99 194.86L513.98 194.86L513.97 194.85L513.97 194.84L513.96 194.83L513.95 194.82L513.95 194.82L513.94 194.81L513.94 194.8L513.93 194.79L513.93 194.78L513.92 194.77L513.92 194.76L513.91 194.75L513.91 194.74L513.91 194.73L513.91 194.72L513.9 194.7L513.9 194.69L513.9 194.68L513.9 194.67L513.78 191.99L513.66 189.38L513.54 186.83L513.4 184.35L513.27 181.93L513.13 179.57L512.98 177.28L512.83 175.05L512.67 172.88L512.51 170.78L512.34 168.74L512.17 166.76L511.99 164.85L511.81 163L511.62 161.22L511.43 159.5L511.23 157.84L511.03 156.24L510.82 154.71L510.61 153.25L510.39 151.84L510.17 150.51L509.94 149.23L509.71 148.02L509.47 146.87L509.23 145.79L508.98 144.77L508.73 143.81L508.47 142.92L508.21 142.09L507.94 141.32L507.67 140.62L507.39 139.98L507.11 139.4L506.82 138.89L506.53 138.44L506.23 138.06L505.92 137.74L505.62 137.48L505.3 137.29L504.88 137.12L504.25 136.94L503.41 136.74L502.35 136.53L501.09 136.31L499.62 136.07L497.94 135.82L496.05 135.55L493.95 135.27L491.63 134.98L489.11 134.68L486.38 134.36L483.44 134.02L480.29 133.68L476.93 133.31L473.36 132.94L469.58 132.55L465.59 132.15L461.39 131.73L456.98 131.3L452.36 130.86L447.53 130.4L442.49 129.93L437.24 129.45L431.78 128.95L431.71 128.94L432.02 131.49L432.42 136.12L432.78 141.78L433.12 148.39L433.43 155.91L433.71 164.26L433.96 173.4L434.19 183.25L434.4 193.76L434.58 204.87L434.74 216.52L434.87 228.64L434.99 241.19L435.09 254.08L435.17 267.27L435.24 280.7L435.29 294.3L435.32 308.02L435.35 321.78L435.36 335.55L435.36 349.24L435.34 362.81L435.33 376.18L435.3 389.31L435.26 402.13L435.23 414.58L435.18 426.6L435.14 438.13L435.09 449.1L435.04 459.47L434.99 469.16L434.94 478.12L434.9 486.28L434.86 493.59L434.82 499.99L434.79 505.41L434.77 509.8L434.75 513.09L434.74 515.22L434.75 516.14L434.77 516.43L434.82 516.72L434.89 517.01L434.99 517.3L435.1 517.59L435.24 517.88L435.4 518.16L435.57 518.45L435.76 518.73L435.77 518.74L517.19 510.26L517.19 402.51L471.07 402.51L470.99 402.51L470.92 402.51L470.84 402.5L470.78 402.49L469.41 402.51L469.4 402.51L469.39 402.51L469.38 402.51L469.38 402.51L469.37 402.51L469.36 402.5L469.35 402.5L469.35 402.49L469.34 402.49L469.33 402.48L469.33 402.48L469.32 402.47L469.32 402.47L469.31 402.46L469.31 402.45L469.31 402.45L469.31 402.44L469.3 402.43L469.3 402.43L469.3 402.42L469.3 402.41L469.3 402.4L469.3 402.4L469.3 402.39L469.3 402.38L469.3 402.37L469.3 402.37L469.31 402.36L469.31 402.35L469.31 402.35L469.32 402.34L469.32 402.33L469.33 402.33L469.33 402.32L469.34 402.32L469.34 402.31L469.35 402.31L469.36 402.3L469.37 402.3L469.38 402.3L469.9 402.14L469.9 402.13L469.84 402.09L469.79 402.04L469.73 402L469.68 401.95L469.63 401.9L469.58 401.84L469.53 401.79L469.49 401.73L469.45 401.68L469.4 401.62L469.37 401.56L469.33 401.49L469.29 401.43L469.26 401.36L469.23 401.3L469.21 401.23L469.18 401.16L469.16 401.09L469.14 401.02L469.12 400.94L469.11 400.87L469.09 400.8L469.09 400.72L462.9 339.29L468.12 339.3L473.21 339.3L478.18 339.31L483.03 339.33L487.76 339.34L492.36 339.35L496.84 339.36L501.2 339.38L505.44 339.39L509.55 339.41L513.54 339.42L517.41 339.44L521.16 339.46L524.78 339.47L528.29 339.49L531.67 339.51L534.93 339.53L538.06 339.55L541.08 339.58L543.97 339.6L546.74 339.62L549.39 339.64L551.91 339.67L554.31 339.69L556.59 339.72L558.75 339.75L560.79 339.77L562.7 339.8L564.49 339.83L566.16 339.86L567.71 339.89L569.13 339.92L570.44 339.95L571.62 339.98L572.68 340.02L573.61 340.05L574.42 340.09L575.12 340.12L575.68 340.16L576.13 340.19L576.5 340.27L576.85 340.41L577.2 340.63L577.52 340.93L577.84 341.3L578.14 341.74L578.43 342.25L578.71 342.84L578.97 343.51L579.23 344.24L579.46 345.06L579.69 345.94L579.9 346.9L580.1 347.93L580.29 349.04L580.46 350.22L580.62 351.47L580.77 352.8L580.9 354.21L581.02 355.68L581.13 357.23L581.23 358.85L581.31 360.55L581.38 362.32L581.43 364.17L581.48 366.09L581.51 368.08L581.53 370.15L581.53 372.29L581.52 374.5L581.52 374.58L582.58 374.59L585.96 374.64L589.22 374.68L592.35 374.73L592.53 374.73L593.89 374.68L596.44 374.59L598.89 374.52L601.25 374.46L603.52 374.41L605.69 374.38L607.76 374.36L609.74 374.35L611.63 374.36L613.42 374.38L615.12 374.41L616.72 374.46L618.22 374.52L619.64 374.59L620.95 374.68L622.18 374.78L623.31 374.89L624.34 375.02L625.28 375.16L626.12 375.32L626.87 375.49L627.52 375.67L628.03 375.85L628.71 375.91L629.41 375.99L629.97 376.07L630.42 376.15L630.79 376.31L631.15 376.63L631.5 377.12L631.83 377.77L632.15 378.58L632.45 379.55L632.74 380.69L633.02 381.99L633.29 383.45L633.54 385.07L633.78 386.86L634.01 388.81L634.22 390.92L634.43 393.19L634.61 395.62L634.79 398.22L634.95 400.98L635.1 403.9L635.23 406.99L635.36 410.23L635.47 413.64L635.56 417.21L635.64 420.95L635.71 424.84L635.77 428.9L635.81 433.12L635.84 437.51L635.86 442.05L635.87 446.76L635.86 451.63L635.84 456.67L635.8 461.86L635.75 467.22L635.69 472.74L635.62 478.42L635.53 484.27L635.43 490.27L635.32 496.44L635.19 502.78L635.05 509.27L634.92 509.41L634.52 509.57L633.86 509.75L632.94 509.95L631.76 510.16L630.31 510.39L628.61 510.64L626.64 510.91L624.41 511.2L621.92 511.5L619.16 511.82L616.14 512.16L612.86 512.51L609.32 512.89L605.52 513.28L601.46 513.69L597.13 514.12L592.54 514.56L587.69 515.03L582.57 515.51L577.2 516.01L571.56 516.52L565.66 517.06L559.5 517.61L553.07 518.18L546.39 518.77L539.44 519.37L532.23 519.99L524.76 520.64L517.02 521.29L509.03 521.97L500.77 522.67L492.25 523.38L483.46 524.11L474.42 524.86L465.11 525.62L455.54 526.4L445.71 527.21L435.62 528.02L425.26 528.86L424.35 528.9L338.18 528.9L349.66 527.7L334.85 527.7L334.37 527.69L333.89 527.66L333.41 527.62L332.95 527.55L332.48 527.47L332.03 527.37L331.58 527.26L331.13 527.12L330.7 526.97L330.27 526.81L329.85 526.63L329.43 526.43L329.03 526.22L328.63 525.99L328.25 525.75L327.87 525.5L327.51 525.23L327.15 524.95L326.81 524.66L326.47 524.35L326.15 524.04L325.84 523.71L325.54 523.37L325.26 523.01L324.99 522.65L324.73 522.28L324.48 521.9L324.25 521.5L324.03 521.1L323.83 520.69L323.65 520.27L323.47 519.84L323.32 519.4L323.18 518.96L323.06 518.51L322.95 518.05L322.86 517.59L322.79 517.12L322.74 516.64L322.71 516.16L321.74 496.73L320.81 477.79L319.93 459.34L319.1 441.37L318.31 423.9L317.56 406.9L316.86 390.4L316.2 374.38L315.59 358.84L315.03 343.8L314.51 329.24L314.03 315.17L313.6 301.58L313.22 288.48L312.88 275.86L312.58 263.74L312.33 252.1L312.13 240.94L311.97 230.27L311.85 220.09L311.78 210.4L311.76 201.19L311.78 192.47L311.84 184.23L311.95 176.48L312.11 169.22L312.31 162.45L312.55 156.16L312.84 150.35L313.18 145.04L313.56 140.21L313.98 135.87L314.45 132.01L314.97 128.64L315.53 125.76L316.13 123.36L316.78 121.45L317.48 120.02L318.22 119.09L319 118.64L319.28 118.57L319.6 118.5L319.96 118.42L320.36 118.35L320.81 118.27L321.29 118.18L321.81 118.1L322.36 118.01L322.94 117.91L323.55 117.82L324.19 117.73L324.86 117.63L325.54 117.53L326.25 117.43L326.97 117.34L327.72 117.24L328.47 117.14L329.24 117.04L330.02 116.94L330.81 116.84L331.6 116.75L332.4 116.65L333.2 116.56L333.99 116.47L334.79 116.38L335.58 116.29L336.36 116.2L337.14 116.12L337.9 116.05L338.65 115.97L339.39 115.9L340.11 115.83L340.81 115.77L341.48 115.71L342.14 115.66L342.77 115.61L343.37 115.57L343.94 115.53L344.48 115.5L344.98 115.48L346.97 115.4L349.04 115.33L351.2 115.26L353.44 115.2L355.76 115.14L358.16 115.1L360.62 115.06L363.16 115.02L365.76 115L368.43 114.97L371.16 114.96L373.95 114.95L376.79 114.95L379.68 114.95L382.62 114.97ZM157.71 111.18L164.36 111.29L170.88 111.44L177.27 111.64L183.49 111.89L189.52 112.18L195.35 112.52L200.95 112.9L206.29 113.34L211.37 113.82L216.14 114.34L220.61 114.92L224.73 115.54L228.49 116.21L230.84 116.66L233.11 117.11L235.32 117.54L237.45 117.96L239.51 118.37L241.5 118.77L243.42 119.16L245.27 119.53L247.04 119.89L248.75 120.24L250.39 120.58L251.95 120.91L253.44 121.23L254.86 121.53L256.21 121.82L257.49 122.1L258.7 122.37L259.83 122.63L260.9 122.88L261.89 123.11L262.81 123.33L263.66 123.54L264.44 123.74L265.15 123.93L265.7 124.08L265.77 124.09L267.31 124.28L268.74 124.47L270.04 124.67L271.22 124.87L272.28 125.08L273.21 125.29L274.03 125.51L274.72 125.73L275.29 125.95L275.73 126.18L276.1 126.64L276.46 127.55L276.8 128.94L277.13 130.78L277.44 133.09L277.75 135.86L278.04 139.1L278.31 142.79L278.58 146.95L278.83 151.58L279.07 156.66L279.29 162.21L279.5 168.22L279.7 174.7L279.89 181.64L280.06 189.04L280.22 196.9L280.37 205.23L280.5 214.02L280.63 223.27L280.73 232.99L280.83 243.17L280.91 253.81L280.98 264.91L281.04 276.48L281.08 288.51L281.11 301.01L281.13 313.96L281.13 327.38L281.12 341.27L281.1 355.61L281.07 370.42L281.02 385.69L280.96 401.43L280.89 417.63L280.8 434.29L280.7 451.41L280.59 469L280.46 487.05L280.33 505.56L280.31 506.03L280.28 506.49L280.23 506.94L280.16 507.39L280.08 507.84L279.98 508.28L279.86 508.71L279.72 509.13L279.57 509.55L279.41 509.96L279.22 510.36L279.03 510.75L278.82 511.14L278.59 511.51L278.35 511.88L278.1 512.23L277.83 512.58L277.56 512.91L277.27 513.24L276.96 513.55L276.65 513.85L276.32 514.14L275.99 514.41L275.64 514.68L275.28 514.93L274.91 515.16L274.54 515.38L274.15 515.59L273.76 515.79L273.36 515.97L272.94 516.13L272.53 516.28L272.1 516.41L271.67 516.52L271.23 516.62L270.78 516.7L270.33 516.77L269.88 516.81L269.41 516.84L268.95 516.85L180.16 516.85L179.69 516.84L179.23 516.81L178.77 516.77L178.32 516.7L177.87 516.62L177.43 516.52L177 516.41L176.57 516.28L176.15 516.13L175.74 515.97L175.33 515.79L174.94 515.6L174.55 515.39L174.17 515.17L173.8 514.93L173.44 514.68L173.1 514.42L172.76 514.14L172.43 513.85L172.11 513.55L171.81 513.24L171.51 512.92L171.23 512.59L170.97 512.24L170.71 511.89L170.47 511.52L170.24 511.15L170.03 510.76L169.83 510.37L169.64 509.97L169.47 509.56L169.32 509.14L169.18 508.72L169.06 508.28L168.95 507.84L168.86 507.4L168.79 506.95L168.74 506.49L168.7 506.03L168.69 505.56L162.63 128.25L161.58 128.5L159.76 128.95L157.93 129.42L156.09 129.92L154.26 130.44L152.42 130.99L150.57 131.57L148.72 132.16L146.87 132.79L145.01 133.43L143.15 134.1L141.29 134.8L139.42 135.52L137.55 136.26L135.67 137.03L133.89 138.01L132.17 139.42L130.53 141.27L128.95 143.56L127.45 146.29L126.02 149.45L124.67 153.06L123.38 157.1L122.17 161.58L121.02 166.49L119.95 171.84L118.95 177.64L118.02 183.86L117.17 190.53L116.38 197.63L115.67 205.18L115.03 213.16L114.46 221.57L113.96 230.43L113.53 239.72L113.18 249.45L112.89 259.62L112.68 270.22L112.54 281.27L112.47 292.75L112.47 304.67L112.55 317.02L112.69 329.82L112.91 343.05L113.2 356.72L113.56 370.82L113.99 385.37L114.49 400.35L115.07 415.77L115.72 431.63L116.43 447.92L117.22 464.66L118.09 481.83L119.02 499.44L120.02 517.48L120.04 517.94L120.04 518.4L120.02 518.86L119.97 519.31L119.92 519.75L119.84 520.19L119.74 520.62L119.63 521.05L119.51 521.47L119.36 521.88L119.2 522.28L119.02 522.68L118.83 523.07L118.62 523.45L118.4 523.82L118.17 524.18L117.92 524.53L117.66 524.87L117.38 525.2L117.09 525.51L116.79 525.82L116.48 526.11L116.15 526.4L115.82 526.66L115.47 526.92L115.12 527.16L114.75 527.39L114.37 527.6L113.99 527.8L113.59 527.99L113.19 528.15L112.78 528.31L112.36 528.44L111.93 528.56L111.5 528.66L111.06 528.75L110.61 528.81L110.16 528.86L109.7 528.89L109.24 528.9L24.48 528.9L24 528.89L23.52 528.86L23.06 528.81L22.59 528.75L22.14 528.67L21.69 528.57L21.24 528.45L20.8 528.32L20.37 528.18L19.95 528.01L19.53 527.83L19.13 527.64L18.73 527.43L18.34 527.21L17.96 526.97L17.59 526.72L17.23 526.45L16.88 526.18L16.54 525.88L16.21 525.58L15.89 525.27L15.59 524.94L15.29 524.6L15.01 524.26L14.75 523.9L14.49 523.53L14.25 523.15L14.02 522.76L13.81 522.36L13.61 521.96L13.43 521.54L13.26 521.12L13.11 520.68L12.98 520.25L12.86 519.8L12.76 519.35L12.67 518.89L12.61 518.42L12.56 517.95L12.52 517.47L11.69 498.82L10.91 480.62L10.16 462.88L9.46 445.58L8.81 428.75L8.19 412.36L7.62 396.43L7.09 380.96L6.61 365.93L6.17 351.37L5.77 337.25L5.41 323.59L5.1 310.38L4.83 297.63L4.61 285.33L4.43 273.49L4.29 262.09L4.19 251.16L4.14 240.67L4.13 230.64L4.17 221.07L4.25 211.94L4.37 203.28L4.53 195.06L4.74 187.3L4.99 179.99L5.28 173.14L5.62 166.74L6 160.8L6.42 155.3L6.89 150.27L7.4 145.68L7.96 141.55L8.55 137.88L9.19 134.65L9.88 131.89L10.6 129.57L11.37 127.71L12.18 126.3L13.04 125.35L14.64 124.25L16.71 123.19L19.23 122.18L22.18 121.21L25.53 120.29L29.27 119.4L33.37 118.57L37.81 117.77L42.57 117.02L47.63 116.32L52.96 115.66L58.54 115.04L64.35 114.47L70.38 113.94L76.59 113.45L82.96 113.02L89.48 112.62L96.12 112.27L102.86 111.97L109.67 111.71L116.55 111.5L123.45 111.33L130.37 111.21L137.27 111.13L144.15 111.1L150.97 111.12L157.71 111.18ZM24.66 493.52L24.23 493.59L23.81 493.71L23.42 493.87L23.04 494.06L22.69 494.29L22.36 494.56L22.06 494.85L21.8 495.18L21.57 495.53L21.37 495.91L21.21 496.31L21.1 496.73L21.03 497.16L21 497.61L21 519.72L21.03 520.17L21.1 520.6L21.21 521.02L21.37 521.41L21.57 521.79L21.8 522.14L22.06 522.47L22.36 522.77L22.69 523.03L23.04 523.26L23.42 523.46L23.81 523.62L24.23 523.73L24.66 523.8L25.11 523.82L28.32 523.82L28.76 523.8L29.2 523.73L29.61 523.62L30.01 523.46L30.39 523.26L30.74 523.03L31.07 522.77L31.36 522.47L31.63 522.14L31.86 521.79L32.06 521.41L32.21 521.02L32.33 520.6L32.4 520.17L32.42 519.72L32.42 497.61L32.4 497.16L32.33 496.73L32.21 496.31L32.06 495.91L31.86 495.53L31.63 495.18L31.36 494.85L31.07 494.56L30.74 494.29L30.39 494.06L30.01 493.87L29.61 493.71L29.2 493.59L28.76 493.52L28.32 493.5L25.11 493.5L24.66 493.52ZM335.27 491.52L334.83 491.59L334.4 491.71L334 491.87L333.61 492.07L333.25 492.31L332.92 492.58L332.61 492.88L332.34 493.22L332.1 493.58L331.91 493.96L331.75 494.37L331.63 494.8L331.56 495.24L331.53 495.7L331.53 518.31L331.56 518.77L331.63 519.21L331.75 519.64L331.91 520.05L332.1 520.43L332.34 520.79L332.61 521.13L332.92 521.43L333.25 521.7L333.61 521.94L334 522.14L334.4 522.3L334.83 522.42L335.27 522.49L335.73 522.51L339.15 522.51L339.6 522.49L340.05 522.42L340.47 522.3L340.88 522.14L341.27 521.94L341.63 521.7L341.96 521.43L342.26 521.13L342.54 520.79L342.77 520.43L342.97 520.05L343.13 519.64L343.25 519.21L343.32 518.77L343.35 518.31L343.35 495.7L343.32 495.24L343.25 494.8L343.13 494.37L342.97 493.96L342.77 493.58L342.54 493.22L342.26 492.88L341.96 492.58L341.63 492.31L341.27 492.07L340.88 491.87L340.47 491.71L340.05 491.59L339.6 491.52L339.15 491.5L335.73 491.5L335.27 491.52ZM532.94 502.33L532.68 502.41L532.43 502.54L532.22 502.72L532.04 502.93L531.91 503.18L531.83 503.45L531.8 503.74L531.8 511.48L531.83 511.77L531.91 512.04L532.04 512.28L532.22 512.5L532.43 512.67L532.68 512.8L532.94 512.89L533.23 512.92L542.17 512.92L542.46 512.89L542.73 512.8L542.98 512.67L543.19 512.5L543.37 512.28L543.5 512.04L543.58 511.77L543.61 511.48L543.61 503.74L543.58 503.45L543.5 503.18L543.37 502.93L543.19 502.72L542.98 502.54L542.73 502.41L542.46 502.33L542.17 502.3L533.23 502.3L532.94 502.33ZM180.72 481.92L180.29 481.99L179.88 482.11L179.49 482.26L179.12 482.45L178.77 482.68L178.45 482.94L178.15 483.24L177.89 483.56L177.66 483.91L177.47 484.28L177.32 484.67L177.2 485.08L177.13 485.51L177.11 485.95L177.11 507.79L177.13 508.23L177.2 508.66L177.32 509.07L177.47 509.46L177.66 509.83L177.89 510.18L178.15 510.5L178.45 510.8L178.77 511.06L179.12 511.29L179.49 511.48L179.88 511.63L180.29 511.75L180.72 511.82L181.16 511.84L184.87 511.84L185.31 511.82L185.74 511.75L186.15 511.63L186.54 511.48L186.92 511.29L187.26 511.06L187.59 510.8L187.88 510.5L188.14 510.18L188.37 509.83L188.56 509.46L188.72 509.07L188.83 508.66L188.9 508.23L188.92 507.79L188.92 485.95L188.9 485.51L188.83 485.08L188.72 484.67L188.56 484.28L188.37 483.91L188.14 483.56L187.88 483.24L187.59 482.94L187.26 482.68L186.92 482.45L186.54 482.26L186.15 482.11L185.74 481.99L185.31 481.92L184.87 481.9L181.16 481.9L180.72 481.92ZM532.94 488.37L532.68 488.45L532.43 488.58L532.22 488.76L532.04 488.97L531.91 489.22L531.83 489.49L531.8 489.78L531.8 497.52L531.83 497.81L531.91 498.08L532.04 498.32L532.22 498.54L532.43 498.71L532.68 498.84L532.94 498.93L533.23 498.96L542.17 498.96L542.46 498.93L542.73 498.84L542.98 498.71L543.19 498.54L543.37 498.32L543.5 498.08L543.58 497.81L543.61 497.52L543.61 489.78L543.58 489.49L543.5 489.22L543.37 488.97L543.19 488.76L542.98 488.58L542.73 488.45L542.46 488.37L542.17 488.34L533.23 488.34L532.94 488.37ZM24.66 453.66L24.23 453.73L23.81 453.84L23.42 454L23.04 454.2L22.69 454.43L22.36 454.69L22.06 454.99L21.8 455.32L21.57 455.67L21.37 456.05L21.21 456.44L21.1 456.86L21.03 457.29L21 457.74L21 479.85L21.03 480.3L21.1 480.73L21.21 481.15L21.37 481.55L21.57 481.93L21.8 482.28L22.06 482.61L22.36 482.9L22.69 483.17L23.04 483.4L23.42 483.59L23.81 483.75L24.23 483.87L24.66 483.94L25.11 483.96L28.32 483.96L28.76 483.94L29.2 483.87L29.61 483.75L30.01 483.59L30.39 483.4L30.74 483.17L31.07 482.9L31.36 482.61L31.63 482.28L31.86 481.93L32.06 481.55L32.21 481.15L32.33 480.73L32.4 480.3L32.42 479.85L32.42 457.74L32.4 457.29L32.33 456.86L32.21 456.44L32.06 456.05L31.86 455.67L31.63 455.32L31.36 454.99L31.07 454.69L30.74 454.43L30.39 454.2L30.01 454L29.61 453.84L29.2 453.73L28.76 453.66L28.32 453.64L25.11 453.64L24.66 453.66ZM532.94 472.86L532.68 472.95L532.43 473.08L532.22 473.25L532.04 473.47L531.91 473.71L531.83 473.98L531.8 474.27L531.8 482.01L531.83 482.3L531.91 482.57L532.04 482.82L532.22 483.03L532.43 483.2L532.68 483.34L532.94 483.42L533.23 483.45L542.17 483.45L542.46 483.42L542.73 483.34L542.98 483.2L543.19 483.03L543.37 482.82L543.5 482.57L543.58 482.3L543.61 482.01L543.61 474.27L543.58 473.98L543.5 473.71L543.37 473.47L543.19 473.25L542.98 473.08L542.73 472.95L542.46 472.86L542.17 472.83L533.23 472.83L532.94 472.86ZM335.27 450.75L334.83 450.82L334.4 450.94L334 451.1L333.61 451.3L333.25 451.54L332.92 451.81L332.61 452.11L332.34 452.45L332.1 452.81L331.91 453.19L331.75 453.6L331.63 454.02L331.56 454.47L331.53 454.93L331.53 477.54L331.56 478L331.63 478.44L331.75 478.87L331.91 479.28L332.1 479.66L332.34 480.02L332.61 480.36L332.92 480.66L333.25 480.93L333.61 481.17L334 481.37L334.4 481.53L334.83 481.64L335.27 481.72L335.73 481.74L339.15 481.74L339.6 481.72L340.05 481.64L340.47 481.53L340.88 481.37L341.27 481.17L341.63 480.93L341.96 480.66L342.26 480.36L342.54 480.02L342.77 479.66L342.97 479.28L343.13 478.87L343.25 478.44L343.32 478L343.35 477.54L343.35 454.93L343.32 454.47L343.25 454.02L343.13 453.6L342.97 453.19L342.77 452.81L342.54 452.45L342.26 452.11L341.96 451.81L341.63 451.54L341.27 451.3L340.88 451.1L340.47 450.94L340.05 450.82L339.6 450.75L339.15 450.73L335.73 450.73L335.27 450.75ZM180.72 442.56L180.29 442.63L179.88 442.74L179.49 442.9L179.12 443.09L178.77 443.32L178.45 443.58L178.15 443.88L177.89 444.2L177.66 444.55L177.47 444.92L177.32 445.31L177.2 445.72L177.13 446.15L177.11 446.59L177.11 468.43L177.13 468.87L177.2 469.3L177.32 469.71L177.47 470.1L177.66 470.47L177.89 470.82L178.15 471.14L178.45 471.44L178.77 471.7L179.12 471.93L179.49 472.12L179.88 472.27L180.29 472.39L180.72 472.46L181.16 472.48L184.87 472.48L185.31 472.46L185.74 472.39L186.15 472.27L186.54 472.12L186.92 471.93L187.26 471.7L187.59 471.44L187.88 471.14L188.14 470.82L188.37 470.47L188.56 470.1L188.72 469.71L188.83 469.3L188.9 468.87L188.92 468.43L188.92 446.59L188.9 446.15L188.83 445.72L188.72 445.31L188.56 444.92L188.37 444.55L188.14 444.2L187.88 443.88L187.59 443.58L187.26 443.32L186.92 443.09L186.54 442.9L186.15 442.74L185.74 442.63L185.31 442.56L184.87 442.54L181.16 442.54L180.72 442.56ZM532.94 456.93L532.68 457.02L532.43 457.15L532.22 457.33L532.04 457.54L531.91 457.78L531.83 458.05L531.8 458.34L531.8 466.09L531.83 466.37L531.91 466.64L532.04 466.89L532.22 467.1L532.43 467.28L532.68 467.41L532.94 467.49L533.23 467.52L542.17 467.52L542.46 467.49L542.73 467.41L542.98 467.28L543.19 467.1L543.37 466.89L543.5 466.64L543.58 466.37L543.61 466.09L543.61 458.34L543.58 458.05L543.5 457.78L543.37 457.54L543.19 457.33L542.98 457.15L542.73 457.02L542.46 456.93L542.17 456.9L533.23 456.9L532.94 456.93ZM532.94 441.43L532.68 441.51L532.43 441.64L532.22 441.82L532.04 442.03L531.91 442.28L531.83 442.55L531.8 442.84L531.8 450.58L531.83 450.87L531.91 451.14L532.04 451.38L532.22 451.59L532.43 451.77L532.68 451.9L532.94 451.99L533.23 452.02L542.17 452.02L542.46 451.99L542.73 451.9L542.98 451.77L543.19 451.59L543.37 451.38L543.5 451.14L543.58 450.87L543.61 450.58L543.61 442.84L543.58 442.55L543.5 442.28L543.37 442.03L543.19 441.82L542.98 441.64L542.73 441.51L542.46 441.43L542.17 441.4L533.23 441.4L532.94 441.43ZM24.66 409.37L24.23 409.44L23.81 409.56L23.42 409.71L23.04 409.91L22.69 410.14L22.36 410.41L22.06 410.7L21.8 411.03L21.57 411.38L21.37 411.76L21.21 412.16L21.1 412.57L21.03 413.01L21 413.46L21 435.57L21.03 436.01L21.1 436.45L21.21 436.87L21.37 437.26L21.57 437.64L21.8 437.99L22.06 438.32L22.36 438.62L22.69 438.88L23.04 439.11L23.42 439.31L23.81 439.46L24.23 439.58L24.66 439.65L25.11 439.67L28.32 439.67L28.76 439.65L29.2 439.58L29.61 439.46L30.01 439.31L30.39 439.11L30.74 438.88L31.07 438.62L31.36 438.32L31.63 437.99L31.86 437.64L32.06 437.26L32.21 436.87L32.33 436.45L32.4 436.01L32.42 435.57L32.42 413.46L32.4 413.01L32.33 412.57L32.21 412.16L32.06 411.76L31.86 411.38L31.63 411.03L31.36 410.7L31.07 410.41L30.74 410.14L30.39 409.91L30.01 409.71L29.61 409.56L29.2 409.44L28.76 409.37L28.32 409.35L25.11 409.35L24.66 409.37ZM335.27 405.46L334.83 405.53L334.4 405.65L334 405.8L333.61 406L333.25 406.24L332.92 406.51L332.61 406.82L332.34 407.15L332.1 407.51L331.91 407.9L331.75 408.3L331.63 408.73L331.56 409.17L331.53 409.63L331.53 432.25L331.56 432.7L331.63 433.15L331.75 433.57L331.91 433.98L332.1 434.37L332.34 434.73L332.61 435.06L332.92 435.36L333.25 435.64L333.61 435.87L334 436.07L334.4 436.23L334.83 436.35L335.27 436.42L335.73 436.45L339.15 436.45L339.6 436.42L340.05 436.35L340.47 436.23L340.88 436.07L341.27 435.87L341.63 435.64L341.96 435.36L342.26 435.06L342.54 434.73L342.77 434.37L342.97 433.98L343.13 433.57L343.25 433.15L343.32 432.7L343.35 432.25L343.35 409.63L343.32 409.17L343.25 408.73L343.13 408.3L342.97 407.9L342.77 407.51L342.54 407.15L342.26 406.82L341.96 406.51L341.63 406.24L341.27 406L340.88 405.8L340.47 405.65L340.05 405.53L339.6 405.46L339.15 405.43L335.73 405.43L335.27 405.46ZM532.94 425.3L532.68 425.38L532.43 425.52L532.22 425.69L532.04 425.9L531.91 426.15L531.83 426.42L531.8 426.71L531.8 434.45L531.83 434.74L531.91 435.01L532.04 435.26L532.22 435.47L532.43 435.64L532.68 435.78L532.94 435.86L533.23 435.89L542.17 435.89L542.46 435.86L542.73 435.78L542.98 435.64L543.19 435.47L543.37 435.26L543.5 435.01L543.58 434.74L543.61 434.45L543.61 426.71L543.58 426.42L543.5 426.15L543.37 425.9L543.19 425.69L542.98 425.52L542.73 425.38L542.46 425.3L542.17 425.27L533.23 425.27L532.94 425.3ZM180.72 398.83L180.29 398.9L179.88 399.02L179.49 399.17L179.12 399.36L178.77 399.59L178.45 399.85L178.15 400.15L177.89 400.47L177.66 400.82L177.47 401.19L177.32 401.58L177.2 401.99L177.13 402.42L177.11 402.86L177.11 424.7L177.13 425.14L177.2 425.57L177.32 425.98L177.47 426.37L177.66 426.74L177.89 427.09L178.15 427.41L178.45 427.71L178.77 427.97L179.12 428.2L179.49 428.39L179.88 428.55L180.29 428.66L180.72 428.73L181.16 428.75L184.87 428.75L185.31 428.73L185.74 428.66L186.15 428.55L186.54 428.39L186.92 428.2L187.26 427.97L187.59 427.71L187.88 427.41L188.14 427.09L188.37 426.74L188.56 426.37L188.72 425.98L188.83 425.57L188.9 425.14L188.92 424.7L188.92 402.86L188.9 402.42L188.83 401.99L188.72 401.58L188.56 401.19L188.37 400.82L188.14 400.47L187.88 400.15L187.59 399.85L187.26 399.59L186.92 399.36L186.54 399.17L186.15 399.02L185.74 398.9L185.31 398.83L184.87 398.81L181.16 398.81L180.72 398.83ZM532.94 409.79L532.68 409.88L532.43 410.01L532.22 410.18L532.04 410.4L531.91 410.64L531.83 410.91L531.8 411.2L531.8 418.94L531.83 419.23L531.91 419.5L532.04 419.75L532.22 419.96L532.43 420.14L532.68 420.27L532.94 420.35L533.23 420.38L542.17 420.38L542.46 420.35L542.73 420.27L542.98 420.14L543.19 419.96L543.37 419.75L543.5 419.5L543.58 419.23L543.61 418.94L543.61 411.2L543.58 410.91L543.5 410.64L543.37 410.4L543.19 410.18L542.98 410.01L542.73 409.88L542.46 409.79L542.17 409.76L533.23 409.76L532.94 409.79ZM531.8 403.02L531.83 403.31L531.91 403.58L532.04 403.82L532.22 404.03L532.43 404.21L532.68 404.34L532.94 404.43L533.23 404.45L542.17 404.45L542.46 404.43L542.73 404.34L542.98 404.21L543.19 404.03L543.37 403.82L543.5 403.58L543.58 403.31L543.61 403.02L543.61 402.51L531.8 402.51L531.8 403.02ZM477.98 396.96L477.83 397.02L477.7 397.13L477.6 397.26L477.53 397.41L477.51 397.58L477.51 399.82L486.94 396.94L478.15 396.94L477.98 396.96ZM477.98 390.68L477.83 390.75L477.7 390.85L477.6 390.98L477.53 391.13L477.51 391.3L477.51 394.79L477.53 394.96L477.6 395.11L477.7 395.24L477.83 395.35L477.98 395.41L478.15 395.43L488.67 395.43L488.85 395.41L489 395.35L489.13 395.24L489.23 395.11L489.3 394.96L489.32 394.79L489.32 391.3L489.3 391.13L489.23 390.98L489.13 390.85L489 390.75L488.85 390.68L488.67 390.66L478.15 390.66L477.98 390.68ZM24.66 363.89L24.23 363.96L23.81 364.07L23.42 364.23L23.04 364.42L22.69 364.65L22.36 364.92L22.06 365.22L21.8 365.54L21.57 365.9L21.37 366.27L21.21 366.67L21.1 367.09L21.03 367.52L21 367.97L21 390.08L21.03 390.53L21.1 390.96L21.21 391.38L21.37 391.78L21.57 392.15L21.8 392.51L22.06 392.83L22.36 393.13L22.69 393.39L23.04 393.63L23.42 393.82L23.81 393.98L24.23 394.09L24.66 394.16L25.11 394.19L28.32 394.19L28.76 394.16L29.2 394.09L29.61 393.98L30.01 393.82L30.39 393.63L30.74 393.39L31.07 393.13L31.36 392.83L31.63 392.51L31.86 392.15L32.06 391.78L32.21 391.38L32.33 390.96L32.4 390.53L32.42 390.08L32.42 367.97L32.4 367.52L32.33 367.09L32.21 366.67L32.06 366.27L31.86 365.9L31.63 365.54L31.36 365.22L31.07 364.92L30.74 364.65L30.39 364.42L30.01 364.23L29.61 364.07L29.2 363.96L28.76 363.89L28.32 363.86L25.11 363.86L24.66 363.89ZM335.27 358.93L334.83 359.01L334.4 359.12L334 359.28L333.61 359.48L333.25 359.72L332.92 359.99L332.61 360.29L332.34 360.63L332.1 360.99L331.91 361.37L331.75 361.78L331.63 362.21L331.56 362.65L331.53 363.11L331.53 385.72L331.56 386.18L331.63 386.62L331.75 387.05L331.91 387.46L332.1 387.84L332.34 388.2L332.61 388.54L332.92 388.84L333.25 389.11L333.61 389.35L334 389.55L334.4 389.71L334.83 389.83L335.27 389.9L335.73 389.92L339.15 389.92L339.6 389.9L340.05 389.83L340.47 389.71L340.88 389.55L341.27 389.35L341.63 389.11L341.96 388.84L342.26 388.54L342.54 388.2L342.77 387.84L342.97 387.46L343.13 387.05L343.25 386.62L343.32 386.18L343.35 385.72L343.35 363.11L343.32 362.65L343.25 362.21L343.13 361.78L342.97 361.37L342.77 360.99L342.54 360.63L342.26 360.29L341.96 359.99L341.63 359.72L341.27 359.48L340.88 359.28L340.47 359.12L340.05 359.01L339.6 358.93L339.15 358.91L335.73 358.91L335.27 358.93ZM477.98 383.71L477.83 383.77L477.7 383.87L477.6 384L477.53 384.16L477.51 384.33L477.51 387.81L477.53 387.98L477.6 388.14L477.7 388.27L477.83 388.37L477.98 388.44L478.15 388.46L488.67 388.46L488.85 388.44L489 388.37L489.13 388.27L489.23 388.14L489.3 387.98L489.32 387.81L489.32 384.33L489.3 384.16L489.23 384L489.13 383.87L489 383.77L488.85 383.71L488.67 383.68L478.15 383.68L477.98 383.71ZM180.72 353.92L180.29 353.99L179.88 354.1L179.49 354.26L179.12 354.45L178.77 354.68L178.45 354.94L178.15 355.23L177.89 355.56L177.66 355.91L177.47 356.28L177.32 356.67L177.2 357.08L177.13 357.51L177.11 357.95L177.11 379.78L177.13 380.23L177.2 380.65L177.32 381.07L177.47 381.46L177.66 381.83L177.89 382.18L178.15 382.5L178.45 382.79L178.77 383.06L179.12 383.29L179.49 383.48L179.88 383.63L180.29 383.75L180.72 383.82L181.16 383.84L184.87 383.84L185.31 383.82L185.74 383.75L186.15 383.63L186.54 383.48L186.92 383.29L187.26 383.06L187.59 382.79L187.88 382.5L188.14 382.18L188.37 381.83L188.56 381.46L188.72 381.07L188.83 380.65L188.9 380.23L188.92 379.78L188.92 357.95L188.9 357.51L188.83 357.08L188.72 356.67L188.56 356.28L188.37 355.91L188.14 355.56L187.88 355.23L187.59 354.94L187.26 354.68L186.92 354.45L186.54 354.26L186.15 354.1L185.74 353.99L185.31 353.92L184.87 353.9L181.16 353.9L180.72 353.92ZM477.98 376.54L477.83 376.61L477.7 376.71L477.6 376.84L477.53 376.99L477.51 377.16L477.51 380.65L477.53 380.82L477.6 380.97L477.7 381.1L477.83 381.21L477.98 381.27L478.15 381.29L488.67 381.29L488.85 381.27L489 381.21L489.13 381.1L489.23 380.97L489.3 380.82L489.32 380.65L489.32 377.16L489.3 376.99L489.23 376.84L489.13 376.71L489 376.61L488.85 376.54L488.67 376.52L478.15 376.52L477.98 376.54ZM477.98 369.57L477.83 369.63L477.7 369.73L477.6 369.86L477.53 370.02L477.51 370.19L477.51 373.67L477.53 373.84L477.6 374L477.7 374.13L477.83 374.23L477.98 374.3L478.15 374.32L488.67 374.32L488.85 374.3L489 374.23L489.13 374.13L489.23 374L489.3 373.84L489.32 373.67L489.32 370.19L489.3 370.02L489.23 369.86L489.13 369.73L489 369.63L488.85 369.57L488.67 369.54L478.15 369.54L477.98 369.57ZM477.98 362.31L477.83 362.38L477.7 362.48L477.6 362.61L477.53 362.76L477.51 362.94L477.51 366.42L477.53 366.59L477.6 366.74L477.7 366.88L477.83 366.98L477.98 367.04L478.15 367.06L488.67 367.06L488.85 367.04L489 366.98L489.13 366.88L489.23 366.74L489.3 366.59L489.32 366.42L489.32 362.94L489.3 362.76L489.23 362.61L489.13 362.48L489 362.38L488.85 362.31L488.67 362.29L478.15 362.29L477.98 362.31ZM477.98 355.34L477.83 355.4L477.7 355.5L477.6 355.63L477.53 355.79L477.51 355.96L477.51 359.44L477.53 359.61L477.6 359.77L477.7 359.9L477.83 360L477.98 360.07L478.15 360.09L488.67 360.09L488.85 360.07L489 360L489.13 359.9L489.23 359.77L489.3 359.61L489.32 359.44L489.32 355.96L489.3 355.79L489.23 355.63L489.13 355.5L489 355.4L488.85 355.34L488.67 355.31L478.15 355.31L477.98 355.34ZM477.98 348.17L477.83 348.24L477.7 348.34L477.6 348.47L477.53 348.62L477.51 348.8L477.51 352.28L477.53 352.45L477.6 352.6L477.7 352.74L477.83 352.84L477.98 352.9L478.15 352.93L488.67 352.93L488.85 352.9L489 352.84L489.13 352.74L489.23 352.6L489.3 352.45L489.32 352.28L489.32 348.8L489.3 348.62L489.23 348.47L489.13 348.34L489 348.24L488.85 348.17L488.67 348.15L478.15 348.15L477.98 348.17ZM24.66 319.6L24.23 319.67L23.81 319.78L23.42 319.94L23.04 320.14L22.69 320.37L22.36 320.63L22.06 320.93L21.8 321.26L21.57 321.61L21.37 321.99L21.21 322.38L21.1 322.8L21.03 323.23L21 323.68L21 345.79L21.03 346.24L21.1 346.67L21.21 347.09L21.37 347.49L21.57 347.87L21.8 348.22L22.06 348.54L22.36 348.84L22.69 349.11L23.04 349.34L23.42 349.53L23.81 349.69L24.23 349.81L24.66 349.88L25.11 349.9L28.32 349.9L28.76 349.88L29.2 349.81L29.61 349.69L30.01 349.53L30.39 349.34L30.74 349.11L31.07 348.84L31.36 348.54L31.63 348.22L31.86 347.87L32.06 347.49L32.21 347.09L32.33 346.67L32.4 346.24L32.42 345.79L32.42 323.68L32.4 323.23L32.33 322.8L32.21 322.38L32.06 321.99L31.86 321.61L31.63 321.26L31.36 320.93L31.07 320.63L30.74 320.37L30.39 320.14L30.01 319.94L29.61 319.78L29.2 319.67L28.76 319.6L28.32 319.58L25.11 319.58L24.66 319.6ZM477.98 341.2L477.83 341.26L477.7 341.36L477.6 341.49L477.53 341.65L477.51 341.82L477.51 345.3L477.53 345.47L477.6 345.63L477.7 345.76L477.83 345.86L477.98 345.93L478.15 345.95L488.67 345.95L488.85 345.93L489 345.86L489.13 345.76L489.23 345.63L489.3 345.47L489.32 345.3L489.32 341.82L489.3 341.65L489.23 341.49L489.13 341.36L489 341.26L488.85 341.2L488.67 341.17L478.15 341.17L477.98 341.2ZM335.27 313.64L334.83 313.71L334.4 313.83L334 313.99L333.61 314.19L333.25 314.42L332.92 314.7L332.61 315L332.34 315.33L332.1 315.69L331.91 316.08L331.75 316.49L331.63 316.91L331.56 317.36L331.53 317.81L331.53 340.43L331.56 340.89L331.63 341.33L331.75 341.76L331.91 342.16L332.1 342.55L332.34 342.91L332.61 343.24L332.92 343.55L333.25 343.82L333.61 344.05L334 344.25L334.4 344.41L334.83 344.53L335.27 344.6L335.73 344.63L339.15 344.63L339.6 344.6L340.05 344.53L340.47 344.41L340.88 344.25L341.27 344.05L341.63 343.82L341.96 343.55L342.26 343.24L342.54 342.91L342.77 342.55L342.97 342.16L343.13 341.76L343.25 341.33L343.32 340.89L343.35 340.43L343.35 317.81L343.32 317.36L343.25 316.91L343.13 316.49L342.97 316.08L342.77 315.69L342.54 315.33L342.26 315L341.96 314.7L341.63 314.42L341.27 314.19L340.88 313.99L340.47 313.83L340.05 313.71L339.6 313.64L339.15 313.61L335.73 313.61L335.27 313.64ZM180.72 310.19L180.29 310.26L179.88 310.38L179.49 310.53L179.12 310.72L178.77 310.95L178.45 311.21L178.15 311.51L177.89 311.83L177.66 312.18L177.47 312.55L177.32 312.94L177.2 313.35L177.13 313.78L177.11 314.22L177.11 336.06L177.13 336.5L177.2 336.93L177.32 337.34L177.47 337.73L177.66 338.1L177.89 338.45L178.15 338.77L178.45 339.07L178.77 339.33L179.12 339.56L179.49 339.75L179.88 339.9L180.29 340.02L180.72 340.09L181.16 340.11L184.87 340.11L185.31 340.09L185.74 340.02L186.15 339.9L186.54 339.75L186.92 339.56L187.26 339.33L187.59 339.07L187.88 338.77L188.14 338.45L188.37 338.1L188.56 337.73L188.72 337.34L188.83 336.93L188.9 336.5L188.92 336.06L188.92 314.22L188.9 313.78L188.83 313.35L188.72 312.94L188.56 312.55L188.37 312.18L188.14 311.83L187.88 311.51L187.59 311.21L187.26 310.95L186.92 310.72L186.54 310.53L186.15 310.38L185.74 310.26L185.31 310.19L184.87 310.17L181.16 310.17L180.72 310.19ZM24.66 273.54L24.23 273.61L23.81 273.73L23.42 273.89L23.04 274.08L22.69 274.31L22.36 274.58L22.06 274.87L21.8 275.2L21.57 275.55L21.37 275.93L21.21 276.33L21.1 276.75L21.03 277.18L21 277.63L21 299.74L21.03 300.19L21.1 300.62L21.21 301.04L21.37 301.43L21.57 301.81L21.8 302.16L22.06 302.49L22.36 302.79L22.69 303.05L23.04 303.28L23.42 303.48L23.81 303.64L24.23 303.75L24.66 303.82L25.11 303.84L28.32 303.84L28.76 303.82L29.2 303.75L29.61 303.64L30.01 303.48L30.39 303.28L30.74 303.05L31.07 302.79L31.36 302.49L31.63 302.16L31.86 301.81L32.06 301.43L32.21 301.04L32.33 300.62L32.4 300.19L32.42 299.74L32.42 277.63L32.4 277.18L32.33 276.75L32.21 276.33L32.06 275.93L31.86 275.55L31.63 275.2L31.36 274.87L31.07 274.58L30.74 274.31L30.39 274.08L30.01 273.89L29.61 273.73L29.2 273.61L28.76 273.54L28.32 273.52L25.11 273.52L24.66 273.54ZM335.27 266.53L334.83 266.61L334.4 266.72L334 266.88L333.61 267.08L333.25 267.32L332.92 267.59L332.61 267.89L332.34 268.23L332.1 268.59L331.91 268.97L331.75 269.38L331.63 269.81L331.56 270.25L331.53 270.71L331.53 293.32L331.56 293.78L331.63 294.23L331.75 294.65L331.91 295.06L332.1 295.44L332.34 295.8L332.61 296.14L332.92 296.44L333.25 296.71L333.61 296.95L334 297.15L334.4 297.31L334.83 297.43L335.27 297.5L335.73 297.52L339.15 297.52L339.6 297.5L340.05 297.43L340.47 297.31L340.88 297.15L341.27 296.95L341.63 296.71L341.96 296.44L342.26 296.14L342.54 295.8L342.77 295.44L342.97 295.06L343.13 294.65L343.25 294.23L343.32 293.78L343.35 293.32L343.35 270.71L343.32 270.25L343.25 269.81L343.13 269.38L342.97 268.97L342.77 268.59L342.54 268.23L342.26 267.89L341.96 267.59L341.63 267.32L341.27 267.08L340.88 266.88L340.47 266.72L340.05 266.61L339.6 266.53L339.15 266.51L335.73 266.51L335.27 266.53ZM180.72 264.72L180.29 264.79L179.88 264.9L179.49 265.06L179.12 265.25L178.77 265.48L178.45 265.74L178.15 266.03L177.89 266.35L177.66 266.7L177.47 267.07L177.32 267.47L177.2 267.88L177.13 268.31L177.11 268.75L177.11 290.58L177.13 291.02L177.2 291.45L177.32 291.86L177.47 292.26L177.66 292.63L177.89 292.98L178.15 293.3L178.45 293.59L178.77 293.85L179.12 294.08L179.49 294.28L179.88 294.43L180.29 294.54L180.72 294.61L181.16 294.64L184.87 294.64L185.31 294.61L185.74 294.54L186.15 294.43L186.54 294.28L186.92 294.08L187.26 293.85L187.59 293.59L187.88 293.3L188.14 292.98L188.37 292.63L188.56 292.26L188.72 291.86L188.83 291.45L188.9 291.02L188.92 290.58L188.92 268.75L188.9 268.31L188.83 267.88L188.72 267.47L188.56 267.07L188.37 266.7L188.14 266.35L187.88 266.03L187.59 265.74L187.26 265.48L186.92 265.25L186.54 265.06L186.15 264.9L185.74 264.79L185.31 264.72L184.87 264.69L181.16 264.69L180.72 264.72ZM24.66 229.26L24.23 229.33L23.81 229.44L23.42 229.6L23.04 229.79L22.69 230.03L22.36 230.29L22.06 230.59L21.8 230.91L21.57 231.27L21.37 231.64L21.21 232.04L21.1 232.46L21.03 232.89L21 233.34L21 255.45L21.03 255.9L21.1 256.33L21.21 256.75L21.37 257.15L21.57 257.52L21.8 257.88L22.06 258.2L22.36 258.5L22.69 258.77L23.04 259L23.42 259.19L23.81 259.35L24.23 259.46L24.66 259.53L25.11 259.56L28.32 259.56L28.76 259.53L29.2 259.46L29.61 259.35L30.01 259.19L30.39 259L30.74 258.77L31.07 258.5L31.36 258.2L31.63 257.88L31.86 257.52L32.06 257.15L32.21 256.75L32.33 256.33L32.4 255.9L32.42 255.45L32.42 233.34L32.4 232.89L32.33 232.46L32.21 232.04L32.06 231.64L31.86 231.27L31.63 230.91L31.36 230.59L31.07 230.29L30.74 230.03L30.39 229.79L30.01 229.6L29.61 229.44L29.2 229.33L28.76 229.26L28.32 229.23L25.11 229.23L24.66 229.26ZM335.27 221.24L334.83 221.31L334.4 221.43L334 221.59L333.61 221.79L333.25 222.02L332.92 222.3L332.61 222.6L332.34 222.93L332.1 223.29L331.91 223.68L331.75 224.09L331.63 224.51L331.56 224.96L331.53 225.41L331.53 248.03L331.56 248.49L331.63 248.93L331.75 249.36L331.91 249.76L332.1 250.15L332.34 250.51L332.61 250.84L332.92 251.15L333.25 251.42L333.61 251.66L334 251.86L334.4 252.01L334.83 252.13L335.27 252.2L335.73 252.23L339.15 252.23L339.6 252.2L340.05 252.13L340.47 252.01L340.88 251.86L341.27 251.66L341.63 251.42L341.96 251.15L342.26 250.84L342.54 250.51L342.77 250.15L342.97 249.76L343.13 249.36L343.25 248.93L343.32 248.49L343.35 248.03L343.35 225.41L343.32 224.96L343.25 224.51L343.13 224.09L342.97 223.68L342.77 223.29L342.54 222.93L342.26 222.6L341.96 222.3L341.63 222.02L341.27 221.79L340.88 221.59L340.47 221.43L340.05 221.31L339.6 221.24L339.15 221.21L335.73 221.21L335.27 221.24ZM180.72 220.99L180.29 221.06L179.88 221.17L179.49 221.33L179.12 221.52L178.77 221.75L178.45 222.01L178.15 222.3L177.89 222.63L177.66 222.97L177.47 223.35L177.32 223.74L177.2 224.15L177.13 224.58L177.11 225.02L177.11 246.85L177.13 247.3L177.2 247.72L177.32 248.14L177.47 248.53L177.66 248.9L177.89 249.25L178.15 249.57L178.45 249.86L178.77 250.13L179.12 250.36L179.49 250.55L179.88 250.7L180.29 250.82L180.72 250.89L181.16 250.91L184.87 250.91L185.31 250.89L185.74 250.82L186.15 250.7L186.54 250.55L186.92 250.36L187.26 250.13L187.59 249.86L187.88 249.57L188.14 249.25L188.37 248.9L188.56 248.53L188.72 248.14L188.83 247.72L188.9 247.3L188.92 246.85L188.92 225.02L188.9 224.58L188.83 224.15L188.72 223.74L188.56 223.35L188.37 222.97L188.14 222.63L187.88 222.3L187.59 222.01L187.26 221.75L186.92 221.52L186.54 221.33L186.15 221.17L185.74 221.06L185.31 220.99L184.87 220.97L181.16 220.97L180.72 220.99ZM24.66 183.77L24.23 183.84L23.81 183.96L23.42 184.11L23.04 184.31L22.69 184.54L22.36 184.8L22.06 185.1L21.8 185.43L21.57 185.78L21.37 186.16L21.21 186.55L21.1 186.97L21.03 187.41L21 187.85L21 209.96L21.03 210.41L21.1 210.85L21.21 211.26L21.37 211.66L21.57 212.04L21.8 212.39L22.06 212.72L22.36 213.01L22.69 213.28L23.04 213.51L23.42 213.71L23.81 213.86L24.23 213.98L24.66 214.05L25.11 214.07L28.32 214.07L28.76 214.05L29.2 213.98L29.61 213.86L30.01 213.71L30.39 213.51L30.74 213.28L31.07 213.01L31.36 212.72L31.63 212.39L31.86 212.04L32.06 211.66L32.21 211.26L32.33 210.85L32.4 210.41L32.42 209.96L32.42 187.85L32.4 187.41L32.33 186.97L32.21 186.55L32.06 186.16L31.86 185.78L31.63 185.43L31.36 185.1L31.07 184.8L30.74 184.54L30.39 184.31L30.01 184.11L29.61 183.96L29.2 183.84L28.76 183.77L28.32 183.75L25.11 183.75L24.66 183.77ZM180.72 176.08L180.29 176.15L179.88 176.26L179.49 176.41L179.12 176.61L178.77 176.84L178.45 177.1L178.15 177.39L177.89 177.71L177.66 178.06L177.47 178.43L177.32 178.83L177.2 179.24L177.13 179.67L177.11 180.11L177.11 201.94L177.13 202.38L177.2 202.81L177.32 203.22L177.47 203.62L177.66 203.99L177.89 204.34L178.15 204.66L178.45 204.95L178.77 205.21L179.12 205.44L179.49 205.63L179.88 205.79L180.29 205.9L180.72 205.97L181.16 206L184.87 206L185.31 205.97L185.74 205.9L186.15 205.79L186.54 205.63L186.92 205.44L187.26 205.21L187.59 204.95L187.88 204.66L188.14 204.34L188.37 203.99L188.56 203.62L188.72 203.22L188.83 202.81L188.9 202.38L188.92 201.94L188.92 180.11L188.9 179.67L188.83 179.24L188.72 178.83L188.56 178.43L188.37 178.06L188.14 177.71L187.88 177.39L187.59 177.1L187.26 176.84L186.92 176.61L186.54 176.41L186.15 176.26L185.74 176.15L185.31 176.08L184.87 176.05L181.16 176.05L180.72 176.08ZM335.27 174.72L334.83 174.79L334.4 174.91L334 175.07L333.61 175.26L333.25 175.5L332.92 175.77L332.61 176.08L332.34 176.41L332.1 176.77L331.91 177.16L331.75 177.56L331.63 177.99L331.56 178.43L331.53 178.89L331.53 201.51L331.56 201.96L331.63 202.41L331.75 202.83L331.91 203.24L332.1 203.63L332.34 203.99L332.61 204.32L332.92 204.62L333.25 204.9L333.61 205.13L334 205.33L334.4 205.49L334.83 205.61L335.27 205.68L335.73 205.71L339.15 205.71L339.6 205.68L340.05 205.61L340.47 205.49L340.88 205.33L341.27 205.13L341.63 204.9L341.96 204.62L342.26 204.32L342.54 203.99L342.77 203.63L342.97 203.24L343.13 202.83L343.25 202.41L343.32 201.96L343.35 201.51L343.35 178.89L343.32 178.43L343.25 177.99L343.13 177.56L342.97 177.16L342.77 176.77L342.54 176.41L342.26 176.08L341.96 175.77L341.63 175.5L341.27 175.26L340.88 175.07L340.47 174.91L340.05 174.79L339.6 174.72L339.15 174.69L335.73 174.69L335.27 174.72ZM522.63 189.39L522.47 189.46L522.34 189.56L522.24 189.69L522.18 189.84L522.15 190.02L522.15 193.5L522.18 193.67L522.24 193.82L522.34 193.96L522.47 194.06L522.63 194.12L522.8 194.15L533.32 194.15L533.49 194.12L533.65 194.06L533.78 193.96L533.88 193.82L533.94 193.67L533.97 193.5L533.97 190.02L533.94 189.84L533.88 189.69L533.78 189.56L533.65 189.46L533.49 189.39L533.32 189.37L522.8 189.37L522.63 189.39ZM522.63 183.11L522.47 183.18L522.34 183.28L522.24 183.41L522.18 183.57L522.15 183.74L522.15 187.22L522.18 187.39L522.24 187.55L522.34 187.68L522.47 187.78L522.63 187.84L522.8 187.87L533.32 187.87L533.49 187.84L533.65 187.78L533.78 187.68L533.88 187.55L533.94 187.39L533.97 187.22L533.97 183.74L533.94 183.57L533.88 183.41L533.78 183.28L533.65 183.18L533.49 183.11L533.32 183.09L522.8 183.09L522.63 183.11ZM522.63 176.14L522.47 176.2L522.34 176.3L522.24 176.44L522.18 176.59L522.15 176.76L522.15 180.24L522.18 180.42L522.24 180.57L522.34 180.7L522.47 180.8L522.63 180.87L522.8 180.89L533.32 180.89L533.49 180.87L533.65 180.8L533.78 180.7L533.88 180.57L533.94 180.42L533.97 180.24L533.97 176.76L533.94 176.59L533.88 176.44L533.78 176.3L533.65 176.2L533.49 176.14L533.32 176.11L522.8 176.11L522.63 176.14ZM522.63 168.97L522.47 169.04L522.34 169.14L522.24 169.27L522.18 169.43L522.15 169.6L522.15 173.08L522.18 173.25L522.24 173.41L522.34 173.54L522.47 173.64L522.63 173.7L522.8 173.73L533.32 173.73L533.49 173.7L533.65 173.64L533.78 173.54L533.88 173.41L533.94 173.25L533.97 173.08L533.97 169.6L533.94 169.43L533.88 169.27L533.78 169.14L533.65 169.04L533.49 168.97L533.32 168.95L522.8 168.95L522.63 168.97ZM24.66 139.48L24.23 139.55L23.81 139.67L23.42 139.83L23.04 140.02L22.69 140.25L22.36 140.52L22.06 140.81L21.8 141.14L21.57 141.49L21.37 141.87L21.21 142.27L21.1 142.69L21.03 143.12L21 143.57L21 165.68L21.03 166.13L21.1 166.56L21.21 166.98L21.37 167.37L21.57 167.75L21.8 168.1L22.06 168.43L22.36 168.73L22.69 168.99L23.04 169.22L23.42 169.42L23.81 169.57L24.23 169.69L24.66 169.76L25.11 169.78L28.32 169.78L28.76 169.76L29.2 169.69L29.61 169.57L30.01 169.42L30.39 169.22L30.74 168.99L31.07 168.73L31.36 168.43L31.63 168.1L31.86 167.75L32.06 167.37L32.21 166.98L32.33 166.56L32.4 166.13L32.42 165.68L32.42 143.57L32.4 143.12L32.33 142.69L32.21 142.27L32.06 141.87L31.86 141.49L31.63 141.14L31.36 140.81L31.07 140.52L30.74 140.25L30.39 140.02L30.01 139.83L29.61 139.67L29.2 139.55L28.76 139.48L28.32 139.46L25.11 139.46L24.66 139.48ZM522.63 162L522.47 162.06L522.34 162.16L522.24 162.3L522.18 162.45L522.15 162.62L522.15 166.1L522.18 166.28L522.24 166.43L522.34 166.56L522.47 166.66L522.63 166.73L522.8 166.75L533.32 166.75L533.49 166.73L533.65 166.66L533.78 166.56L533.88 166.43L533.94 166.28L533.97 166.1L533.97 162.62L533.94 162.45L533.88 162.3L533.78 162.16L533.65 162.06L533.49 162L533.32 161.97L522.8 161.97L522.63 162ZM180.72 132.35L180.29 132.42L179.88 132.53L179.49 132.69L179.12 132.88L178.77 133.11L178.45 133.37L178.15 133.66L177.89 133.99L177.66 134.33L177.47 134.71L177.32 135.1L177.2 135.51L177.13 135.94L177.11 136.38L177.11 158.21L177.13 158.66L177.2 159.08L177.32 159.49L177.47 159.89L177.66 160.26L177.89 160.61L178.15 160.93L178.45 161.22L178.77 161.49L179.12 161.71L179.49 161.91L179.88 162.06L180.29 162.17L180.72 162.24L181.16 162.27L184.87 162.27L185.31 162.24L185.74 162.17L186.15 162.06L186.54 161.91L186.92 161.71L187.26 161.49L187.59 161.22L187.88 160.93L188.14 160.61L188.37 160.26L188.56 159.89L188.72 159.49L188.83 159.08L188.9 158.66L188.92 158.21L188.92 136.38L188.9 135.94L188.83 135.51L188.72 135.1L188.56 134.71L188.37 134.33L188.14 133.99L187.88 133.66L187.59 133.37L187.26 133.11L186.92 132.88L186.54 132.69L186.15 132.53L185.74 132.42L185.31 132.35L184.87 132.33L181.16 132.33L180.72 132.35ZM335.27 129.42L334.83 129.49L334.4 129.61L334 129.77L333.61 129.97L333.25 130.21L332.92 130.48L332.61 130.78L332.34 131.12L332.1 131.48L331.91 131.86L331.75 132.27L331.63 132.7L331.56 133.14L331.53 133.6L331.53 156.21L331.56 156.67L331.63 157.11L331.75 157.54L331.91 157.95L332.1 158.33L332.34 158.69L332.61 159.03L332.92 159.33L333.25 159.6L333.61 159.84L334 160.04L334.4 160.2L334.83 160.31L335.27 160.39L335.73 160.41L339.15 160.41L339.6 160.39L340.05 160.31L340.47 160.2L340.88 160.04L341.27 159.84L341.63 159.6L341.96 159.33L342.26 159.03L342.54 158.69L342.77 158.33L342.97 157.95L343.13 157.54L343.25 157.11L343.32 156.67L343.35 156.21L343.35 133.6L343.32 133.14L343.25 132.7L343.13 132.27L342.97 131.86L342.77 131.48L342.54 131.12L342.26 130.78L341.96 130.48L341.63 130.21L341.27 129.97L340.88 129.77L340.47 129.61L340.05 129.49L339.6 129.42L339.15 129.4L335.73 129.4L335.27 129.42ZM522.63 154.74L522.47 154.81L522.34 154.91L522.24 155.04L522.18 155.2L522.15 155.37L522.15 158.85L522.18 159.02L522.24 159.18L522.34 159.31L522.47 159.41L522.63 159.47L522.8 159.5L533.32 159.5L533.49 159.47L533.65 159.41L533.78 159.31L533.88 159.18L533.94 159.02L533.97 158.85L533.97 155.37L533.94 155.2L533.88 155.04L533.78 154.91L533.65 154.81L533.49 154.74L533.32 154.72L522.8 154.72L522.63 154.74ZM522.63 147.77L522.47 147.83L522.34 147.94L522.24 148.07L522.18 148.22L522.15 148.39L522.15 151.88L522.18 152.05L522.24 152.2L522.34 152.33L522.47 152.43L522.63 152.5L522.8 152.52L533.32 152.52L533.49 152.5L533.65 152.43L533.78 152.33L533.88 152.2L533.94 152.05L533.97 151.88L533.97 148.39L533.94 148.22L533.88 148.07L533.78 147.94L533.65 147.83L533.49 147.77L533.32 147.75L522.8 147.75L522.63 147.77ZM522.63 140.6L522.47 140.67L522.34 140.77L522.24 140.9L522.18 141.06L522.15 141.23L522.15 144.71L522.18 144.88L522.24 145.04L522.34 145.17L522.47 145.27L522.63 145.33L522.8 145.36L533.32 145.36L533.49 145.33L533.65 145.27L533.78 145.17L533.88 145.04L533.94 144.88L533.97 144.71L533.97 141.23L533.94 141.06L533.88 140.9L533.78 140.77L533.65 140.67L533.49 140.6L533.32 140.58L522.8 140.58L522.63 140.6ZM522.63 133.63L522.47 133.69L522.34 133.8L522.24 133.93L522.18 134.08L522.15 134.25L522.15 137.74L522.18 137.91L522.24 138.06L522.34 138.19L522.47 138.29L522.63 138.36L522.8 138.38L533.32 138.38L533.49 138.36L533.65 138.29L533.78 138.19L533.88 138.06L533.94 137.91L533.97 137.74L533.97 134.25L533.94 134.08L533.88 133.93L533.78 133.8L533.65 133.69L533.49 133.63L533.32 133.61L522.8 133.61L522.63 133.63Z" id="c2STscYYJP"></path></defs><g><g><g><use xlink:href="#c2STscYYJP" opacity="1" fill="#302980" fill-opacity="1"></use><g><use xlink:href="#c2STscYYJP" opacity="1" fill-opacity="0" stroke="#000000" stroke-width="1" stroke-opacity="1"></use></g></g></g></g></svg>