<?xml version="1.0" encoding="UTF-8" standalone="no"?>
<!DOCTYPE svg PUBLIC "-//W3C//DTD SVG 1.1//EN" "http://www.w3.org/Graphics/SVG/1.1/DTD/svg11.dtd">
<svg version="1.1" xmlns="http://www.w3.org/2000/svg" xmlns:xlink="http://www.w3.org/1999/xlink" preserveAspectRatio="xMidYMid meet" viewBox="0 0 640 640" width="50" height="50"><defs><path d="M319.47 36.3L330.32 37.4L341.04 38.93L351.63 40.88L362.06 43.24L372.34 45.99L382.45 49.14L392.39 52.67L402.15 56.58L411.71 60.85L421.08 65.47L430.23 70.45L439.17 75.76L447.88 81.41L456.35 87.38L464.58 93.66L472.56 100.24L480.28 107.13L487.72 114.29L494.89 121.74L501.77 129.46L508.36 137.44L514.64 145.67L520.61 154.14L526.25 162.85L531.57 171.79L536.54 180.94L541.17 190.31L545.44 199.87L549.35 209.63L552.88 219.56L556.03 229.68L558.78 239.96L561.14 250.39L563.09 260.97L564.62 271.7L565.72 282.55L566.39 293.53L566.61 304.62L566.39 315.71L565.72 326.68L564.62 337.54L563.09 348.26L561.14 358.84L558.78 369.28L556.03 379.56L552.88 389.67L549.35 399.61L545.44 409.36L541.17 418.93L536.54 428.29L531.57 437.45L526.25 446.38L520.61 455.09L514.64 463.57L508.36 471.8L501.77 479.78L494.89 487.49L487.72 494.94L480.28 502.11L472.56 508.99L464.58 515.58L456.35 521.86L447.88 527.82L439.17 533.47L430.23 538.79L421.08 543.76L411.71 548.39L402.15 552.66L392.39 556.56L382.45 560.09L372.34 563.24L362.06 566L351.63 568.35L341.04 570.3L330.32 571.83L319.47 572.93L308.49 573.6L297.4 573.83L286.31 573.6L275.34 572.93L264.48 571.83L253.76 570.3L243.17 568.35L232.74 566L222.46 563.24L212.35 560.09L202.41 556.56L192.65 552.66L183.09 548.39L173.73 543.76L164.57 538.79L155.64 533.47L146.93 527.82L138.45 521.86L130.22 515.58L122.24 508.99L114.53 502.11L107.08 494.94L99.91 487.49L93.03 479.78L86.44 471.8L80.16 463.57L74.19 455.09L68.55 446.38L63.23 437.45L58.26 428.29L53.63 418.93L49.36 409.36L45.46 399.61L41.92 389.67L38.78 379.56L36.02 369.28L33.66 358.84L31.72 348.26L30.19 337.54L29.08 326.68L28.42 315.71L28.19 304.62L28.42 293.53L29.08 282.55L30.19 271.7L31.72 260.97L33.66 250.39L36.02 239.96L38.78 229.68L41.92 219.56L45.46 209.63L49.36 199.87L53.63 190.31L58.26 180.94L63.23 171.79L68.55 162.85L74.19 154.14L80.16 145.67L86.44 137.44L93.03 129.46L99.91 121.74L107.08 114.29L114.53 107.13L122.24 100.24L130.22 93.66L138.45 87.38L146.93 81.41L155.64 75.76L164.57 70.45L173.73 65.47L183.09 60.85L192.65 56.58L202.41 52.67L212.35 49.14L222.46 45.99L232.74 43.24L243.17 40.88L253.76 38.93L264.48 37.4L275.34 36.3L286.31 35.63L297.4 35.41L308.49 35.63L319.47 36.3Z" id="bnGvhNZWi"></path><path d="M288.76 569.53L289.88 305.58L289.88 305.58L517.87 438.58L288.76 569.53ZM60.16 305.58L288.76 305.58L60.16 437.53L60.16 305.58ZM405 104.19L521.24 171L289.26 305.58L288.76 37.39L405 104.19L405 104.19ZM60.16 305.58L60.16 173.64L288.76 305.58L60.16 305.58Z" id="bRKuuL5x"></path><path d="M337.03 126.36L338.91 126.37L340.82 126.39L342.75 126.42L344.71 126.45L346.69 126.48L348.69 126.53L350.71 126.57L352.74 126.62L354.79 126.68L356.85 126.74L358.92 126.81L361 126.88L363.09 126.96L365.19 127.04L367.28 127.13L369.38 127.22L371.48 127.32L373.58 127.42L375.68 127.53L377.76 127.64L379.85 127.75L381.92 127.87L383.98 128L386.03 128.13L388.06 128.26L393.47 128.64L398.68 129.03L403.72 129.43L408.57 129.84L413.25 130.26L417.76 130.7L422.09 131.13L426.25 131.58L430.25 132.03L434.08 132.48L437.76 132.94L441.27 133.41L444.64 133.87L447.84 134.34L450.9 134.8L453.82 135.27L456.58 135.73L459.21 136.19L461.7 136.65L464.06 137.11L466.28 137.56L468.37 138L470.33 138.43L472.17 138.86L473.89 139.28L475.49 139.69L476.97 140.09L478.34 140.47L479.6 140.84L480.75 141.2L481.79 141.55L482.74 141.88L483.58 142.19L484.33 142.49L484.98 142.76L485.54 143.02L486.02 143.26L486.4 143.48L486.71 143.67L486.93 143.84L486.74 143.85L486.11 143.82L485.08 143.76L483.67 143.67L483.17 143.64L484.13 143.83L485.36 144.12L486.28 144.39L486.85 144.62L487.08 144.83L487.19 145.39L487.29 145.98L487.39 146.61L487.48 147.28L487.57 147.98L487.66 148.71L487.74 149.49L487.82 150.29L487.89 151.14L487.96 152.02L488.02 152.93L488.08 153.88L488.13 154.87L488.18 155.89L488.22 156.95L488.26 158.04L488.3 159.17L488.33 160.34L488.35 161.54L488.37 162.77L488.39 164.05L488.4 165.35L488.41 166.7L488.41 168.08L488.41 169.49L488.41 170.94L488.39 172.43L488.38 173.95L488.36 175.51L488.33 177.11L488.3 178.74L488.27 180.4L488.23 182.1L488.19 183.84L488.14 185.61L488.09 187.42L488.03 189.27L487.97 191.15L487.9 193.06L487.83 195.01L487.83 195.02L487.83 195.03L487.83 195.04L487.83 195.05L487.83 195.06L487.82 195.07L487.82 195.08L487.82 195.09L487.81 195.1L487.81 195.11L487.81 195.12L487.8 195.13L487.8 195.13L487.79 195.14L487.79 195.15L487.78 195.16L487.78 195.16L487.77 195.17L487.76 195.18L487.76 195.18L487.75 195.19L487.74 195.2L487.74 195.2L487.73 195.21L487.72 195.21L487.71 195.22L487.7 195.22L487.7 195.23L487.69 195.23L487.68 195.24L487.67 195.24L487.66 195.24L487.65 195.25L487.64 195.25L487.63 195.25L487.62 195.25L487.61 195.25L487.6 195.25L487.59 195.25L487.58 195.25L418.01 195.25L418 195.25L417.99 195.25L417.98 195.25L417.97 195.25L417.96 195.25L417.95 195.25L417.94 195.25L417.93 195.24L417.92 195.24L417.91 195.24L417.9 195.23L417.9 195.23L417.89 195.22L417.88 195.22L417.87 195.21L417.86 195.21L417.86 195.2L417.85 195.2L417.84 195.19L417.84 195.18L417.83 195.18L417.82 195.17L417.82 195.16L417.81 195.16L417.81 195.15L417.8 195.14L417.79 195.13L417.79 195.13L417.79 195.12L417.78 195.11L417.78 195.1L417.77 195.09L417.77 195.08L417.77 195.07L417.77 195.06L417.76 195.05L417.76 195.04L417.76 195.03L417.76 195.02L417.76 195.01L417.69 192.67L417.61 190.39L417.53 188.16L417.45 185.99L417.36 183.87L417.27 181.81L417.18 179.8L417.08 177.85L416.99 175.96L416.88 174.12L416.78 172.34L416.67 170.61L416.56 168.94L416.45 167.32L416.33 165.76L416.21 164.25L416.08 162.8L415.95 161.41L415.82 160.07L415.69 158.79L415.55 157.56L415.41 156.39L415.27 155.28L415.12 154.22L414.98 153.21L414.82 152.27L414.67 151.37L414.51 150.54L414.35 149.75L414.18 149.03L414.01 148.36L413.84 147.74L413.66 147.19L413.49 146.68L413.31 146.24L413.12 145.84L412.93 145.51L412.74 145.23L412.55 145L412.35 144.83L412.09 144.69L411.69 144.53L411.16 144.35L410.5 144.17L409.7 143.98L408.78 143.77L407.72 143.55L406.53 143.32L405.21 143.07L403.75 142.82L402.17 142.55L400.45 142.27L398.6 141.98L396.62 141.67L394.51 141.36L392.26 141.03L389.88 140.69L387.37 140.34L384.73 139.98L381.96 139.6L379.05 139.21L376.01 138.81L372.84 138.4L369.54 137.98L367.84 137.76L368.1 140.81L368.36 144.86L368.59 149.81L368.8 155.59L368.99 162.16L369.17 169.47L369.33 177.46L369.47 186.08L369.6 195.27L369.71 204.98L369.81 215.17L369.9 225.77L369.98 236.74L370.04 248.02L370.09 259.55L370.13 271.29L370.16 283.19L370.18 295.18L370.2 307.22L370.2 319.26L370.2 331.23L370.2 343.1L370.18 354.8L370.17 366.28L370.15 377.49L370.12 388.37L370.1 398.88L370.07 408.97L370.04 418.56L370.01 427.63L369.97 436.1L369.94 443.94L369.92 451.08L369.89 457.47L369.87 463.07L369.85 467.81L369.83 471.64L369.82 474.52L369.82 476.39L369.82 477.19L369.84 477.45L369.87 477.7L369.91 477.95L369.97 478.2L369.98 478.22L419.83 471L419.83 376.78L391.26 376.78L391.19 376.77L391.13 376.77L391.06 376.76L391 376.76L390.97 376.75L389.79 376.78L389.78 376.78L389.77 376.77L389.76 376.77L389.76 376.77L389.75 376.77L389.74 376.77L389.74 376.76L389.73 376.76L389.73 376.76L389.72 376.75L389.72 376.75L389.71 376.74L389.71 376.74L389.71 376.73L389.7 376.73L389.7 376.72L389.7 376.72L389.69 376.71L389.69 376.71L389.69 376.7L389.69 376.69L389.69 376.69L389.69 376.68L389.69 376.67L389.69 376.67L389.69 376.66L389.69 376.65L389.69 376.65L389.69 376.64L389.7 376.64L389.7 376.63L389.7 376.62L389.71 376.62L389.71 376.61L389.72 376.61L389.72 376.6L389.73 376.6L389.73 376.6L389.74 376.59L389.75 376.59L390.2 376.4L390.15 376.36L390.11 376.32L390.06 376.28L390.02 376.23L389.98 376.19L389.94 376.14L389.9 376.09L389.86 376.04L389.83 375.99L389.8 375.93L389.76 375.88L389.74 375.82L389.71 375.77L389.69 375.71L389.66 375.65L389.64 375.59L389.62 375.53L389.61 375.46L389.6 375.4L389.58 375.34L389.58 375.27L389.57 375.2L385.68 321.48L388.96 321.49L392.17 321.5L395.29 321.51L398.34 321.52L401.31 321.53L404.21 321.54L407.03 321.55L409.77 321.56L412.44 321.58L415.02 321.59L417.54 321.6L419.97 321.62L422.33 321.63L424.61 321.65L426.81 321.66L428.94 321.68L430.99 321.7L432.96 321.72L434.86 321.74L436.68 321.76L438.42 321.78L440.08 321.8L441.67 321.82L443.18 321.84L444.62 321.86L445.97 321.89L447.25 321.91L448.46 321.93L449.59 321.96L450.64 321.98L451.61 322.01L452.5 322.04L453.32 322.07L454.07 322.09L454.73 322.12L455.32 322.15L455.83 322.18L456.27 322.21L456.62 322.24L456.91 322.28L457.14 322.34L457.36 322.47L457.58 322.66L457.78 322.92L457.98 323.24L458.17 323.63L458.35 324.08L458.53 324.59L458.69 325.17L458.85 325.82L459 326.53L459.14 327.3L459.28 328.14L459.4 329.04L459.52 330.01L459.63 331.05L459.73 332.14L459.82 333.3L459.91 334.53L459.98 335.82L460.05 337.18L460.11 338.6L460.16 340.08L460.21 341.63L460.24 343.24L460.27 344.92L460.29 346.67L460.3 348.47L460.3 350.35L460.3 352.28L460.3 352.35L460.96 352.36L463.09 352.4L465.14 352.44L467.11 352.48L467.22 352.48L468.08 352.43L469.68 352.36L471.22 352.29L472.71 352.24L474.13 352.2L475.5 352.17L476.8 352.15L478.05 352.15L479.24 352.15L480.36 352.17L481.43 352.2L482.44 352.24L483.38 352.29L484.27 352.36L485.1 352.43L485.87 352.52L486.58 352.62L487.23 352.74L487.82 352.86L488.35 352.99L488.82 353.14L489.23 353.3L489.55 353.46L489.98 353.51L490.42 353.58L490.78 353.65L491.06 353.72L491.29 353.86L491.52 354.15L491.73 354.57L491.94 355.14L492.14 355.85L492.33 356.7L492.52 357.69L492.69 358.83L492.86 360.1L493.02 361.52L493.17 363.09L493.31 364.79L493.45 366.63L493.58 368.62L493.69 370.75L493.8 373.02L493.91 375.44L494 377.99L494.08 380.69L494.16 383.53L494.23 386.51L494.29 389.63L494.34 392.9L494.39 396.31L494.42 399.86L494.45 403.55L494.47 407.38L494.48 411.36L494.48 415.47L494.48 419.73L494.46 424.13L494.44 428.68L494.41 433.36L494.37 438.19L494.33 443.16L494.27 448.27L494.21 453.53L494.14 458.92L494.06 464.46L493.97 470.14L493.88 470.26L493.63 470.4L493.22 470.56L492.64 470.73L491.9 470.92L490.99 471.12L489.92 471.34L488.68 471.57L487.28 471.82L485.71 472.09L483.98 472.37L482.09 472.66L480.02 472.97L477.8 473.3L475.41 473.64L472.85 474L470.13 474.37L467.25 474.76L464.2 475.17L460.99 475.59L457.61 476.02L454.06 476.47L450.36 476.94L446.48 477.42L442.45 477.92L438.24 478.44L433.88 478.96L429.34 479.51L424.65 480.07L419.79 480.64L414.76 481.24L409.57 481.84L404.21 482.47L398.69 483.1L393.01 483.76L387.16 484.43L381.15 485.11L374.97 485.81L372.22 486.12L371.99 486.18L371.66 486.25L371.32 486.32L370.96 486.38L370.58 486.45L370.19 486.51L369.79 486.57L369.38 486.63L368.95 486.69L368.52 486.74L368.08 486.8L367.63 486.85L367.17 486.89L366.71 486.94L366.25 486.98L365.78 487.02L365.31 487.06L364.84 487.09L364.38 487.13L363.91 487.16L363.45 487.18L363 487.21L362.55 487.23L362.24 487.24L362.11 487.26L361.32 487.3L307.36 487.3L307.36 487.3L307.35 487.3L307.35 487.3L307.35 487.29L307.35 487.29L307.35 487.29L307.35 487.28L307.36 487.28L307.36 487.28L308.15 487.17L307.76 487.1L307.36 487.01L306.97 486.91L306.58 486.79L306.2 486.66L305.83 486.52L305.47 486.36L305.11 486.18L304.76 486L304.41 485.8L304.08 485.59L303.75 485.37L303.44 485.13L303.13 484.89L302.83 484.63L302.54 484.36L302.26 484.09L302 483.8L301.74 483.5L301.5 483.19L301.26 482.87L301.04 482.55L300.83 482.21L300.63 481.87L300.45 481.52L300.27 481.16L300.12 480.79L299.97 480.41L299.84 480.03L299.72 479.65L299.62 479.25L299.53 478.85L299.46 478.45L299.41 478.04L299.37 477.62L299.34 477.2L298.73 460.21L298.15 443.65L297.6 427.51L297.07 411.8L296.57 396.52L296.11 381.66L295.67 367.22L295.25 353.21L294.87 339.63L294.51 326.47L294.19 313.74L293.89 301.43L293.62 289.55L293.37 278.09L293.16 267.06L292.97 256.46L292.82 246.28L292.69 236.52L292.59 227.19L292.51 218.29L292.47 209.81L292.45 201.76L292.47 194.13L292.51 186.93L292.58 180.16L292.68 173.8L292.8 167.88L292.95 162.38L293.14 157.31L293.35 152.66L293.59 148.43L293.85 144.63L294.15 141.26L294.47 138.32L294.83 135.79L295.21 133.7L295.62 132.03L296.05 130.78L296.52 129.96L297.01 129.57L297.19 129.51L297.39 129.45L297.61 129.38L297.87 129.31L298.15 129.24L298.45 129.17L298.78 129.09L299.12 129.02L299.49 128.94L299.88 128.85L300.28 128.77L300.69 128.69L301.13 128.6L301.57 128.52L302.03 128.43L302.49 128.34L302.97 128.26L303.45 128.17L303.94 128.08L304.44 128L304.94 127.91L305.44 127.83L305.94 127.75L306.44 127.67L306.94 127.59L307.44 127.51L307.93 127.44L308.42 127.37L308.9 127.3L309.37 127.24L309.84 127.17L310.29 127.12L310.73 127.06L311.16 127.01L311.57 126.97L311.96 126.92L312.34 126.89L312.7 126.86L313.04 126.83L313.35 126.81L314.6 126.74L315.91 126.67L317.27 126.61L318.68 126.56L320.14 126.51L321.64 126.47L323.2 126.44L324.79 126.41L326.43 126.38L328.11 126.37L329.82 126.35L331.57 126.35L333.36 126.34L335.18 126.35L337.03 126.36ZM210.34 122L214.52 122.09L218.62 122.23L222.64 122.4L226.55 122.62L230.35 122.88L234.02 123.17L237.54 123.51L240.9 123.89L244.09 124.31L247.1 124.77L249.9 125.27L252.5 125.81L254.86 126.4L256.34 126.8L257.77 127.19L259.16 127.56L260.5 127.93L261.79 128.29L263.05 128.64L264.25 128.98L265.42 129.3L266.53 129.62L267.61 129.93L268.64 130.22L269.62 130.51L270.56 130.79L271.45 131.05L271.63 131.11L272.6 131.24L273.65 131.4L274.63 131.57L275.52 131.74L276.34 131.91L277.08 132.09L277.75 132.27L278.34 132.45L278.85 132.64L279.28 132.83L279.64 133.03L279.92 133.23L280.15 133.63L280.38 134.43L280.59 135.64L280.8 137.26L281 139.28L281.19 141.7L281.37 144.53L281.55 147.76L281.71 151.4L281.87 155.44L282.02 159.89L282.16 164.74L282.29 170L282.42 175.66L282.54 181.73L282.65 188.2L282.75 195.08L282.84 202.36L282.92 210.05L283 218.14L283.07 226.64L283.13 235.54L283.18 244.84L283.22 254.56L283.26 264.67L283.29 275.19L283.3 286.12L283.32 297.45L283.32 309.19L283.31 321.33L283.3 333.87L283.28 346.82L283.25 360.18L283.21 373.94L283.16 388.11L283.11 402.68L283.05 417.65L282.98 433.03L282.9 448.82L282.81 465.01L282.8 465.41L282.77 465.82L282.73 466.22L282.67 466.61L282.6 467L282.51 467.38L282.41 467.76L282.29 468.13L282.16 468.49L282.01 468.85L281.86 469.2L281.69 469.55L281.5 469.88L281.3 470.21L281.1 470.53L280.88 470.84L280.64 471.14L280.4 471.43L280.15 471.72L279.88 471.99L279.61 472.25L279.32 472.51L279.03 472.75L278.73 472.98L278.42 473.2L278.1 473.4L277.77 473.6L277.43 473.78L277.09 473.95L276.73 474.1L276.37 474.25L276.01 474.38L275.64 474.49L275.26 474.59L274.88 474.68L274.49 474.75L274.09 474.81L273.69 474.85L273.29 474.87L272.88 474.88L222.57 474.88L222.17 474.87L221.76 474.85L221.36 474.81L220.97 474.75L220.58 474.68L220.19 474.59L219.81 474.49L219.44 474.38L219.07 474.25L218.71 474.11L218.36 473.95L218.02 473.78L217.68 473.6L217.35 473.4L217.03 473.2L216.71 472.98L216.41 472.75L216.11 472.51L215.83 472.26L215.55 471.99L215.29 471.72L215.03 471.44L214.79 471.15L214.55 470.84L214.33 470.53L214.12 470.21L213.92 469.89L213.74 469.55L213.56 469.21L213.4 468.86L213.26 468.5L213.12 468.13L213 467.76L212.9 467.38L212.81 467L212.73 466.61L212.67 466.22L212.63 465.82L212.6 465.41L212.59 465.01L208.82 138.59L208.17 138.85L207.01 139.33L205.85 139.83L204.69 140.35L203.52 140.9L202.35 141.46L201.18 142.05L200.01 142.66L198.83 143.28L197.66 143.93L196.48 144.61L195.35 145.46L194.27 146.7L193.24 148.32L192.25 150.32L191.31 152.7L190.41 155.47L189.55 158.62L188.74 162.16L187.98 166.07L187.26 170.37L186.59 175.05L185.96 180.12L185.37 185.56L184.84 191.39L184.34 197.61L183.89 204.2L183.49 211.18L183.13 218.54L182.82 226.28L182.55 234.41L182.32 242.92L182.15 251.81L182.01 261.08L181.92 270.74L181.88 280.78L181.88 291.2L181.93 302.01L182.02 313.2L182.16 324.77L182.34 336.72L182.57 349.06L182.84 361.78L183.15 374.88L183.52 388.36L183.92 402.23L184.37 416.48L184.87 431.12L185.41 446.13L186 461.53L186.63 477.31L186.64 477.72L186.63 478.12L186.61 478.52L186.57 478.91L186.51 479.3L186.44 479.69L186.35 480.07L186.24 480.44L186.13 480.81L186 481.17L185.85 481.52L185.69 481.87L185.52 482.21L185.33 482.54L185.13 482.87L184.92 483.18L184.7 483.49L184.47 483.78L184.22 484.07L183.97 484.35L183.7 484.62L183.42 484.87L183.14 485.12L182.84 485.35L182.53 485.58L182.22 485.79L181.89 485.99L181.56 486.17L181.22 486.35L180.87 486.51L180.52 486.65L180.16 486.79L179.79 486.9L179.41 487.01L179.03 487.1L178.64 487.17L178.25 487.23L177.85 487.27L177.45 487.29L177.04 487.3L129.34 487.3L128.92 487.29L128.51 487.27L128.1 487.23L127.7 487.17L127.3 487.1L126.91 487.01L126.52 486.91L126.14 486.8L125.76 486.67L125.4 486.52L125.04 486.37L124.68 486.2L124.34 486.01L124 485.82L123.67 485.61L123.35 485.39L123.03 485.16L122.73 484.91L122.44 484.66L122.15 484.39L121.88 484.12L121.61 483.83L121.36 483.54L121.12 483.23L120.89 482.92L120.67 482.59L120.46 482.26L120.27 481.92L120.09 481.57L119.92 481.22L119.76 480.86L119.62 480.49L119.49 480.11L119.38 479.73L119.28 479.34L119.19 478.94L119.13 478.54L119.07 478.13L119.03 477.72L119.01 477.31L118.49 460.99L117.99 445.08L117.53 429.56L117.09 414.44L116.67 399.71L116.29 385.39L115.93 371.46L115.59 357.92L115.29 344.79L115.01 332.05L114.76 319.7L114.54 307.76L114.34 296.21L114.17 285.05L114.03 274.3L113.92 263.94L113.83 253.98L113.77 244.41L113.74 235.24L113.73 226.47L113.75 218.1L113.8 210.12L113.88 202.54L113.98 195.36L114.11 188.57L114.27 182.18L114.46 176.19L114.67 170.59L114.91 165.39L115.17 160.59L115.47 156.18L115.79 152.17L116.14 148.56L116.51 145.35L116.92 142.53L117.35 140.11L117.8 138.08L118.29 136.46L118.8 135.23L119.34 134.39L120.34 133.43L121.64 132.51L123.23 131.62L125.08 130.77L127.19 129.97L129.55 129.19L132.12 128.46L134.92 127.77L137.91 127.11L141.09 126.49L144.45 125.92L147.96 125.38L151.61 124.87L155.4 124.41L159.31 123.99L163.32 123.61L167.42 123.26L171.6 122.96L175.84 122.69L180.12 122.47L184.44 122.28L188.79 122.13L193.14 122.03L197.48 121.96L201.81 121.93L206.1 121.95L210.34 122ZM126.98 456.47L126.54 456.63L126.12 456.84L125.74 457.09L125.4 457.4L125.09 457.74L124.84 458.12L124.63 458.54L124.47 458.98L124.38 459.45L124.35 459.94L124.35 479.27L124.38 479.76L124.47 480.23L124.63 480.67L124.84 481.09L125.09 481.47L125.4 481.81L125.74 482.12L126.12 482.37L126.54 482.58L126.98 482.74L127.45 482.83L127.94 482.86L128.42 482.83L128.89 482.74L129.34 482.58L129.75 482.37L130.13 482.12L130.48 481.81L130.78 481.47L131.04 481.09L131.25 480.67L131.4 480.23L131.5 479.76L131.53 479.27L131.53 459.94L131.5 459.45L131.4 458.98L131.25 458.54L131.04 458.12L130.78 457.74L130.48 457.4L130.13 457.09L129.75 456.84L129.34 456.63L128.89 456.47L128.42 456.38L127.94 456.35L127.45 456.38L126.98 456.47ZM308.07 455.67L307.59 455.77L307.14 455.93L306.71 456.14L306.32 456.41L305.97 456.72L305.66 457.07L305.4 457.46L305.18 457.88L305.03 458.34L304.93 458.82L304.89 459.31L304.89 479.09L304.93 479.59L305.03 480.07L305.18 480.52L305.4 480.94L305.66 481.34L305.97 481.69L306.32 482L306.71 482.26L307.14 482.48L307.59 482.63L308.07 482.73L308.57 482.76L308.65 482.76L309.15 482.73L309.63 482.63L310.08 482.48L310.51 482.26L310.9 482L311.25 481.69L311.56 481.34L311.82 480.94L312.04 480.52L312.19 480.07L312.29 479.59L312.33 479.09L312.33 459.31L312.29 458.82L312.19 458.34L312.04 457.88L311.82 457.46L311.56 457.07L311.25 456.72L310.9 456.41L310.51 456.14L310.08 455.93L309.63 455.77L309.15 455.67L308.65 455.64L308.57 455.64L308.07 455.67ZM429.94 464.08L429.64 464.21L429.39 464.41L429.19 464.66L429.06 464.96L429.02 465.3L429.02 472.07L429.06 472.4L429.19 472.7L429.39 472.96L429.64 473.15L429.94 473.28L430.28 473.33L435.19 473.33L435.53 473.28L435.83 473.15L436.08 472.96L436.28 472.7L436.4 472.4L436.45 472.07L436.45 465.3L436.4 464.96L436.28 464.66L436.08 464.41L435.83 464.21L435.53 464.08L435.19 464.04L430.28 464.04L429.94 464.08ZM220.95 444.35L220.49 444.44L220.05 444.59L219.64 444.8L219.26 445.05L218.92 445.35L218.62 445.69L218.37 446.07L218.16 446.48L218.01 446.92L217.92 447.38L217.88 447.86L217.88 466.95L217.92 467.43L218.01 467.9L218.16 468.33L218.37 468.74L218.62 469.12L218.92 469.46L219.26 469.76L219.64 470.01L220.05 470.22L220.49 470.37L220.95 470.47L221.43 470.5L221.77 470.5L222.25 470.47L222.71 470.37L223.15 470.22L223.56 470.01L223.94 469.76L224.28 469.46L224.58 469.12L224.83 468.74L225.04 468.33L225.19 467.9L225.28 467.43L225.32 466.95L225.32 447.86L225.28 447.38L225.19 446.92L225.04 446.48L224.83 446.07L224.58 445.69L224.28 445.35L223.94 445.05L223.56 444.8L223.15 444.59L222.71 444.44L222.25 444.35L221.77 444.31L221.43 444.31L220.95 444.35ZM429.94 451.88L429.64 452L429.39 452.2L429.19 452.46L429.06 452.76L429.02 453.09L429.02 459.86L429.06 460.2L429.19 460.5L429.39 460.75L429.64 460.95L429.94 461.07L430.28 461.12L435.19 461.12L435.53 461.07L435.83 460.95L436.08 460.75L436.28 460.5L436.4 460.2L436.45 459.86L436.45 453.09L436.4 452.76L436.28 452.46L436.08 452.2L435.83 452L435.53 451.88L435.19 451.83L430.28 451.83L429.94 451.88ZM126.98 421.61L126.54 421.77L126.12 421.97L125.74 422.23L125.4 422.54L125.09 422.88L124.84 423.26L124.63 423.68L124.47 424.12L124.38 424.59L124.35 425.07L124.35 444.41L124.38 444.9L124.47 445.37L124.63 445.81L124.84 446.22L125.09 446.61L125.4 446.95L125.74 447.25L126.12 447.51L126.54 447.72L126.98 447.87L127.45 447.97L127.94 448L128.42 447.97L128.89 447.87L129.34 447.72L129.75 447.51L130.13 447.25L130.48 446.95L130.78 446.61L131.04 446.22L131.25 445.81L131.4 445.37L131.5 444.9L131.53 444.41L131.53 425.07L131.5 424.59L131.4 424.12L131.25 423.68L131.04 423.26L130.78 422.88L130.48 422.54L130.13 422.23L129.75 421.97L129.34 421.77L128.89 421.61L128.42 421.52L127.94 421.48L127.45 421.52L126.98 421.61ZM429.94 438.32L429.64 438.44L429.39 438.64L429.19 438.89L429.06 439.19L429.02 439.53L429.02 446.3L429.06 446.63L429.19 446.93L429.39 447.19L429.64 447.39L429.94 447.51L430.28 447.56L435.19 447.56L435.53 447.51L435.83 447.39L436.08 447.19L436.28 446.93L436.4 446.63L436.45 446.3L436.45 439.53L436.4 439.19L436.28 438.89L436.08 438.64L435.83 438.44L435.53 438.32L435.19 438.27L430.28 438.27L429.94 438.32ZM308.07 420.02L307.59 420.12L307.14 420.27L306.71 420.49L306.32 420.75L305.97 421.06L305.66 421.41L305.4 421.8L305.18 422.23L305.03 422.68L304.93 423.16L304.89 423.66L304.89 443.44L304.93 443.93L305.03 444.41L305.18 444.87L305.4 445.29L305.66 445.68L305.97 446.03L306.32 446.34L306.71 446.61L307.14 446.82L307.59 446.98L308.07 447.07L308.57 447.11L308.65 447.11L309.15 447.07L309.63 446.98L310.08 446.82L310.51 446.61L310.9 446.34L311.25 446.03L311.56 445.68L311.82 445.29L312.04 444.87L312.19 444.41L312.29 443.93L312.33 443.44L312.33 423.66L312.29 423.16L312.19 422.68L312.04 422.23L311.82 421.8L311.56 421.41L311.25 421.06L310.9 420.75L310.51 420.49L310.08 420.27L309.63 420.12L309.15 420.02L308.65 419.99L308.57 419.99L308.07 420.02ZM220.95 409.92L220.49 410.02L220.05 410.17L219.64 410.38L219.26 410.63L218.92 410.93L218.62 411.27L218.37 411.65L218.16 412.06L218.01 412.5L217.92 412.96L217.88 413.44L217.88 432.53L217.92 433.01L218.01 433.47L218.16 433.91L218.37 434.32L218.62 434.7L218.92 435.04L219.26 435.34L219.64 435.59L220.05 435.8L220.49 435.95L220.95 436.04L221.43 436.08L221.77 436.08L222.25 436.04L222.71 435.95L223.15 435.8L223.56 435.59L223.94 435.34L224.28 435.04L224.58 434.7L224.83 434.32L225.04 433.91L225.19 433.47L225.28 433.01L225.32 432.53L225.32 413.44L225.28 412.96L225.19 412.5L225.04 412.06L224.83 411.65L224.58 411.27L224.28 410.93L223.94 410.63L223.56 410.38L223.15 410.17L222.71 410.02L222.25 409.92L221.77 409.89L221.43 409.89L220.95 409.92ZM429.94 424.39L429.64 424.51L429.39 424.71L429.19 424.97L429.06 425.27L429.02 425.6L429.02 432.37L429.06 432.71L429.19 433.01L429.39 433.26L429.64 433.46L429.94 433.58L430.28 433.63L435.19 433.63L435.53 433.58L435.83 433.46L436.08 433.26L436.28 433.01L436.4 432.71L436.45 432.37L436.45 425.6L436.4 425.27L436.28 424.97L436.08 424.71L435.83 424.51L435.53 424.39L435.19 424.34L430.28 424.34L429.94 424.39ZM429.94 410.83L429.64 410.95L429.39 411.15L429.19 411.4L429.06 411.7L429.02 412.04L429.02 418.81L429.06 419.14L429.19 419.44L429.39 419.7L429.64 419.9L429.94 420.02L430.28 420.07L435.19 420.07L435.53 420.02L435.83 419.9L436.08 419.7L436.28 419.44L436.4 419.14L436.45 418.81L436.45 412.04L436.4 411.7L436.28 411.4L436.08 411.15L435.83 410.95L435.53 410.83L435.19 410.78L430.28 410.78L429.94 410.83ZM126.98 382.88L126.54 383.04L126.12 383.24L125.74 383.5L125.4 383.81L125.09 384.15L124.84 384.53L124.63 384.95L124.47 385.39L124.38 385.86L124.35 386.35L124.35 405.68L124.38 406.17L124.47 406.64L124.63 407.08L124.84 407.5L125.09 407.88L125.4 408.22L125.74 408.53L126.12 408.78L126.54 408.99L126.98 409.15L127.45 409.24L127.94 409.27L128.42 409.24L128.89 409.15L129.34 408.99L129.75 408.78L130.13 408.53L130.48 408.22L130.78 407.88L131.04 407.5L131.25 407.08L131.4 406.64L131.5 406.17L131.53 405.68L131.53 386.35L131.5 385.86L131.4 385.39L131.25 384.95L131.04 384.53L130.78 384.15L130.48 383.81L130.13 383.5L129.75 383.24L129.34 383.04L128.89 382.88L128.42 382.79L127.94 382.75L127.45 382.79L126.98 382.88ZM308.07 380.41L307.59 380.51L307.14 380.66L306.71 380.88L306.32 381.14L305.97 381.45L305.66 381.8L305.4 382.19L305.18 382.62L305.03 383.07L304.93 383.55L304.89 384.05L304.89 403.82L304.93 404.32L305.03 404.8L305.18 405.25L305.4 405.68L305.66 406.07L305.97 406.42L306.32 406.73L306.71 407L307.14 407.21L307.59 407.37L308.07 407.46L308.57 407.5L308.65 407.5L309.15 407.46L309.63 407.37L310.08 407.21L310.51 407L310.9 406.73L311.25 406.42L311.56 406.07L311.82 405.68L312.04 405.25L312.19 404.8L312.29 404.32L312.33 403.82L312.33 384.05L312.29 383.55L312.19 383.07L312.04 382.62L311.82 382.19L311.56 381.8L311.25 381.45L310.9 381.14L310.51 380.88L310.08 380.66L309.63 380.51L309.15 380.41L308.65 380.37L308.57 380.37L308.07 380.41ZM429.94 396.72L429.64 396.85L429.39 397.05L429.19 397.3L429.06 397.6L429.02 397.94L429.02 404.71L429.06 405.04L429.19 405.34L429.39 405.6L429.64 405.79L429.94 405.92L430.28 405.96L435.19 405.96L435.53 405.92L435.83 405.79L436.08 405.6L436.28 405.34L436.4 405.04L436.45 404.71L436.45 397.94L436.4 397.6L436.28 397.3L436.08 397.05L435.83 396.85L435.53 396.72L435.19 396.68L430.28 396.68L429.94 396.72ZM220.95 371.68L220.49 371.78L220.05 371.93L219.64 372.14L219.26 372.39L218.92 372.69L218.62 373.03L218.37 373.41L218.16 373.82L218.01 374.25L217.92 374.72L217.88 375.2L217.88 394.29L217.92 394.77L218.01 395.23L218.16 395.67L218.37 396.08L218.62 396.46L218.92 396.8L219.26 397.1L219.64 397.35L220.05 397.56L220.49 397.71L220.95 397.8L221.43 397.84L221.77 397.84L222.25 397.8L222.71 397.71L223.15 397.56L223.56 397.35L223.94 397.1L224.28 396.8L224.58 396.46L224.83 396.08L225.04 395.67L225.19 395.23L225.28 394.77L225.32 394.29L225.32 375.2L225.28 374.72L225.19 374.25L225.04 373.82L224.83 373.41L224.58 373.03L224.28 372.69L223.94 372.39L223.56 372.14L223.15 371.93L222.71 371.78L222.25 371.68L221.77 371.65L221.43 371.65L220.95 371.68ZM429.94 383.16L429.64 383.29L429.39 383.49L429.19 383.74L429.06 384.04L429.02 384.37L429.02 391.15L429.06 391.48L429.19 391.78L429.39 392.03L429.64 392.23L429.94 392.36L430.28 392.4L435.19 392.4L435.53 392.36L435.83 392.23L436.08 392.03L436.28 391.78L436.4 391.48L436.45 391.15L436.45 384.37L436.4 384.04L436.28 383.74L436.08 383.49L435.83 383.29L435.53 383.16L435.19 383.12L430.28 383.12L429.94 383.16ZM429.02 377.22L429.06 377.55L429.19 377.85L429.39 378.11L429.64 378.3L429.94 378.43L430.28 378.47L435.19 378.47L435.53 378.43L435.83 378.3L436.08 378.11L436.28 377.85L436.4 377.55L436.45 377.22L436.45 376.78L429.02 376.78L429.02 377.22ZM395.21 371.94L395.03 372.07L394.91 372.25L394.87 372.47L394.87 374.42L400.8 371.9L395.43 371.9L395.21 371.94ZM395.21 366.45L395.03 366.57L394.91 366.75L394.87 366.97L394.87 370.02L394.91 370.24L395.03 370.42L395.21 370.54L395.43 370.59L401.73 370.59L401.95 370.54L402.13 370.42L402.25 370.24L402.3 370.02L402.3 366.97L402.25 366.75L402.13 366.57L401.95 366.45L401.73 366.41L395.43 366.41L395.21 366.45ZM126.98 343.1L126.54 343.26L126.12 343.47L125.74 343.72L125.4 344.03L125.09 344.37L124.84 344.75L124.63 345.17L124.47 345.61L124.38 346.08L124.35 346.57L124.35 365.9L124.38 366.39L124.47 366.86L124.63 367.3L124.84 367.72L125.09 368.1L125.4 368.44L125.74 368.75L126.12 369L126.54 369.21L126.98 369.37L127.45 369.46L127.94 369.49L128.42 369.46L128.89 369.37L129.34 369.21L129.75 369L130.13 368.75L130.48 368.44L130.78 368.1L131.04 367.72L131.25 367.3L131.4 366.86L131.5 366.39L131.53 365.9L131.53 346.57L131.5 346.08L131.4 345.61L131.25 345.17L131.04 344.75L130.78 344.37L130.48 344.03L130.13 343.72L129.75 343.47L129.34 343.26L128.89 343.1L128.42 343.01L127.94 342.98L127.45 343.01L126.98 343.1ZM308.07 339.72L307.59 339.82L307.14 339.98L306.71 340.19L306.32 340.45L305.97 340.76L305.66 341.12L305.4 341.51L305.18 341.93L305.03 342.39L304.93 342.86L304.89 343.36L304.89 363.14L304.93 363.64L305.03 364.12L305.18 364.57L305.4 364.99L305.66 365.38L305.97 365.74L306.32 366.05L306.71 366.31L307.14 366.52L307.59 366.68L308.07 366.78L308.57 366.81L308.65 366.81L309.15 366.78L309.63 366.68L310.08 366.52L310.51 366.31L310.9 366.05L311.25 365.74L311.56 365.38L311.82 364.99L312.04 364.57L312.19 364.12L312.29 363.64L312.33 363.14L312.33 343.36L312.29 342.86L312.19 342.39L312.04 341.93L311.82 341.51L311.56 341.12L311.25 340.76L310.9 340.45L310.51 340.19L310.08 339.98L309.63 339.82L309.15 339.72L308.65 339.69L308.57 339.69L308.07 339.72ZM395.21 360.35L395.03 360.47L394.91 360.65L394.87 360.87L394.87 363.92L394.91 364.14L395.03 364.32L395.21 364.44L395.43 364.49L401.73 364.49L401.95 364.44L402.13 364.32L402.25 364.14L402.3 363.92L402.3 360.87L402.25 360.65L402.13 360.47L401.95 360.35L401.73 360.31L395.43 360.31L395.21 360.35ZM220.95 332.41L220.49 332.5L220.05 332.65L219.64 332.86L219.26 333.11L218.92 333.41L218.62 333.75L218.37 334.13L218.16 334.54L218.01 334.98L217.92 335.44L217.88 335.92L217.88 355.01L217.92 355.49L218.01 355.96L218.16 356.39L218.37 356.8L218.62 357.18L218.92 357.52L219.26 357.82L219.64 358.07L220.05 358.28L220.49 358.43L220.95 358.53L221.43 358.56L221.77 358.56L222.25 358.53L222.71 358.43L223.15 358.28L223.56 358.07L223.94 357.82L224.28 357.52L224.58 357.18L224.83 356.8L225.04 356.39L225.19 355.96L225.28 355.49L225.32 355.01L225.32 335.92L225.28 335.44L225.19 334.98L225.04 334.54L224.83 334.13L224.58 333.75L224.28 333.41L223.94 333.11L223.56 332.86L223.15 332.65L222.71 332.5L222.25 332.41L221.77 332.37L221.43 332.37L220.95 332.41ZM395.21 354.09L395.03 354.21L394.91 354.39L394.87 354.61L394.87 357.65L394.91 357.87L395.03 358.05L395.21 358.18L395.43 358.22L401.73 358.22L401.95 358.18L402.13 358.05L402.25 357.87L402.3 357.65L402.3 354.61L402.25 354.39L402.13 354.21L401.95 354.09L401.73 354.04L395.43 354.04L395.21 354.09ZM395.21 347.99L395.03 348.11L394.91 348.29L394.87 348.51L394.87 351.55L394.91 351.77L395.03 351.95L395.21 352.08L395.43 352.12L401.73 352.12L401.95 352.08L402.13 351.95L402.25 351.77L402.3 351.55L402.3 348.51L402.25 348.29L402.13 348.11L401.95 347.99L401.73 347.94L395.43 347.94L395.21 347.99ZM395.21 341.64L395.03 341.77L394.91 341.94L394.87 342.17L394.87 345.21L394.91 345.43L395.03 345.61L395.21 345.73L395.43 345.78L401.73 345.78L401.95 345.73L402.13 345.61L402.25 345.43L402.3 345.21L402.3 342.17L402.25 341.94L402.13 341.77L401.95 341.64L401.73 341.6L395.43 341.6L395.21 341.64ZM395.21 335.54L395.03 335.67L394.91 335.84L394.87 336.07L394.87 339.11L394.91 339.33L395.03 339.51L395.21 339.63L395.43 339.68L401.73 339.68L401.95 339.63L402.13 339.51L402.25 339.33L402.3 339.11L402.3 336.07L402.25 335.84L402.13 335.67L401.95 335.54L401.73 335.5L395.43 335.5L395.21 335.54ZM395.21 329.28L395.03 329.4L394.91 329.58L394.87 329.8L394.87 332.85L394.91 333.07L395.03 333.25L395.21 333.37L395.43 333.41L401.73 333.41L401.95 333.37L402.13 333.25L402.25 333.07L402.3 332.85L402.3 329.8L402.25 329.58L402.13 329.4L401.95 329.28L401.73 329.23L395.43 329.23L395.21 329.28ZM126.98 304.37L126.54 304.53L126.12 304.74L125.74 304.99L125.4 305.3L125.09 305.64L124.84 306.02L124.63 306.44L124.47 306.88L124.38 307.35L124.35 307.84L124.35 327.17L124.38 327.66L124.47 328.13L124.63 328.57L124.84 328.99L125.09 329.37L125.4 329.71L125.74 330.02L126.12 330.28L126.54 330.48L126.98 330.64L127.45 330.73L127.94 330.77L128.42 330.73L128.89 330.64L129.34 330.48L129.75 330.28L130.13 330.02L130.48 329.71L130.78 329.37L131.04 328.99L131.25 328.57L131.4 328.13L131.5 327.66L131.53 327.17L131.53 307.84L131.5 307.35L131.4 306.88L131.25 306.44L131.04 306.02L130.78 305.64L130.48 305.3L130.13 304.99L129.75 304.74L129.34 304.53L128.89 304.37L128.42 304.28L127.94 304.25L127.45 304.28L126.98 304.37ZM395.21 323.18L395.03 323.3L394.91 323.48L394.87 323.7L394.87 326.75L394.91 326.97L395.03 327.15L395.21 327.27L395.43 327.31L401.73 327.31L401.95 327.27L402.13 327.15L402.25 326.97L402.3 326.75L402.3 323.7L402.25 323.48L402.13 323.3L401.95 323.18L401.73 323.13L395.43 323.13L395.21 323.18ZM308.07 300.11L307.59 300.21L307.14 300.37L306.71 300.58L306.32 300.84L305.97 301.15L305.66 301.51L305.4 301.9L305.18 302.32L305.03 302.77L304.93 303.25L304.89 303.75L304.89 323.53L304.93 324.03L305.03 324.5L305.18 324.96L305.4 325.38L305.66 325.77L305.97 326.13L306.32 326.44L306.71 326.7L307.14 326.91L307.59 327.07L308.07 327.17L308.57 327.2L308.65 327.2L309.15 327.17L309.63 327.07L310.08 326.91L310.51 326.7L310.9 326.44L311.25 326.13L311.56 325.77L311.82 325.38L312.04 324.96L312.19 324.5L312.29 324.03L312.33 323.53L312.33 303.75L312.29 303.25L312.19 302.77L312.04 302.32L311.82 301.9L311.56 301.51L311.25 301.15L310.9 300.84L310.51 300.58L310.08 300.37L309.63 300.21L309.15 300.11L308.65 300.08L308.57 300.08L308.07 300.11ZM220.95 294.17L220.49 294.26L220.05 294.41L219.64 294.62L219.26 294.87L218.92 295.17L218.62 295.51L218.37 295.89L218.16 296.3L218.01 296.74L217.92 297.2L217.88 297.68L217.88 316.77L217.92 317.25L218.01 317.71L218.16 318.15L218.37 318.56L218.62 318.94L218.92 319.28L219.26 319.58L219.64 319.83L220.05 320.04L220.49 320.19L220.95 320.29L221.43 320.32L221.77 320.32L222.25 320.29L222.71 320.19L223.15 320.04L223.56 319.83L223.94 319.58L224.28 319.28L224.58 318.94L224.83 318.56L225.04 318.15L225.19 317.71L225.28 317.25L225.32 316.77L225.32 297.68L225.28 297.2L225.19 296.74L225.04 296.3L224.83 295.89L224.58 295.51L224.28 295.17L223.94 294.87L223.56 294.62L223.15 294.41L222.71 294.26L222.25 294.17L221.77 294.13L221.43 294.13L220.95 294.17ZM126.98 264.1L126.54 264.25L126.12 264.46L125.74 264.72L125.4 265.02L125.09 265.37L124.84 265.75L124.63 266.16L124.47 266.61L124.38 267.07L124.35 267.56L124.35 286.9L124.38 287.39L124.47 287.85L124.63 288.3L124.84 288.71L125.09 289.09L125.4 289.44L125.74 289.74L126.12 290L126.54 290.21L126.98 290.36L127.45 290.46L127.94 290.49L128.42 290.46L128.89 290.36L129.34 290.21L129.75 290L130.13 289.74L130.48 289.44L130.78 289.09L131.04 288.71L131.25 288.3L131.4 287.85L131.5 287.39L131.53 286.9L131.53 267.56L131.5 267.07L131.4 266.61L131.25 266.16L131.04 265.75L130.78 265.37L130.48 265.02L130.13 264.72L129.75 264.46L129.34 264.25L128.89 264.1L128.42 264L127.94 263.97L127.45 264L126.98 264.1ZM308.07 258.92L307.59 259.02L307.14 259.17L306.71 259.39L306.32 259.65L305.97 259.96L305.66 260.31L305.4 260.7L305.18 261.13L305.03 261.58L304.93 262.06L304.89 262.56L304.89 282.33L304.93 282.83L305.03 283.31L305.18 283.76L305.4 284.19L305.66 284.58L305.97 284.93L306.32 285.24L306.71 285.51L307.14 285.72L307.59 285.88L308.07 285.97L308.57 286.01L308.65 286.01L309.15 285.97L309.63 285.88L310.08 285.72L310.51 285.51L310.9 285.24L311.25 284.93L311.56 284.58L311.82 284.19L312.04 283.76L312.19 283.31L312.29 282.83L312.33 282.33L312.33 262.56L312.29 262.06L312.19 261.58L312.04 261.13L311.82 260.7L311.56 260.31L311.25 259.96L310.9 259.65L310.51 259.39L310.08 259.17L309.63 259.02L309.15 258.92L308.65 258.88L308.57 258.88L308.07 258.92ZM220.95 254.4L220.49 254.49L220.05 254.64L219.64 254.85L219.26 255.1L218.92 255.4L218.62 255.74L218.37 256.12L218.16 256.53L218.01 256.97L217.92 257.43L217.88 257.91L217.88 277L217.92 277.49L218.01 277.95L218.16 278.38L218.37 278.79L218.62 279.17L218.92 279.51L219.26 279.81L219.64 280.07L220.05 280.27L220.49 280.42L220.95 280.52L221.43 280.55L221.77 280.55L222.25 280.52L222.71 280.42L223.15 280.27L223.56 280.07L223.94 279.81L224.28 279.51L224.58 279.17L224.83 278.79L225.04 278.38L225.19 277.95L225.28 277.49L225.32 277L225.32 257.91L225.28 257.43L225.19 256.97L225.04 256.53L224.83 256.12L224.58 255.74L224.28 255.4L223.94 255.1L223.56 254.85L223.15 254.64L222.71 254.49L222.25 254.4L221.77 254.37L221.43 254.37L220.95 254.4ZM126.98 225.37L126.54 225.52L126.12 225.73L125.74 225.99L125.4 226.29L125.09 226.64L124.84 227.02L124.63 227.43L124.47 227.88L124.38 228.34L124.35 228.83L124.35 248.17L124.38 248.66L124.47 249.12L124.63 249.57L124.84 249.98L125.09 250.36L125.4 250.71L125.74 251.01L126.12 251.27L126.54 251.48L126.98 251.63L127.45 251.73L127.94 251.76L128.42 251.73L128.89 251.63L129.34 251.48L129.75 251.27L130.13 251.01L130.48 250.71L130.78 250.36L131.04 249.98L131.25 249.57L131.4 249.12L131.5 248.66L131.53 248.17L131.53 228.83L131.5 228.34L131.4 227.88L131.25 227.43L131.04 227.02L130.78 226.64L130.48 226.29L130.13 225.99L129.75 225.73L129.34 225.52L128.89 225.37L128.42 225.27L127.94 225.24L127.45 225.27L126.98 225.37ZM308.07 219.31L307.59 219.4L307.14 219.56L306.71 219.77L306.32 220.04L305.97 220.35L305.66 220.7L305.4 221.09L305.18 221.52L305.03 221.97L304.93 222.45L304.89 222.95L304.89 242.72L304.93 243.22L305.03 243.7L305.18 244.15L305.4 244.58L305.66 244.97L305.97 245.32L306.32 245.63L306.71 245.9L307.14 246.11L307.59 246.27L308.07 246.36L308.57 246.4L308.65 246.4L309.15 246.36L309.63 246.27L310.08 246.11L310.51 245.9L310.9 245.63L311.25 245.32L311.56 244.97L311.82 244.58L312.04 244.15L312.19 243.7L312.29 243.22L312.33 242.72L312.33 222.95L312.29 222.45L312.19 221.97L312.04 221.52L311.82 221.09L311.56 220.7L311.25 220.35L310.9 220.04L310.51 219.77L310.08 219.56L309.63 219.4L309.15 219.31L308.65 219.27L308.57 219.27L308.07 219.31ZM220.95 216.16L220.49 216.25L220.05 216.4L219.64 216.61L219.26 216.86L218.92 217.16L218.62 217.5L218.37 217.88L218.16 218.29L218.01 218.73L217.92 219.19L217.88 219.67L217.88 238.76L217.92 239.24L218.01 239.71L218.16 240.14L218.37 240.55L218.62 240.93L218.92 241.27L219.26 241.57L219.64 241.83L220.05 242.03L220.49 242.18L220.95 242.28L221.43 242.31L221.77 242.31L222.25 242.28L222.71 242.18L223.15 242.03L223.56 241.83L223.94 241.57L224.28 241.27L224.58 240.93L224.83 240.55L225.04 240.14L225.19 239.71L225.28 239.24L225.32 238.76L225.32 219.67L225.28 219.19L225.19 218.73L225.04 218.29L224.83 217.88L224.58 217.5L224.28 217.16L223.94 216.86L223.56 216.61L223.15 216.4L222.71 216.25L222.25 216.16L221.77 216.12L221.43 216.12L220.95 216.16ZM126.98 185.59L126.54 185.74L126.12 185.95L125.74 186.21L125.4 186.51L125.09 186.86L124.84 187.24L124.63 187.65L124.47 188.1L124.38 188.57L124.35 189.05L124.35 208.39L124.38 208.88L124.47 209.34L124.63 209.79L124.84 210.2L125.09 210.58L125.4 210.93L125.74 211.23L126.12 211.49L126.54 211.7L126.98 211.85L127.45 211.95L127.94 211.98L128.42 211.95L128.89 211.85L129.34 211.7L129.75 211.49L130.13 211.23L130.48 210.93L130.78 210.58L131.04 210.2L131.25 209.79L131.4 209.34L131.5 208.88L131.53 208.39L131.53 189.05L131.5 188.57L131.4 188.1L131.25 187.65L131.04 187.24L130.78 186.86L130.48 186.51L130.13 186.21L129.75 185.95L129.34 185.74L128.89 185.59L128.42 185.49L127.94 185.46L127.45 185.49L126.98 185.59ZM308.07 178.62L307.59 178.72L307.14 178.88L306.71 179.09L306.32 179.35L305.97 179.66L305.66 180.02L305.4 180.41L305.18 180.83L305.03 181.29L304.93 181.76L304.89 182.26L304.89 202.04L304.93 202.54L305.03 203.02L305.18 203.47L305.4 203.89L305.66 204.28L305.97 204.64L306.32 204.95L306.71 205.21L307.14 205.42L307.59 205.58L308.07 205.68L308.57 205.71L308.65 205.71L309.15 205.68L309.63 205.58L310.08 205.42L310.51 205.21L310.9 204.95L311.25 204.64L311.56 204.28L311.82 203.89L312.04 203.47L312.19 203.02L312.29 202.54L312.33 202.04L312.33 182.26L312.29 181.76L312.19 181.29L312.04 180.83L311.82 180.41L311.56 180.02L311.25 179.66L310.9 179.35L310.51 179.09L310.08 178.88L309.63 178.72L309.15 178.62L308.65 178.59L308.57 178.59L308.07 178.62ZM220.95 176.88L220.49 176.97L220.05 177.13L219.64 177.33L219.26 177.59L218.92 177.89L218.62 178.23L218.37 178.6L218.16 179.01L218.01 179.45L217.92 179.91L217.88 180.39L217.88 199.49L217.92 199.97L218.01 200.43L218.16 200.87L218.37 201.28L218.62 201.65L218.92 201.99L219.26 202.29L219.64 202.55L220.05 202.75L220.49 202.91L220.95 203L221.43 203.03L221.77 203.03L222.25 203L222.71 202.91L223.15 202.75L223.56 202.55L223.94 202.29L224.28 201.99L224.58 201.65L224.83 201.28L225.04 200.87L225.19 200.43L225.28 199.97L225.32 199.49L225.32 180.39L225.28 179.91L225.19 179.45L225.04 179.01L224.83 178.6L224.58 178.23L224.28 177.89L223.94 177.59L223.56 177.33L223.15 177.13L222.71 176.97L222.25 176.88L221.77 176.85L221.43 176.85L220.95 176.88ZM423.3 190.42L423.12 190.54L423 190.72L422.95 190.94L422.95 193.99L423 194.21L423.12 194.39L423.3 194.51L423.52 194.56L429.82 194.56L430.04 194.51L430.22 194.39L430.34 194.21L430.38 193.99L430.38 190.94L430.34 190.72L430.22 190.54L430.04 190.42L429.82 190.38L423.52 190.38L423.3 190.42ZM423.3 184.93L423.12 185.05L423 185.23L422.95 185.45L422.95 188.5L423 188.72L423.12 188.9L423.3 189.02L423.52 189.06L429.82 189.06L430.04 189.02L430.22 188.9L430.34 188.72L430.38 188.5L430.38 185.45L430.34 185.23L430.22 185.05L430.04 184.93L429.82 184.89L423.52 184.89L423.3 184.93ZM423.3 178.83L423.12 178.95L423 179.13L422.95 179.35L422.95 182.4L423 182.62L423.12 182.8L423.3 182.92L423.52 182.96L429.82 182.96L430.04 182.92L430.22 182.8L430.34 182.62L430.38 182.4L430.38 179.35L430.34 179.13L430.22 178.95L430.04 178.83L429.82 178.79L423.52 178.79L423.3 178.83ZM423.3 172.57L423.12 172.69L423 172.87L422.95 173.09L422.95 176.13L423 176.35L423.12 176.53L423.3 176.65L423.52 176.7L429.82 176.7L430.04 176.65L430.22 176.53L430.34 176.35L430.38 176.13L430.38 173.09L430.34 172.87L430.22 172.69L430.04 172.57L429.82 172.52L423.52 172.52L423.3 172.57ZM126.98 146.86L126.54 147.01L126.12 147.22L125.74 147.48L125.4 147.78L125.09 148.13L124.84 148.51L124.63 148.93L124.47 149.37L124.38 149.84L124.35 150.32L124.35 169.66L124.38 170.15L124.47 170.62L124.63 171.06L124.84 171.47L125.09 171.86L125.4 172.2L125.74 172.5L126.12 172.76L126.54 172.97L126.98 173.12L127.45 173.22L127.94 173.25L128.42 173.22L128.89 173.12L129.34 172.97L129.75 172.76L130.13 172.5L130.48 172.2L130.78 171.86L131.04 171.47L131.25 171.06L131.4 170.62L131.5 170.15L131.53 169.66L131.53 150.32L131.5 149.84L131.4 149.37L131.25 148.93L131.04 148.51L130.78 148.13L130.48 147.78L130.13 147.48L129.75 147.22L129.34 147.01L128.89 146.86L128.42 146.77L127.94 146.73L127.45 146.77L126.98 146.86ZM423.3 166.47L423.12 166.59L423 166.77L422.95 166.99L422.95 170.03L423 170.25L423.12 170.43L423.3 170.55L423.52 170.6L429.82 170.6L430.04 170.55L430.22 170.43L430.34 170.25L430.38 170.03L430.38 166.99L430.34 166.77L430.22 166.59L430.04 166.47L429.82 166.42L423.52 166.42L423.3 166.47ZM308.07 139.01L307.59 139.11L307.14 139.27L306.71 139.48L306.32 139.74L305.97 140.05L305.66 140.41L305.4 140.8L305.18 141.22L305.03 141.67L304.93 142.15L304.89 142.65L304.89 162.43L304.93 162.93L305.03 163.4L305.18 163.86L305.4 164.28L305.66 164.67L305.97 165.02L306.32 165.34L306.71 165.6L307.14 165.81L307.59 165.97L308.07 166.07L308.57 166.1L308.65 166.1L309.15 166.07L309.63 165.97L310.08 165.81L310.51 165.6L310.9 165.34L311.25 165.02L311.56 164.67L311.82 164.28L312.04 163.86L312.19 163.4L312.29 162.93L312.33 162.43L312.33 142.65L312.29 142.15L312.19 141.67L312.04 141.22L311.82 140.8L311.56 140.41L311.25 140.05L310.9 139.74L310.51 139.48L310.08 139.27L309.63 139.11L309.15 139.01L308.65 138.98L308.57 138.98L308.07 139.01ZM220.95 138.64L220.49 138.73L220.05 138.89L219.64 139.09L219.26 139.35L218.92 139.65L218.62 139.99L218.37 140.36L218.16 140.77L218.01 141.21L217.92 141.67L217.88 142.15L217.88 161.25L217.92 161.73L218.01 162.19L218.16 162.63L218.37 163.04L218.62 163.41L218.92 163.75L219.26 164.05L219.64 164.31L220.05 164.51L220.49 164.66L220.95 164.76L221.43 164.79L221.77 164.79L222.25 164.76L222.71 164.66L223.15 164.51L223.56 164.31L223.94 164.05L224.28 163.75L224.58 163.41L224.83 163.04L225.04 162.63L225.19 162.19L225.28 161.73L225.32 161.25L225.32 142.15L225.28 141.67L225.19 141.21L225.04 140.77L224.83 140.36L224.58 139.99L224.28 139.65L223.94 139.35L223.56 139.09L223.15 138.89L222.71 138.73L222.25 138.64L221.77 138.61L221.43 138.61L220.95 138.64ZM423.3 160.12L423.12 160.24L423 160.42L422.95 160.64L422.95 163.69L423 163.91L423.12 164.09L423.3 164.21L423.52 164.26L429.82 164.26L430.04 164.21L430.22 164.09L430.34 163.91L430.38 163.69L430.38 160.64L430.34 160.42L430.22 160.24L430.04 160.12L429.82 160.08L423.52 160.08L423.3 160.12ZM423.3 154.02L423.12 154.14L423 154.32L422.95 154.54L422.95 157.59L423 157.81L423.12 157.99L423.3 158.11L423.52 158.16L429.82 158.16L430.04 158.11L430.22 157.99L430.34 157.81L430.38 157.59L430.38 154.54L430.34 154.32L430.22 154.14L430.04 154.02L429.82 153.98L423.52 153.98L423.3 154.02ZM423.3 147.76L423.12 147.88L423 148.06L422.95 148.28L422.95 151.32L423 151.54L423.12 151.72L423.3 151.85L423.52 151.89L429.82 151.89L430.04 151.85L430.22 151.72L430.34 151.54L430.38 151.32L430.38 148.28L430.34 148.06L430.22 147.88L430.04 147.76L429.82 147.71L423.52 147.71L423.3 147.76ZM423.3 141.66L423.12 141.78L423 141.96L422.95 142.18L422.95 145.22L423 145.44L423.12 145.62L423.3 145.75L423.52 145.79L429.82 145.79L430.04 145.75L430.22 145.62L430.34 145.44L430.38 145.22L430.38 142.18L430.34 141.96L430.22 141.78L430.04 141.66L429.82 141.61L423.52 141.61L423.3 141.66Z" id="bcmre1oZjZ"></path></defs><g><g><g><use xlink:href="#bnGvhNZWi" opacity="1" fill="#838c95" fill-opacity="1"></use><g><use xlink:href="#bnGvhNZWi" opacity="1" fill-opacity="0" stroke="#090909" stroke-width="1" stroke-opacity="1"></use></g></g><g><use xlink:href="#bRKuuL5x" opacity="1" fill="#818d99" fill-opacity="1"></use></g><g><use xlink:href="#bcmre1oZjZ" opacity="1" fill="#fff5e6" fill-opacity="1"></use><g><use xlink:href="#bcmre1oZjZ" opacity="1" fill-opacity="0" stroke="#000000" stroke-width="1" stroke-opacity="1"></use></g></g></g></g></svg>